<svg preserveAspectRatio="none" width="100%" height="100%" overflow="visible" style="display: block;" viewBox="0 0 15.5868 15.5792" fill="none" xmlns="http://www.w3.org/2000/svg">
<path id="arrow.backward.circle" d="M7.78962 15.5792C12.0611 15.5792 15.5868 12.0536 15.5868 7.78962C15.5868 3.52567 12.0536 0 7.78209 0C3.51814 0 0 3.52567 0 7.78962C0 12.0536 3.52567 15.5792 7.78962 15.5792ZM7.78962 14.0273C4.33175 14.0273 1.56696 11.2475 1.56696 7.78962C1.56696 4.33175 4.33175 1.55943 7.78209 1.55943C11.24 1.55943 14.0198 4.33175 14.0273 7.78962C14.0349 11.2475 11.2475 14.0273 7.78962 14.0273ZM3.90234 7.78962C3.90234 8.00056 3.98521 8.16629 4.15095 8.33203L6.7048 10.8482C6.83287 10.9688 6.98354 11.0366 7.16434 11.0366C7.51842 11.0366 7.77455 10.7653 7.77455 10.4113C7.77455 10.2229 7.69922 10.0647 7.57868 9.95173L6.6596 9.07785L5.81585 8.39983L7.36021 8.46763H11.0366C11.4208 8.46763 11.692 8.17383 11.692 7.78962C11.692 7.39788 11.4208 7.11161 11.0366 7.11161H7.36021L5.82338 7.18694L6.66713 6.5014L7.57868 5.62751C7.69169 5.51451 7.77455 5.35631 7.77455 5.16797C7.77455 4.8139 7.51842 4.55022 7.16434 4.55022C6.98354 4.55022 6.83287 4.61049 6.7048 4.73103L4.15095 7.25474C3.97768 7.42048 3.90234 7.58622 3.90234 7.78962Z" fill="var(--fill-0, #DEFF00)"/>
</svg>
