<svg width="42" height="35" viewBox="0 0 42 35" fill="none" xmlns="http://www.w3.org/2000/svg">
<path d="M32.9565 7.19247L38.1601 1.99405C38.3792 1.77499 38.5022 1.47788 38.5022 1.16809C38.5022 0.85829 38.3792 0.561183 38.1601 0.342125C37.941 0.123066 37.6439 7.99569e-09 37.334 0C37.0242 -7.99569e-09 36.7271 0.123065 36.508 0.342124L30.9078 5.9652C27.8554 4.34865 24.4541 3.5028 21 3.50131C12.693 3.50131 5.09531 8.39175 0.157769 16.9174C0.0544457 17.0944 0 17.2957 0 17.5007C0 17.7056 0.0544457 17.9069 0.157769 18.084C2.32396 21.9659 5.35873 25.2943 9.02482 27.8088L3.83993 33.0073C3.62276 33.2273 3.50099 33.5241 3.50099 33.8332C3.50099 34.1424 3.62276 34.4391 3.83993 34.6592C4.05942 34.8775 4.3564 35 4.66596 35C4.97553 35 5.27251 34.8775 5.492 34.6592L11.1156 29.0595C14.163 30.6642 17.5558 31.5019 21 31.5C29.307 31.5 36.9047 26.6096 41.8422 18.084C41.9456 17.9069 42 17.7056 42 17.5007C42 17.2957 41.9456 17.0944 41.8422 16.9174C39.6707 13.0334 36.6294 9.70486 32.9565 7.19247ZM2.52387 17.5007C7.03673 10.0763 13.7244 5.83454 21 5.83454C23.8188 5.83728 26.6008 6.47529 29.139 7.70112L25.8722 10.9676C24.3016 9.79632 22.3616 9.22977 20.4074 9.37167C18.4532 9.51357 16.6154 10.3544 15.2305 11.7404C13.8456 13.1263 13.0061 14.9646 12.8658 16.9187C12.7255 18.8729 13.2937 20.8122 14.4664 22.3818L10.7329 26.1149C7.36678 23.9174 4.5567 20.9686 2.52387 17.5007ZM26.8336 17.5007C26.8343 18.5546 26.5493 19.589 26.0087 20.4938C25.4682 21.3986 24.6924 22.14 23.7639 22.6389C22.8354 23.1378 21.789 23.3756 20.7361 23.327C19.6832 23.2785 18.6631 22.9453 17.7845 22.3631L25.8629 14.2855C26.4957 15.2384 26.8334 16.3568 26.8336 17.5007ZM15.1664 17.5007C15.1657 16.4467 15.4507 15.4123 15.9913 14.5075C16.5318 13.6027 17.3076 12.8614 18.2361 12.3625C19.1646 11.8636 20.211 11.6257 21.2639 11.6743C22.3168 11.7228 23.3369 12.056 24.2155 12.6382L16.1371 20.7158C15.5043 19.7629 15.1666 18.6445 15.1664 17.5007ZM21 29.1668C18.1812 29.164 15.3992 28.526 12.861 27.3002L16.1278 24.0337C17.6984 25.205 19.6384 25.7716 21.5926 25.6296C23.5468 25.4877 25.3846 24.6469 26.7695 23.261C28.1544 21.875 28.9939 20.0368 29.1342 18.0826C29.2745 16.1284 28.7063 14.1891 27.5336 12.6196L31.2671 8.88639C34.6332 11.084 37.4433 14.0328 39.4761 17.5007C34.9633 24.925 28.2616 29.1668 21 29.1668Z" fill="#DEFF00"/>
</svg>
