<svg width="31" height="35" viewBox="0 0 31 35" fill="none" xmlns="http://www.w3.org/2000/svg">
<path d="M31 9.35009V15.6852C31 26.0738 23.1873 32.4415 15.8755 34.9365C15.7541 34.9785 15.6268 35 15.4987 35C15.3695 35 15.2412 34.9785 15.1187 34.9365C12.7574 34.1182 10.5203 32.9636 8.47305 31.5067C8.2256 31.3169 8.05982 31.036 8.01066 30.7234C7.9615 30.4107 8.03281 30.0907 8.20954 29.8309C8.38628 29.571 8.65463 29.3917 8.95799 29.3306C9.26134 29.2696 9.57599 29.3316 9.83557 29.5036C11.5873 30.7483 13.4914 31.7515 15.4987 32.4871C18.4114 31.4155 28.6152 26.8653 28.6152 15.6852V9.35009C28.6152 9.02615 28.7408 8.71547 28.9644 8.48641C29.1881 8.25735 29.4913 8.12866 29.8076 8.12866C30.1238 8.12866 30.4271 8.25735 30.6508 8.48641C30.8744 8.71547 31 9.02615 31 9.35009ZM30.6502 3.69897L2.03246 33.0131C1.80642 33.2289 1.50745 33.3464 1.19854 33.3408C0.889622 33.3352 0.594883 33.207 0.376413 32.9832C0.157943 32.7594 0.032801 32.4575 0.0273506 32.1411C0.0219001 31.8247 0.136567 31.5184 0.347194 31.2869L4.13428 27.4076C1.43241 24.1308 -0.0340693 19.971 0.000600963 15.682V6.09296C0.000244903 5.8113 0.0950551 5.5382 0.268937 5.32001C0.442819 5.10182 0.685056 4.95199 0.954526 4.89596C5.83635 4.08714 10.56 2.48161 14.9454 0.14055C15.1193 0.0521151 15.3101 0.00420681 15.5042 0.000264757C15.6982 -0.0036773 15.8907 0.0364446 16.0679 0.11775C19.4481 1.97698 23.0657 3.34247 26.8154 4.17451L28.965 1.97269C29.191 1.75693 29.49 1.63948 29.7989 1.64506C30.1078 1.65064 30.4025 1.77883 30.621 2.00262C30.8395 2.2264 30.9646 2.52831 30.9701 2.84475C30.9755 3.16118 30.8609 3.46742 30.6502 3.69897ZM5.82273 25.6765L24.8392 6.19719C21.6033 5.37805 18.4761 4.1608 15.5257 2.572C11.3889 4.7405 6.95873 6.26321 2.38223 7.08964V15.6852C2.35369 19.3252 3.57103 22.8604 5.82273 25.6765Z" fill="#DEFF00"/>
</svg>
