<svg width="87" height="88" viewBox="0 0 87 88" fill="none" xmlns="http://www.w3.org/2000/svg">
<path d="M78.4006 71.4184L82.8123 68.2933L83.4837 68.3799L86.2572 87.7305L80.3113 75.9713L75.3222 79.491L69.7687 69.0409C69.7136 68.6655 69.7817 68.7938 70.051 68.7585C70.6803 68.6783 71.2544 68.9703 71.8708 68.951V66.673L73.7944 66.9714L73.9825 64.7768L75.1406 64.8794L75.8964 63.0698L78.3941 71.4152L78.4006 71.4184Z" fill="#DEFF00"/>
<path d="M65.9151 76.9402L65.7399 81.2814L64.0077 81.0054C63.7125 80.7873 63.9168 80.768 63.9623 80.5755C64.1666 79.7541 64.8057 77.736 65.2014 77.0526C65.4707 76.5873 65.4285 76.8215 65.9118 76.9402H65.9151Z" fill="#DEFF00"/>
<path d="M66.1583 61.2313C66.1389 61.257 65.6588 61.4688 65.4934 61.2313C65.2825 60.9265 63.7157 57.4132 63.8585 57.2496C64.345 57.3458 65.3733 56.563 65.688 57.0506L66.1551 61.2281L66.1583 61.2313Z" fill="#DEFF00"/>
<path d="M66.5087 68.197V68.7585L62.2917 69.3296C62.3566 68.8869 62.0679 67.3885 62.5934 67.2634L66.5087 68.197Z" fill="#DEFF00"/>
<path d="M66.4146 69.9072L66.7066 70.3788C66.7033 70.8441 64.3321 72.7595 63.9201 73.3146L62.6777 71.8965L66.4146 69.9104V69.9072Z" fill="#DEFF00"/>
<path d="M68.2279 75.9745L70.3234 79.6739L69.0583 80.306C68.8053 80.3605 68.7469 80.1905 68.6529 80.0172C68.1371 79.0707 68.1274 77.2515 67.4818 76.2504L68.2279 75.9745Z" fill="#DEFF00"/>
<path d="M70.3818 58.2025C69.7558 58.9244 68.8702 61.1511 68.2831 61.6773C68.0722 61.8666 67.9619 61.8121 67.6992 61.8025L68.5555 57.8143C68.7794 57.4164 69.9472 58.3373 70.3818 58.2025Z" fill="#DEFF00"/>
<path d="M30.609 27.1986H22.402V35.3162H30.609V27.1986Z" fill="#DEFF00"/>
<path d="M44.3564 27.1986H36.1495V35.3162H44.3564V27.1986Z" fill="#DEFF00"/>
<path d="M58.1039 27.1986H49.8969V35.3162H58.1039V27.1986Z" fill="#DEFF00"/>
<path d="M67.7738 0H12.7354C5.71567 0 0 5.65341 0 12.5966V61.9019H38.3423L60.7281 79.8343L57.8541 61.9019H64.0271L60.5076 59.0913H54.5291L56.7642 73.0419L39.3512 59.0913H2.84161V12.5966C2.84161 7.19991 7.28245 2.81066 12.7354 2.81066H67.7738C73.2299 2.81066 77.6675 7.20312 77.6675 12.5966V49.3053C77.6675 53.7651 77.048 57.5415 72.912 58.7127L71.7507 61.6645C80.0258 60.0538 80.5091 55.8892 80.5091 49.3053V12.5966C80.5091 5.6502 74.7935 0 67.7738 0Z" fill="#DEFF00"/>
</svg>
