<svg width="35" height="35" viewBox="0 0 35 35" fill="none" xmlns="http://www.w3.org/2000/svg">
<path d="M34.6042 0.395151C34.4795 0.269907 34.3312 0.170528 34.168 0.102717C34.0047 0.0349069 33.8297 0 33.653 0C33.4762 0 33.3011 0.0349069 33.1379 0.102717C32.9747 0.170528 32.8264 0.269907 32.7017 0.395151L23.4223 9.66503L20.4249 3.62749C20.1564 3.07892 19.7394 2.61669 19.2213 2.29339C18.7031 1.97008 18.1046 1.79868 17.4939 1.79868C16.8831 1.79868 16.2846 1.97008 15.7665 2.29339C15.2483 2.61669 14.8313 3.07892 14.5629 3.62749L11.0898 10.6342C11.0554 10.7028 11.0047 10.762 10.9421 10.8064C10.8795 10.8509 10.807 10.8792 10.7309 10.8891L2.6899 12.0556C2.11073 12.1394 1.56651 12.3834 1.11865 12.76C0.670798 13.1366 0.337139 13.6309 0.155337 14.1871C-0.0264648 14.7433 -0.0491713 15.3393 0.0897804 15.9077C0.228732 16.4761 0.52381 16.9944 0.941708 17.404L6.76242 23.0431C6.81384 23.0942 6.85212 23.1569 6.874 23.226C6.89588 23.295 6.90071 23.3684 6.88806 23.4397L6.31371 26.7708L0.390687 32.6935C0.145355 32.9472 0.00950868 33.2872 0.0124082 33.6401C0.0153078 33.993 0.156721 34.3307 0.40619 34.5804C0.655659 34.8301 0.993223 34.9718 1.34618 34.9751C1.69913 34.9783 2.03923 34.8428 2.29323 34.5977L34.6006 2.2922C34.852 2.04074 34.9935 1.69995 34.9942 1.34442C34.9948 0.988882 34.8546 0.647559 34.6042 0.395151ZM8.65241 21.1227L2.81913 15.4693C2.76078 15.4145 2.71993 15.3437 2.70172 15.2658C2.68352 15.1878 2.68877 15.1063 2.71682 15.0313C2.73978 14.95 2.78598 14.8771 2.84974 14.8217C2.9135 14.7662 2.99206 14.7305 3.07579 14.719L11.1311 13.5507C11.6348 13.4752 12.1129 13.2796 12.5249 12.9803C12.937 12.681 13.271 12.2869 13.4985 11.8313L16.9859 4.80664C17.0323 4.70937 17.1054 4.62723 17.1965 4.56973C17.2877 4.51222 17.3933 4.4817 17.501 4.4817C17.6088 4.4817 17.7144 4.51222 17.8056 4.56973C17.8967 4.62723 17.9698 4.70937 18.0162 4.80664L21.4264 11.6626L9.58035 23.5079C9.60247 23.0674 9.53124 22.6272 9.37132 22.2162C9.21141 21.8051 8.96642 21.4325 8.65241 21.1227ZM34.8447 14.2075C35.027 14.7613 35.0493 15.3552 34.9089 15.921C34.7686 16.4868 34.4713 17.0014 34.0514 17.4058L28.2181 23.0628C28.173 23.1101 28.1391 23.1669 28.1189 23.229C28.0988 23.2912 28.0928 23.357 28.1015 23.4218L29.4332 31.1751C29.5376 31.774 29.4717 32.3902 29.2429 32.9534C29.0141 33.5167 28.6316 34.0043 28.1392 34.3608C27.6455 34.7256 27.059 34.9439 26.4469 34.9906C25.8348 35.0372 25.2219 34.9104 24.6787 34.6246L17.7164 30.9597C17.6447 30.9251 17.5657 30.9082 17.4861 30.9104C17.4064 30.9126 17.3285 30.9338 17.2587 30.9723L10.3198 34.6049C9.7165 34.931 9.02502 35.0568 8.34549 34.9638C7.99204 34.9131 7.67321 34.7241 7.45913 34.4384C7.24505 34.1526 7.15326 33.7935 7.20396 33.4401C7.25466 33.0866 7.44368 32.7678 7.72946 32.5538C8.01523 32.3397 8.37434 32.2479 8.72779 32.2986C8.84544 32.3056 8.96246 32.2769 9.06343 32.2161L16.0275 28.5727C16.4778 28.3414 16.9764 28.2199 17.4827 28.218C17.989 28.2161 18.4885 28.334 18.9405 28.5619L25.9351 32.2394C26.0327 32.2899 26.1426 32.3119 26.2522 32.3027C26.3617 32.2935 26.4665 32.2535 26.5543 32.1873C26.6424 32.1269 26.7111 32.0421 26.7519 31.9433C26.7927 31.8445 26.8038 31.736 26.784 31.631L25.4558 23.8956C25.3675 23.399 25.4013 22.8882 25.5546 22.4076C25.7078 21.927 25.9758 21.4909 26.3353 21.1371L32.183 15.471C32.2415 15.416 32.2824 15.3449 32.3006 15.2667C32.3188 15.1884 32.3135 15.1065 32.2853 15.0313C32.2617 14.9487 32.2142 14.875 32.1487 14.8194C32.0832 14.7638 32.0027 14.7289 31.9173 14.719L29.015 14.3063C28.8386 14.2831 28.6685 14.2252 28.5145 14.1358C28.3606 14.0465 28.2259 13.9275 28.1182 13.7858C28.0106 13.6441 27.9321 13.4824 27.8874 13.3102C27.8426 13.1379 27.8324 12.9585 27.8575 12.7823C27.8825 12.6061 27.9423 12.4366 28.0332 12.2836C28.1242 12.1307 28.2446 11.9973 28.3875 11.8911C28.5303 11.785 28.6928 11.7082 28.8656 11.6653C29.0383 11.6224 29.2178 11.6141 29.3938 11.6411L32.3014 12.0538C32.8852 12.1367 33.4338 12.3828 33.8838 12.7638C34.3338 13.1449 34.6669 13.6454 34.8447 14.2075Z" fill="#DEFF00"/>
</svg>
