<svg preserveAspectRatio="none" width="100%" height="100%" overflow="visible" style="display: block;" viewBox="0 0 430.141 29" fill="none" xmlns="http://www.w3.org/2000/svg">
<g id="Logos Cart&#195;&#163;o">
<path id="Exclude" fill-rule="evenodd" clip-rule="evenodd" d="M16.2807 21.5121C18.0126 23.1463 20.3311 24.1665 22.8947 24.1665C28.2249 24.1665 32.5614 19.83 32.5614 14.4998C32.5614 9.16963 28.2249 4.83314 22.8947 4.83314C20.3311 4.83314 18.0126 5.8533 16.2807 7.48755C14.5488 5.8533 12.2303 4.83314 9.66667 4.83314C4.33649 4.83314 0 9.16963 0 14.4998C0 19.83 4.33649 24.1665 9.66667 24.1665C12.2303 24.1665 14.5488 23.1463 16.2807 21.5121ZM16.2807 21.5121C14.4116 19.7483 13.2281 17.2664 13.2281 14.4998C13.2281 11.7332 14.4116 9.25136 16.2807 7.48755C18.1498 9.25136 19.3333 11.7332 19.3333 14.4998C19.3333 17.2664 18.1498 19.7483 16.2807 21.5121Z" fill="var(--fill-0, white)" fill-opacity="0.55"/>
<g id="Subtract">
<path d="M85.348 13.4433C85.5944 13.2265 85.931 13.1145 86.3441 13.1145C86.6627 13.1145 86.9283 13.1711 87.2661 13.2927L87.2565 13.3951C87.1722 13.8938 87.0216 14.7116 86.9084 15.2855C86.8422 15.5758 86.7681 15.8305 86.6723 16.0353C86.467 16.4689 86.0063 16.7501 85.5167 16.7501C84.8602 16.7501 84.5591 16.4129 84.5591 15.6703C84.5591 14.7483 84.8789 13.8564 85.348 13.4433Z" fill="var(--fill-0, white)" fill-opacity="0.55"/>
<path d="M61.1255 15.5006L61.435 13.7518L61.4633 13.6114C61.7554 13.2929 62.1221 13.1224 62.5642 13.1224C63.2977 13.1224 63.6355 13.4994 63.6355 14.2613C63.6355 15.0508 63.3724 15.915 62.9869 16.3558C62.7424 16.628 62.4136 16.7713 62.0089 16.7713C61.3995 16.7713 61.0887 16.469 61.0887 15.859C61.0887 15.7349 61.1062 15.6229 61.1255 15.5006Z" fill="var(--fill-0, white)" fill-opacity="0.55"/>
<path d="M66.154 14.2129C66.2575 14.2232 66.6056 14.2232 67.1886 14.2232H67.3385C67.7613 14.2232 68.0528 14.2232 68.2214 14.2129H68.3069L68.325 14.0907C68.3437 13.9787 68.3539 13.8745 68.3539 13.7817C68.3539 13.3204 68.0425 13.0958 67.4415 13.0958C66.6797 13.0958 66.2473 13.4331 66.0504 14.2129H66.154Z" fill="var(--fill-0, white)" fill-opacity="0.55"/>
<path d="M78.6508 14.7784C78.8471 14.7784 78.988 14.7784 79.2711 14.8061L79.3644 14.8146C79.2711 15.3409 79.1681 15.7077 79.0278 16.0094C78.8007 16.4689 78.3406 16.7501 77.8221 16.7501C77.3066 16.7501 77.0248 16.4984 77.0248 16.0268C77.0248 15.6318 77.1952 15.2759 77.4764 15.0597C77.739 14.8519 78.0769 14.7784 78.6508 14.7784Z" fill="var(--fill-0, white)" fill-opacity="0.55"/>
<path fill-rule="evenodd" clip-rule="evenodd" d="M89.1211 21.2675C88.6718 23.4789 86.7194 24.1667 84.4833 24.1667L48.0497 24.1637C48.0497 24.1637 50.9699 9.83183 51.4113 7.73126C51.8522 5.63008 53.8118 4.83333 56.0497 4.83333H92.4917C92.4917 4.83333 89.5697 19.0562 89.1211 21.2675ZM83.5721 15.7745C83.5721 16.873 84.0888 17.3801 85.1885 17.3801C85.9979 17.3801 86.4309 17.1554 86.8054 16.5159C86.7876 16.6749 86.7774 16.7297 86.7497 16.8778L86.7488 16.8826C86.7229 17.0559 86.7197 17.1135 86.7136 17.2267C86.7128 17.2421 86.7119 17.2585 86.7109 17.2765H87.5847V17.2102C87.5847 16.7977 87.6594 16.1593 87.8292 15.1151C87.9708 14.2611 88.0635 13.7444 88.3188 12.3707C88.4604 11.6011 88.5712 11.0374 88.6477 10.6604L88.6657 10.5941H87.7076L87.6973 10.6688C87.6696 10.8772 87.6215 11.206 87.5468 11.6571L87.5465 11.6586C87.4816 12.0721 87.4347 12.3709 87.3968 12.5586L87.3788 12.6718C87.3084 12.6483 87.2614 12.6341 87.2224 12.6224C87.1835 12.6107 87.1525 12.6013 87.1144 12.5875C86.8801 12.5309 86.5892 12.5038 86.2966 12.5038C85.2643 12.5038 84.4833 12.9736 84.0322 13.8745C83.7317 14.4574 83.5721 15.135 83.5721 15.7745ZM58.1005 17.184L58.3071 16.1307L58.5329 14.9473L58.7208 13.8007C58.8154 13.2171 58.8714 12.8516 58.8894 12.701C58.8894 12.6817 58.8894 12.6534 58.8991 12.6071H59.8657C59.8578 12.6534 59.8476 12.6817 59.8398 12.701C59.8146 12.8009 59.7772 12.9954 59.7215 13.2853C59.6933 13.4325 59.6603 13.6042 59.6218 13.8007L59.4062 14.9473L59.2104 16.1307L59.1682 16.4C59.1053 16.8017 59.0638 17.0664 59.0478 17.184C59.0478 17.2021 59.0478 17.24 59.0406 17.2767H58.0716L58.1005 17.184ZM59.0882 11.3936C59.0882 10.9154 59.3224 10.6324 59.7362 10.6324C60.018 10.6324 60.1589 10.7649 60.1589 11.0371C60.1589 11.5074 59.9138 11.7983 59.5097 11.7983C59.2749 11.7983 59.134 11.7031 59.0954 11.5261C59.0882 11.4779 59.0882 11.4406 59.0882 11.3936ZM51.9759 17.1799L52.2788 15.6345L52.5859 14.0037L53.0954 10.8179L53.1171 10.7192H54.2083C54.2035 10.7401 54.2007 10.7575 54.1983 10.7722C54.1952 10.7921 54.1928 10.8068 54.1873 10.8179C54.1481 11.0046 54.0698 11.4177 53.9614 12.0555C53.9096 12.3578 53.8421 12.6976 53.7669 13.0758L53.7669 13.0759C53.7564 13.1287 53.7457 13.1822 53.735 13.2365L53.7157 13.375H53.8042L55.2285 13.3931L56.6154 13.375H56.725L56.7437 13.2365C56.7537 13.1714 56.7637 13.1058 56.7738 13.0396L56.774 13.0387C56.8234 12.7146 56.8751 12.3756 56.94 12.0164C57.0984 11.1516 57.1081 11.0919 57.1574 10.7198H58.2667C58.2493 10.789 58.2493 10.789 58.2378 10.8185C58.218 10.9167 58.121 11.428 57.953 12.3614L57.6489 14.0037L57.373 15.6351C57.2386 16.4292 57.161 16.9184 57.1307 17.1096L57.1253 17.1438C57.1229 17.1587 57.121 17.1707 57.1195 17.1799C57.1195 17.1941 57.1195 17.2029 57.1189 17.2117C57.1178 17.2259 57.1151 17.24 57.1081 17.2768H55.9969L56.018 17.1799C56.0451 17.0612 56.0951 16.7764 56.1728 16.3241C56.1854 16.2516 56.2036 16.1583 56.2264 16.0411L56.2264 16.041L56.2264 16.0409C56.2568 15.8846 56.2955 15.686 56.3402 15.4382L56.498 14.5728L56.5113 14.5018C56.5527 14.2799 56.5777 14.1458 56.5859 14.1103C56.5859 14.0991 56.5892 14.0854 56.5936 14.0667C56.5971 14.0522 56.6013 14.0346 56.6052 14.0127H56.4781C56.292 14.0037 55.623 14.0037 54.984 14.0037H54.9839C54.345 14.0037 53.9205 14.0037 53.7241 14.0121H53.5977C53.5813 14.167 53.5719 14.2198 53.5364 14.4193C53.5286 14.4627 53.5197 14.513 53.5091 14.5728C53.4598 14.8282 53.4122 15.1233 53.3622 15.4376C53.343 15.5512 53.3255 15.6546 53.3097 15.7479L53.3094 15.7494L53.3094 15.7495C53.2609 16.0361 53.2286 16.2268 53.2141 16.3235C53.1358 16.7956 53.0858 17.0793 53.0665 17.1799C53.0665 17.1973 53.0665 17.2377 53.0575 17.2762H51.956L51.9759 17.1799ZM59.8951 17.494C59.7162 18.4708 59.603 19.0532 59.5573 19.2591C59.5464 19.297 59.5464 19.2971 59.5284 19.3633H60.507C60.5148 19.2971 60.5148 19.2591 60.5148 19.2507C60.5287 19.093 60.5688 18.8459 60.6227 18.5134C60.6363 18.4294 60.6508 18.3399 60.666 18.245L60.8822 16.8538L60.9008 16.7424C61.1255 17.2302 61.4073 17.4001 62.0288 17.4001C63.0153 17.4001 63.7464 16.9297 64.1896 15.9999C64.463 15.4073 64.6226 14.74 64.6226 14.148C64.6226 13.0761 64.0583 12.5039 63.0062 12.5039C62.3865 12.5039 61.9264 12.672 61.4754 13.0664L61.494 12.9622L61.5392 12.7009L61.5597 12.6063H60.722L60.722 12.6064C60.7169 12.6404 60.7149 12.6539 60.7141 12.6676C60.7135 12.6766 60.7135 12.6857 60.7135 12.7009C60.6852 12.9074 60.6094 13.4055 60.4775 14.195L60.2047 15.8108L59.8951 17.494ZM66.764 17.3801C65.4975 17.3801 64.8748 16.8368 64.8748 15.7077C64.8748 15.0868 65.0356 14.3918 65.3084 13.81C65.7216 12.9356 66.4936 12.5038 67.6294 12.5038C68.7098 12.5038 69.2476 12.9157 69.2476 13.7342C69.2476 13.9684 69.1898 14.3364 69.0964 14.758L68.9929 14.7483C68.8243 14.7399 68.2968 14.7399 67.4136 14.7399H67.4129C66.6615 14.7399 66.2021 14.7399 66.0239 14.7483L65.9275 14.758C65.8438 15.1807 65.836 15.2855 65.836 15.586C65.836 16.3388 66.2666 16.7423 67.0754 16.7423C67.6029 16.7423 68.1088 16.6393 68.6743 16.3942L68.5321 17.1458C67.9871 17.2963 67.347 17.3801 66.764 17.3801ZM69.5942 16.1307L69.3864 17.184L69.3683 17.2767H70.3271C70.3596 16.8444 70.3794 16.7216 70.5143 15.8843L70.5152 15.8787C70.5324 15.7716 70.5516 15.653 70.5728 15.5206C70.636 15.1256 70.7041 14.7871 70.7776 14.4951C70.9757 13.7164 71.4749 13.2093 72.038 13.2093C72.2163 13.2093 72.3855 13.2364 72.5927 13.302L72.7137 12.6251C72.5367 12.5408 72.3771 12.5029 72.188 12.5029C71.8218 12.5029 71.4749 12.6631 71.2094 12.9624C71.0883 13.1039 71.0311 13.1714 70.8721 13.4237L70.9022 13.293L71.013 12.701L71.0311 12.6071H70.1862C70.1862 12.6353 70.1826 12.6568 70.1798 12.6736C70.178 12.6845 70.1765 12.6935 70.1765 12.701C70.1573 12.8516 70.1013 13.2171 70.0073 13.8007L69.8194 14.9473L69.5942 16.1307ZM76.095 13.3392C75.7 13.1989 75.2772 13.1224 74.8906 13.1224C74.4311 13.1224 74.0812 13.2362 73.8481 13.4614C73.4627 13.8282 73.1622 14.74 73.1622 15.5572C73.1622 16.3569 73.5109 16.7424 74.2251 16.7424C74.6479 16.7424 75.1929 16.6105 75.5675 16.4226L75.4356 17.1356C74.9568 17.2964 74.4504 17.3801 73.9337 17.3801C73.1989 17.3801 72.7954 17.2103 72.4847 16.7887C72.2781 16.4882 72.1938 16.1781 72.1938 15.68C72.1938 15.0314 72.3534 14.3551 72.6545 13.7619C72.787 13.4891 72.9737 13.2452 73.2092 13.0381C73.6229 12.6629 74.1493 12.5027 75.0044 12.5027C75.3049 12.5027 75.6235 12.522 76.1318 12.5683L76.2257 12.5774L76.095 13.3392ZM76.1046 16.1593C76.1046 16.985 76.5544 17.3801 77.5041 17.3801C78.266 17.3801 78.7634 17.1271 79.1862 16.5056C79.1494 16.7784 79.1109 17.0693 79.1109 17.2024V17.2765H79.9564C79.9486 17.2205 79.9486 17.1645 79.9486 17.1271C79.9486 16.705 80.0431 15.9811 80.2106 15.0687L80.3611 14.2129C80.437 13.8004 80.4647 13.6113 80.4647 13.4433C80.4647 12.7953 79.9655 12.5038 78.8471 12.5038C78.5845 12.5038 78.3027 12.5219 78.0209 12.5496C77.6926 12.5875 77.456 12.6062 77.3066 12.6062C77.2879 12.6062 77.2596 12.6062 77.2229 12.5966L77.0338 13.3686C77.6463 13.1988 78.116 13.1223 78.6032 13.1223C79.2428 13.1223 79.5529 13.3114 79.5529 13.6872C79.5529 13.8004 79.5529 13.8281 79.4879 14.1672L79.4674 14.2702C79.1585 14.2509 78.6972 14.2334 78.4629 14.2334C76.9682 14.2334 76.1046 14.9368 76.1046 16.1593ZM80.7658 17.184L80.9706 16.1307L81.1988 14.9473L81.3867 13.8007C81.4795 13.2171 81.5361 12.8516 81.5535 12.701C81.5535 12.6935 81.5551 12.6845 81.557 12.6736C81.56 12.6568 81.5638 12.6353 81.5638 12.6071H82.4105L82.3894 12.701L82.2774 13.293L82.2497 13.4237C82.4105 13.1714 82.4659 13.1039 82.5882 12.9624C82.8525 12.6631 83.1988 12.5029 83.5662 12.5029C83.7535 12.5029 83.9131 12.5408 84.0919 12.6251L83.9697 13.302C83.7625 13.2364 83.5945 13.2093 83.4138 13.2093C82.8525 13.2093 82.3539 13.7164 82.157 14.4951C82.0817 14.7871 82.0154 15.1256 81.9498 15.5206C81.9321 15.6311 81.9159 15.7319 81.9011 15.8245L81.8995 15.8346L81.8995 15.8346C81.758 16.7169 81.7389 16.836 81.7041 17.2767H80.7465L80.7658 17.184Z" fill="var(--fill-0, white)" fill-opacity="0.55"/>
</g>
<g id="Vector">
<path d="M115.858 9.10446C116.426 8.91475 117.033 8.81279 117.665 8.81279C120.42 8.81279 122.72 10.7667 123.248 13.3647L127.153 12.5683C126.257 8.15592 122.35 4.83333 117.665 4.83333C116.59 4.83333 115.559 5.00775 114.594 5.32999L115.858 9.10446Z" fill="var(--fill-0, white)" fill-opacity="0.55"/>
<path d="M111.248 21.7421L113.89 18.7607C112.711 17.7175 111.967 16.1959 111.967 14.5002C111.967 12.8059 112.71 11.2846 113.888 10.2425L111.246 7.26111C109.243 9.03218 107.98 11.6193 107.98 14.5002C107.98 17.3833 109.244 19.971 111.248 21.7421Z" fill="var(--fill-0, white)" fill-opacity="0.55"/>
<path d="M123.246 15.6419C122.718 18.2373 120.419 20.1879 117.665 20.1879C117.032 20.1879 116.424 20.086 115.857 19.8952L114.591 23.6704C115.556 23.993 116.59 24.1667 117.665 24.1667C122.345 24.1667 126.252 20.8506 127.152 16.4408L123.246 15.6419Z" fill="var(--fill-0, white)" fill-opacity="0.55"/>
<path d="M138.375 17.7098C138.373 17.7116 138.372 17.7124 138.372 17.7142L138.26 17.6384C137.94 18.1573 137.442 18.5768 136.812 18.8488C135.613 19.3695 134.502 19.2358 133.705 18.5374L133.632 18.6481L133.63 18.6463L132.269 20.6777C132.607 20.9119 132.969 21.1107 133.35 21.2691C134.853 21.8917 136.39 21.8629 137.904 21.2053C138.999 20.7324 139.859 20.0092 140.447 19.0931L138.375 17.7098ZM134.128 12.6984C132.864 13.2413 132.211 14.4262 132.345 15.8164L137.706 13.5126C136.785 12.4304 135.584 12.0725 134.128 12.6984ZM130.569 18.8863C130.441 18.6798 130.267 18.3477 130.162 18.1045C129.544 16.671 129.514 15.1875 130.036 13.7638C130.611 12.201 131.708 11.0056 133.125 10.3968C134.908 9.63108 136.879 9.78255 138.588 10.7941C139.672 11.4149 140.441 12.3747 141.026 13.7314C141.1 13.9048 141.165 14.0912 141.229 14.2485L130.569 18.8863Z" fill="var(--fill-0, white)" fill-opacity="0.55"/>
<path d="M144.956 7.40493V18.6992L146.714 19.4103L145.715 21.7378L143.774 20.932C143.338 20.7434 143.041 20.455 142.816 20.1291C142.603 19.7974 142.441 19.3422 142.441 18.7298V7.40493H144.956Z" fill="var(--fill-0, white)" fill-opacity="0.55"/>
<path d="M149.512 15.8215C149.513 14.8602 149.939 13.9976 150.611 13.4114L148.806 11.4029C147.583 12.4836 146.813 14.0606 146.811 15.8189C146.808 17.5791 147.578 19.1579 148.802 20.2408L150.603 18.2298C149.934 17.6421 149.511 16.7809 149.512 15.8215Z" fill="var(--fill-0, white)" fill-opacity="0.55"/>
<path d="M152.717 19.0267C152.362 19.026 152.021 18.967 151.701 18.8607L150.839 21.4197C151.428 21.6171 152.06 21.7241 152.715 21.7252C155.572 21.7274 157.958 19.704 158.511 17.0131L155.862 16.4739C155.561 17.9318 154.267 19.0285 152.717 19.0267Z" fill="var(--fill-0, white)" fill-opacity="0.55"/>
<path d="M152.725 9.92371C152.07 9.92299 151.44 10.0293 150.851 10.2249L151.706 12.7853C152.026 12.6797 152.368 12.6211 152.723 12.6211C154.276 12.6229 155.571 13.7251 155.864 15.1878L158.513 14.6507C157.969 11.9566 155.586 9.92517 152.725 9.92371Z" fill="var(--fill-0, white)" fill-opacity="0.55"/>
</g>
<g id="Vector_2">
<path d="M178.021 28.1111L178.024 28.1159V28.1143L178.021 28.1111Z" fill="var(--fill-0, white)" fill-opacity="0.55"/>
<path d="M178.167 26.1336C177.981 26.1336 177.801 26.1184 177.619 26.1161V26.2007H177.691C177.814 26.2007 178.06 26.2566 178.06 26.6L178.054 28.1271L178.032 28.1486L176.232 26.1169C176.112 26.1169 175.994 26.1336 175.871 26.1336C175.724 26.1336 175.572 26.1184 175.424 26.1169L175.424 26.2023H175.459C175.649 26.2023 175.844 26.3469 175.844 26.5841V28.2868C175.844 28.6079 175.754 28.8163 175.463 28.8179L175.424 28.8163V28.9026C175.599 28.9026 175.78 28.8858 175.957 28.8858C176.126 28.8858 176.294 28.901 176.461 28.9026V28.8179H176.411C176.092 28.8155 176.013 28.6773 176.013 28.3259V26.6152L178.114 28.9617H178.248C178.23 28.8387 178.227 28.7061 178.227 28.5719V26.7326C178.227 26.2494 178.43 26.2023 178.605 26.2023H178.647V26.1169C178.488 26.1176 178.328 26.1336 178.167 26.1336Z" fill="var(--fill-0, white)" fill-opacity="0.55"/>
<path d="M178.665 26.0849C178.497 26.0817 178.332 26.0961 178.167 26.0961C177.978 26.0961 177.791 26.0801 177.6 26.0801H177.583V26.2358H177.69C177.807 26.239 178.023 26.2782 178.024 26.5992V28.0847L176.245 26.0881C176.109 26.0817 175.992 26.0961 175.871 26.0961C175.72 26.0961 175.561 26.0809 175.406 26.0809H175.388V26.2358H175.459C175.632 26.2374 175.809 26.3668 175.809 26.5833V28.2852C175.807 28.6055 175.73 28.778 175.463 28.7796H175.388V28.9353H175.406C175.589 28.9353 175.776 28.9193 175.956 28.9193C176.129 28.9193 176.304 28.9353 176.478 28.9353H176.497V28.7812H176.409C176.105 28.7772 176.052 28.6773 176.046 28.3267V26.7087L178.1 28.9928L178.268 29H178.288L178.285 28.9784C178.266 28.857 178.261 28.7165 178.261 28.5743V26.7366C178.265 26.2582 178.437 26.2454 178.605 26.2406H178.681V26.0849H178.665ZM178.667 26.2215H178.605C178.435 26.2215 178.244 26.2542 178.244 26.7366V28.5743C178.244 28.7165 178.248 28.857 178.269 28.9824H178.114L176.029 26.6631V28.3283C176.029 28.6805 176.098 28.8011 176.41 28.8011H176.478V28.9225C176.305 28.9225 176.131 28.9066 175.957 28.9066C175.776 28.9066 175.589 28.9225 175.407 28.9225V28.8011H175.463C175.742 28.8011 175.828 28.6118 175.828 28.2892V26.5865C175.828 26.3604 175.641 26.2231 175.46 26.2231H175.408V26.1025C175.561 26.1025 175.718 26.1192 175.873 26.1192C175.994 26.1192 176.112 26.1025 176.234 26.1025L178.036 28.1263L178.043 28.1183V26.604C178.043 26.2718 177.812 26.2223 177.692 26.2223H177.602V26.1017C177.792 26.1017 177.978 26.1184 178.168 26.1184C178.335 26.1184 178.501 26.1017 178.667 26.1017V26.2215Z" fill="var(--fill-0, white)" fill-opacity="0.55"/>
<path d="M183.922 28.2676C183.802 28.7221 183.566 28.7628 183.088 28.7596C182.833 28.7596 182.577 28.7596 182.577 28.4785V27.5201H183.08C183.361 27.5169 183.391 27.687 183.411 27.9178L183.498 27.8987C183.49 27.7501 183.486 27.6008 183.486 27.4522C183.486 27.3013 183.49 27.1495 183.498 26.997H183.411C183.389 27.2054 183.323 27.3548 183.076 27.3524H182.577V26.2582H183.157C183.578 26.2558 183.649 26.4715 183.666 26.7254L183.754 26.7039C183.746 26.5905 183.742 26.4419 183.742 26.3077C183.742 26.239 183.742 26.1736 183.746 26.1169C183.471 26.1176 183.061 26.1336 182.728 26.1336C182.395 26.1336 181.987 26.1184 181.738 26.1169V26.2015H181.777C181.921 26.2015 182.094 26.2271 182.094 26.4507V28.5671C182.094 28.79 181.921 28.8147 181.777 28.8163H181.738V28.8994C181.974 28.8994 182.441 28.8834 182.796 28.8834C183.154 28.8834 183.611 28.8994 183.872 28.8994C183.906 28.6965 183.953 28.4921 184.003 28.2868L183.922 28.2676Z" fill="var(--fill-0, white)" fill-opacity="0.55"/>
<path d="M181.497 25.9603L181.478 25.9539L181.476 25.9715C181.47 26.0777 181.387 26.0793 181.274 26.0817H179.167C179.064 26.0793 178.989 26.0777 178.961 25.9763L178.959 25.9635H178.83V25.9803C178.83 26.0969 178.823 26.2095 178.805 26.3213C178.793 26.4379 178.773 26.5521 178.756 26.6639L178.755 26.6863H178.91L178.913 26.6719C178.979 26.3724 178.974 26.3221 179.272 26.3181H179.919V28.4585C179.914 28.7724 179.823 28.7748 179.602 28.7796H179.507V28.9353H179.524C179.683 28.9353 179.967 28.9185 180.208 28.9185C180.425 28.9185 180.709 28.9353 180.869 28.9353H180.885V28.7796H180.79C180.597 28.7748 180.476 28.7548 180.472 28.4497V26.3181H181.118C181.374 26.3181 181.39 26.5377 181.402 26.6895L181.402 26.7126L181.546 26.6607L181.557 26.6559V26.644C181.557 26.5345 181.557 26.4267 181.564 26.3197C181.576 26.2103 181.592 26.1033 181.609 25.9939L181.611 25.9771L181.497 25.9603ZM181.546 26.3181C181.539 26.4283 181.539 26.5361 181.539 26.644L181.417 26.6903C181.408 26.5409 181.389 26.3029 181.118 26.3029H180.454V28.4513C180.454 28.7644 180.596 28.8003 180.789 28.8003H180.867V28.9209C180.709 28.9209 180.425 28.9042 180.208 28.9042C179.964 28.9042 179.681 28.9209 179.523 28.9209V28.8003H179.599C179.823 28.8003 179.935 28.7812 179.935 28.4609V26.3029H179.271C178.968 26.3029 178.956 26.3764 178.895 26.6711H178.773C178.79 26.5561 178.81 26.4451 178.822 26.3253C178.838 26.2119 178.846 26.1001 178.846 25.9819H178.945C178.978 26.1025 179.078 26.0985 179.187 26.0985H181.276C181.386 26.0985 181.486 26.0945 181.495 25.9739L181.591 25.9907C181.574 26.1009 181.559 26.2071 181.546 26.3181Z" fill="var(--fill-0, white)" fill-opacity="0.55"/>
<path d="M181.508 25.9947C181.49 26.1121 181.377 26.1184 181.275 26.1169H179.168C179.073 26.1169 178.968 26.1137 178.932 26.001H178.866C178.864 26.1113 178.857 26.2207 178.841 26.3277C178.83 26.4371 178.811 26.5433 178.795 26.6512H178.882C178.935 26.37 178.971 26.2782 179.272 26.283H179.954V28.4593C179.954 28.7844 179.823 28.8171 179.601 28.8179H179.54V28.901C179.7 28.901 179.974 28.8858 180.208 28.8858C180.419 28.8858 180.689 28.901 180.849 28.901V28.8179H180.79C180.595 28.8171 180.436 28.7676 180.436 28.4513V26.2838H181.118C181.39 26.2846 181.425 26.5162 181.434 26.6663L181.521 26.6336C181.521 26.5298 181.522 26.4235 181.529 26.3173C181.541 26.2127 181.556 26.1097 181.571 26.005L181.508 25.9947Z" fill="var(--fill-0, white)" fill-opacity="0.55"/>
<path d="M175.253 26.0809C175.062 26.0817 174.819 26.0961 174.618 26.0961C174.421 26.0961 174.178 26.0801 174.018 26.0801H174.001V26.2358H174.075C174.221 26.2374 174.356 26.2526 174.357 26.4507V28.5663C174.356 28.7644 174.221 28.7772 174.075 28.7796H174.001V28.9345H174.018C174.178 28.9345 174.417 28.9177 174.614 28.9177C174.816 28.9177 175.058 28.9345 175.253 28.9345H175.271V28.7796H175.197C175.05 28.7772 174.915 28.7652 174.915 28.5671V26.4507C174.915 26.2526 175.05 26.2382 175.197 26.2366H175.271V26.0809H175.253ZM175.252 26.2215H175.196C175.051 26.2215 174.896 26.2398 174.896 26.4523V28.5671C174.896 28.7796 175.051 28.7979 175.196 28.7979H175.252V28.9193C175.058 28.9193 174.815 28.9034 174.613 28.9034C174.414 28.9034 174.176 28.9193 174.017 28.9193V28.7979H174.074C174.22 28.7979 174.374 28.7804 174.374 28.5671V26.4523C174.374 26.2398 174.22 26.2215 174.074 26.2215H174.017V26.1017C174.176 26.1017 174.418 26.1176 174.618 26.1176C174.819 26.1176 175.062 26.1017 175.252 26.1017V26.2215Z" fill="var(--fill-0, white)" fill-opacity="0.55"/>
<path d="M193.473 1.20448e-06H189.388C184.586 -0.00239476 180.632 3.57159 180.632 8.73969C180.632 13.4677 184.585 17.3532 189.388 17.3292H193.473C198.219 17.3516 202.551 13.4661 202.551 8.73969C202.551 3.56999 198.219 -0.00239476 193.473 1.20448e-06ZM189.408 16.5833C185.019 16.5809 181.462 13.0301 181.461 8.64944C181.462 4.26722 185.019 0.716396 189.408 0.715597C193.797 0.716396 197.355 4.26802 197.355 8.64944C197.355 13.0301 193.798 16.5809 189.408 16.5833Z" fill="var(--fill-0, white)" fill-opacity="0.55"/>
<path d="M201.324 24.2887C201.115 24.2887 200.951 24.2887 200.951 24.0411V18.9122C200.951 18.8515 200.938 18.806 200.891 18.806C200.868 18.806 200.808 18.8451 200.727 18.889C200.571 18.9793 200.259 19.1134 199.961 19.2077V19.3259C200.244 19.4081 200.356 19.4225 200.356 19.9057V24.0411C200.356 24.2879 200.207 24.2879 199.998 24.2879H199.855V24.4796C200.132 24.4732 200.399 24.4644 200.667 24.4644C200.936 24.4644 201.197 24.4796 201.448 24.4796V24.2887H201.324Z" fill="var(--fill-0, white)" fill-opacity="0.55"/>
<path d="M191.21 3.95574V13.3423C193.1 12.6164 194.442 10.7922 194.445 8.64865C194.443 6.50665 193.1 4.67933 191.21 3.95574Z" fill="var(--fill-0, white)" fill-opacity="0.55"/>
<path d="M207.22 21.0869C206.812 21.0869 206.41 21.3696 206.113 21.6212V18.9106C206.113 18.8499 206.097 18.8052 206.053 18.8052C206.03 18.8052 205.97 18.8419 205.889 18.8874C205.733 18.9777 205.421 19.1118 205.122 19.2069V19.3259C205.406 19.4105 205.518 19.4233 205.518 19.9065V23.0995C205.518 23.5524 205.48 23.982 205.413 24.4221L205.568 24.5036L205.792 24.3319C205.984 24.4149 206.275 24.593 206.825 24.593C207.891 24.593 208.604 23.6195 208.604 22.6467C208.604 21.8369 208.085 21.0869 207.22 21.0869ZM206.879 24.4005C206.381 24.4005 206.113 23.9245 206.113 23.6434V21.8384C206.314 21.6659 206.545 21.4886 206.82 21.4886C207.401 21.4886 208.009 22.1579 208.009 22.959C208.009 23.6195 207.676 24.4005 206.879 24.4005Z" fill="var(--fill-0, white)" fill-opacity="0.55"/>
<path d="M204.841 24.216C204.716 24.216 204.633 24.2097 204.633 24.0755V21.3337C204.633 21.2498 204.633 21.2003 204.574 21.2003C204.5 21.2003 204.083 21.2586 203.414 21.3033V21.4375C203.681 21.5126 204.039 21.5933 204.039 21.7434V23.7416C203.726 23.998 203.39 24.1913 203.139 24.1913C202.491 24.1913 202.491 23.5516 202.491 23.3295V21.4168C202.491 21.2522 202.491 21.2019 202.407 21.2019C202.311 21.2019 201.715 21.2458 201.448 21.2522V21.3944C201.865 21.4295 201.894 21.6156 201.894 21.8105V23.7105C201.894 24.3319 202.311 24.593 202.712 24.593C203.242 24.593 203.583 24.3319 204.03 23.9709V24.573L204.067 24.5946C204.21 24.5499 204.819 24.3933 205.141 24.3638V24.2097C205.043 24.2097 204.931 24.216 204.841 24.216Z" fill="var(--fill-0, white)" fill-opacity="0.55"/>
<path d="M191.143 21.8145C191.143 21.4974 191.426 21.3257 191.723 21.3257C192.201 21.3257 192.461 21.5933 192.536 22.0605H192.708L192.657 21.3041C192.365 21.1548 192.045 21.0877 191.808 21.0877C190.991 21.0877 190.655 21.622 190.655 22.0381C190.655 23.2321 192.275 22.9478 192.275 23.8263C192.275 24.0875 192.11 24.355 191.671 24.3574C191.127 24.3574 190.831 23.9397 190.733 23.4501L190.599 23.4885L190.682 24.3422C190.942 24.4892 191.291 24.5938 191.589 24.5938C192.474 24.5938 192.87 24.0731 192.87 23.5819C192.87 22.4167 191.143 22.685 191.143 21.8145Z" fill="var(--fill-0, white)" fill-opacity="0.55"/>
<path d="M176.191 19.2971C175.64 19.2971 175.216 19.3139 174.903 19.3139C174.613 19.3139 174.317 19.3139 174.026 19.2971V19.4896C174.361 19.4976 174.71 19.4521 174.71 20.1197L174.71 23.7233C174.689 24.228 174.472 24.2408 174.026 24.2879V24.478C174.361 24.4716 174.689 24.4636 175.023 24.4636C175.372 24.4668 175.723 24.478 176.102 24.478C178.736 24.478 179.166 22.6315 179.166 21.896C179.166 20.5806 178.118 19.2971 176.191 19.2971ZM176.213 24.2416C175.849 24.2416 175.44 24.1745 175.44 23.6035L175.439 19.5655C175.573 19.5551 175.714 19.5359 176.02 19.5359C177.455 19.5359 178.349 20.5382 178.349 21.9263C178.349 23.0332 177.82 24.2416 176.213 24.2416Z" fill="var(--fill-0, white)" fill-opacity="0.55"/>
<path d="M175.196 26.2023H175.235V26.1169C175.049 26.1169 174.814 26.1336 174.618 26.1336C174.426 26.1336 174.193 26.1184 174.036 26.1169V26.2023H174.075C174.219 26.2023 174.392 26.2279 174.392 26.4515V28.5663C174.392 28.7915 174.219 28.8155 174.075 28.8155H174.036V28.901C174.193 28.901 174.422 28.8842 174.613 28.8842C174.81 28.8842 175.044 28.8994 175.235 28.901V28.8155H175.196C175.051 28.8155 174.879 28.7907 174.879 28.5663V26.4515C174.879 26.2271 175.051 26.2023 175.196 26.2023Z" fill="var(--fill-0, white)" fill-opacity="0.55"/>
<path d="M180.893 24.2911C180.685 24.2911 180.521 24.2911 180.521 24.0443V21.1947C180.521 21.1356 180.506 21.0901 180.469 21.0901C180.432 21.0901 180.387 21.0973 180.334 21.1268C180.305 21.1492 179.889 21.2882 179.539 21.3944V21.5126C179.814 21.6588 179.927 21.7043 179.927 22.0309V24.0435C179.927 24.2903 179.776 24.2903 179.569 24.2903H179.427V24.482C179.703 24.474 179.971 24.4668 180.238 24.4668C180.506 24.4668 180.766 24.478 181.02 24.4828V24.2911H180.893Z" fill="var(--fill-0, white)" fill-opacity="0.55"/>
<path d="M189.985 21.0885C189.532 21.0885 189.22 21.5645 189.034 21.8528H189.018V21.1836C189.018 21.1101 188.995 21.0885 188.951 21.0885C188.884 21.0885 188.587 21.2802 188.043 21.511V21.6228C188.155 21.6811 188.43 21.7274 188.43 21.9574V24.0411C188.43 24.2895 188.281 24.2895 188.074 24.2895H187.873V24.4812C188.141 24.4748 188.452 24.466 188.758 24.466C189.078 24.466 189.389 24.4748 189.798 24.4812V24.2903H189.382C189.174 24.2903 189.025 24.2903 189.025 24.0427V22.2977C189.025 21.8504 189.441 21.6803 189.569 21.6827C189.829 21.6827 189.829 21.8616 190.061 21.8616C190.269 21.8616 190.41 21.6811 190.41 21.4814C190.41 21.2131 190.171 21.0885 189.985 21.0885Z" fill="var(--fill-0, white)" fill-opacity="0.55"/>
<path d="M180.223 19.2165C180.037 19.2165 179.859 19.3882 179.859 19.5735C179.859 19.7667 180.03 19.9456 180.223 19.9464C180.424 19.9464 180.589 19.7731 180.589 19.5735C180.589 19.3722 180.416 19.2165 180.223 19.2165Z" fill="var(--fill-0, white)" fill-opacity="0.55"/>
<path d="M187.632 23.6482C187.358 23.9213 187.037 24.1442 186.627 24.1442C186.034 24.1442 185.578 23.5659 185.535 22.8607C185.518 22.61 185.518 22.4973 185.535 22.4303L187.625 22.4319L187.693 22.3855C187.699 22.3416 187.699 22.2977 187.699 22.2514C187.693 21.4655 187.044 21.0861 186.442 21.0861C185.922 21.0861 184.939 21.5166 184.939 22.9717C184.939 23.4461 185.177 24.5906 186.36 24.5906C186.971 24.5906 187.393 24.2041 187.736 23.7512L187.632 23.6482ZM186.412 21.3257C186.829 21.3257 187.06 21.63 187.06 22.0078C187.06 22.0956 187.039 22.1931 186.852 22.1931H185.557C185.647 21.658 185.959 21.3257 186.412 21.3257Z" fill="var(--fill-0, white)" fill-opacity="0.55"/>
<path d="M184.371 8.64865C184.375 10.7898 185.714 12.6148 187.604 13.34V3.95574C185.714 4.68172 184.375 6.50745 184.371 8.64865Z" fill="var(--fill-0, white)" fill-opacity="0.55"/>
<path d="M203.069 26.1336C202.884 26.1336 202.705 26.1184 202.525 26.1176V26.2015H202.597C202.72 26.2031 202.966 26.2582 202.966 26.6008L202.963 28.1279L202.953 28.1359L202.939 28.1502L201.138 26.1176C201.018 26.1176 200.899 26.1344 200.777 26.1344C200.628 26.1344 200.477 26.1192 200.328 26.1176V26.2015H200.364C200.552 26.2023 200.749 26.3469 200.749 26.5841V28.2868C200.749 28.6079 200.657 28.8163 200.367 28.8179L200.326 28.8171V28.901C200.501 28.901 200.68 28.885 200.86 28.885C201.029 28.885 201.197 28.901 201.364 28.901V28.8179H201.313C200.996 28.8163 200.915 28.6773 200.915 28.3259V26.6152L203.016 28.9617H203.149C203.133 28.8387 203.13 28.7061 203.13 28.5719V26.7326C203.13 26.247 203.333 26.2023 203.507 26.2007H203.551V26.1169C203.391 26.1176 203.23 26.1336 203.069 26.1336Z" fill="var(--fill-0, white)" fill-opacity="0.55"/>
<path d="M183.915 28.2277H183.898V28.2301L183.894 28.2461C183.772 28.6997 183.576 28.7237 183.089 28.7269C182.825 28.7253 182.612 28.7269 182.612 28.4809V27.5552H183.081C183.349 27.5584 183.351 27.6934 183.379 27.9386L183.381 27.9578L183.521 27.9306L183.536 27.9258L183.535 27.9114C183.528 27.7573 183.522 27.6039 183.522 27.4506C183.522 27.2933 183.528 27.1343 183.535 26.9786L183.536 26.9618H183.381L183.379 26.9778C183.352 27.1942 183.31 27.3156 183.077 27.318H182.612V26.295H183.157C183.575 26.2997 183.61 26.4882 183.634 26.751L183.635 26.7702L183.778 26.7342L183.79 26.7294V26.7134C183.782 26.5976 183.778 26.4467 183.778 26.3061C183.778 26.2287 183.779 26.1568 183.782 26.0961L183.782 26.0793H183.764C183.489 26.0793 183.069 26.0945 182.728 26.0945C182.39 26.0945 181.968 26.0793 181.722 26.0793H181.704V26.2343H181.779C181.926 26.2374 182.059 26.251 182.059 26.4499V28.5647C182.059 28.7628 181.926 28.7764 181.779 28.7788H181.704V28.9329H181.722C181.952 28.9329 182.434 28.9169 182.797 28.9169C183.161 28.9169 183.627 28.9329 183.886 28.9329H183.901L183.904 28.9185C183.941 28.7045 183.989 28.4913 184.041 28.2772L184.045 28.2604L183.915 28.2277ZM183.886 28.9201C183.626 28.9201 183.161 28.9034 182.798 28.9034C182.432 28.9034 181.951 28.9201 181.721 28.9201V28.8003H181.778C181.924 28.8003 182.077 28.7812 182.077 28.5695V26.4531C182.077 26.2406 181.924 26.2223 181.778 26.2223H181.721V26.1009C181.967 26.1009 182.389 26.1176 182.729 26.1176C183.069 26.1176 183.489 26.1009 183.764 26.1009C183.758 26.2758 183.761 26.5425 183.774 26.719L183.651 26.751C183.631 26.489 183.583 26.2782 183.157 26.2782H182.596V27.3372H183.078C183.319 27.3372 183.373 27.1998 183.396 26.9802H183.518C183.51 27.1391 183.506 27.2965 183.506 27.4546C183.506 27.6071 183.51 27.7613 183.518 27.9154L183.396 27.9394C183.372 27.6966 183.361 27.5401 183.081 27.5401H182.596V28.4793C182.596 28.7428 182.829 28.7428 183.089 28.7428C183.575 28.7428 183.789 28.7101 183.91 28.2509L184.024 28.278C183.971 28.4921 183.922 28.7045 183.886 28.9201Z" fill="var(--fill-0, white)" fill-opacity="0.55"/>
<path d="M203.569 26.0841C203.401 26.0841 203.235 26.1001 203.069 26.1001C202.882 26.1001 202.695 26.0841 202.503 26.0841H202.485V26.239H202.593C202.711 26.2422 202.928 26.2822 202.929 26.6024V28.0879L201.149 26.0897C201.011 26.0833 200.896 26.0985 200.773 26.0985C200.622 26.0985 200.463 26.0833 200.309 26.0833H200.291V26.2382H200.361C200.535 26.2382 200.712 26.3692 200.712 26.5841V28.2868C200.708 28.6079 200.631 28.7796 200.363 28.7812H200.291V28.9369H200.308C200.491 28.9369 200.677 28.9201 200.859 28.9201C201.031 28.9201 201.205 28.9369 201.379 28.9369H201.396V28.7812H201.31C201.005 28.7764 200.952 28.6781 200.948 28.3267V26.7087L203 28.9936L203.167 28.9984H203.187L203.183 28.9808C203.164 28.857 203.16 28.7157 203.16 28.5743V26.735C203.164 26.259 203.337 26.2438 203.503 26.239H203.586V26.0841H203.569ZM203.574 26.2223H203.513C203.338 26.2215 203.147 26.2534 203.147 26.7342V28.5735C203.147 28.7149 203.15 28.8554 203.172 28.9808H203.017L200.933 26.6615V28.3267C200.933 28.6789 201.002 28.8003 201.315 28.8003H201.384V28.9209C201.21 28.9209 201.035 28.9042 200.864 28.9042C200.68 28.9042 200.495 28.9209 200.313 28.9209V28.8003H200.368C200.649 28.8003 200.732 28.6111 200.732 28.2876V26.5849C200.732 26.3588 200.549 26.2215 200.365 26.2215H200.313V26.1001C200.465 26.1001 200.625 26.1169 200.777 26.1169C200.9 26.1169 201.016 26.1001 201.137 26.1001L202.94 28.1247L202.945 28.1191L202.948 28.1167V26.6024C202.948 26.2702 202.719 26.2223 202.596 26.2223H202.511V26.1017C202.699 26.1017 202.886 26.1184 203.076 26.1184C203.242 26.1184 203.408 26.1017 203.574 26.1017V26.2223Z" fill="var(--fill-0, white)" fill-opacity="0.55"/>
<path d="M198.648 26.2167C197.94 26.2167 197.731 26.8484 197.731 27.3883C197.731 28.1111 198.063 28.8027 198.718 28.8027C199.504 28.8027 199.64 28.1111 199.64 27.5217C199.642 26.9323 199.323 26.2167 198.648 26.2167ZM198.719 28.7852C198.078 28.7844 197.75 28.1071 197.748 27.3875C197.751 26.8492 197.955 26.2358 198.648 26.2343C199.308 26.2358 199.625 26.9363 199.625 27.5209C199.623 28.1111 199.49 28.7852 198.719 28.7852Z" fill="var(--fill-0, white)" fill-opacity="0.55"/>
<path d="M198.659 26.0562C197.826 26.0562 197.181 26.7007 197.181 27.5321C197.182 28.3898 197.831 28.9641 198.68 28.9641C199.532 28.9641 200.191 28.3523 200.194 27.4338C200.192 26.5841 199.513 26.0577 198.659 26.0562ZM198.719 28.8203C198.047 28.8195 197.715 28.1159 197.714 27.3883C197.715 26.8436 197.929 26.2015 198.648 26.2015C199.337 26.2015 199.658 26.9291 199.659 27.5225C199.659 28.1111 199.52 28.8203 198.719 28.8203Z" fill="var(--fill-0, white)" fill-opacity="0.55"/>
<path d="M204.809 26.5521H204.803L204.801 26.5537L204.426 27.6974H205.183L204.809 26.5521ZM204.805 26.5952L205.156 27.6766H204.449L204.805 26.5952Z" fill="var(--fill-0, white)" fill-opacity="0.55"/>
<path d="M198.659 26.0218C197.809 26.0226 197.148 26.6807 197.146 27.5321C197.148 28.4106 197.812 28.9968 198.678 29C199.547 28.9968 200.227 28.3731 200.227 27.4338C200.225 26.5617 199.527 26.0226 198.659 26.0218ZM198.678 28.9808C197.819 28.9808 197.164 28.3986 197.164 27.5313C197.164 26.6895 197.814 26.0402 198.656 26.0402C199.519 26.0402 200.207 26.5737 200.207 27.433C200.209 28.3643 199.542 28.9808 198.678 28.9808Z" fill="var(--fill-0, white)" fill-opacity="0.55"/>
<path d="M208.686 28.2173L208.674 28.2157L208.67 28.2309C208.648 28.3171 208.612 28.4306 208.55 28.5152C208.479 28.6119 208.337 28.7061 208.171 28.7253C208.068 28.738 207.965 28.742 207.864 28.742C207.785 28.742 207.713 28.7388 207.641 28.734C207.515 28.7157 207.416 28.6765 207.415 28.524V26.4411C207.418 26.2366 207.516 26.2446 207.672 26.2398H207.791V26.0841H207.774C207.566 26.0841 207.363 26.1001 207.158 26.1001C206.943 26.1001 206.731 26.0841 206.516 26.0841H206.499V26.239H206.573C206.722 26.2406 206.859 26.2558 206.86 26.4523V28.5312C206.859 28.77 206.718 28.7804 206.573 28.782H206.5V28.9377H206.517C206.873 28.9377 207.231 28.9209 207.586 28.9209C207.942 28.9209 208.299 28.9377 208.654 28.9377H208.668L208.671 28.9233C208.721 28.6933 208.777 28.4697 208.822 28.2373L208.826 28.2173H208.686ZM208.654 28.9201C208.3 28.9201 207.942 28.9034 207.588 28.9034C207.231 28.9034 206.875 28.9201 206.518 28.9201V28.8003H206.573C206.72 28.8003 206.879 28.7812 206.879 28.528V26.4515C206.879 26.2382 206.72 26.2207 206.573 26.2207H206.518V26.1001C206.734 26.1001 206.943 26.1161 207.159 26.1161C207.365 26.1161 207.567 26.1001 207.775 26.1001V26.2207H207.672C207.52 26.2207 207.398 26.2247 207.398 26.4379V28.5216C207.398 28.6837 207.511 28.7324 207.64 28.7484C207.806 28.7604 207.989 28.7604 208.175 28.7396C208.345 28.7197 208.491 28.623 208.562 28.5224C208.626 28.4345 208.662 28.3195 208.686 28.2317H208.803C208.761 28.4641 208.704 28.6893 208.654 28.9201Z" fill="var(--fill-0, white)" fill-opacity="0.55"/>
<path d="M206.353 28.8179C206.215 28.8179 206.118 28.7636 206.069 28.6446C206.017 28.5216 205.967 28.3707 205.919 28.2285L205.173 26.1153C205.16 26.0841 205.15 26.0458 205.139 26.0194C205.135 26.013 205.136 26.013 205.132 26.013H205.125C205.116 26.013 205.111 26.017 205.102 26.0194C205.023 26.0689 204.861 26.1504 204.742 26.1815C204.717 26.3341 204.643 26.5353 204.591 26.6855L203.942 28.54C203.881 28.7157 203.74 28.8163 203.574 28.8163H203.567V28.9002C203.707 28.8914 203.846 28.8834 203.987 28.8834C204.143 28.8834 204.304 28.8922 204.459 28.9002V28.8163H204.431C204.3 28.8139 204.115 28.7995 204.112 28.6558C204.112 28.5759 204.162 28.4729 204.2 28.3363L204.333 27.9026H205.278L205.442 28.385C205.486 28.5152 205.524 28.6222 205.524 28.6813C205.517 28.8043 205.347 28.8147 205.256 28.8179H205.228V28.901H205.23C205.43 28.893 205.627 28.8842 205.818 28.8842C206.005 28.8842 206.182 28.893 206.36 28.901V28.8179H206.353ZM204.401 27.7134L204.788 26.5345H204.825L205.208 27.7134H204.401Z" fill="var(--fill-0, white)" fill-opacity="0.55"/>
<path d="M208.758 25.9859C208.513 25.9859 208.331 26.1712 208.331 26.4116C208.331 26.6504 208.514 26.834 208.758 26.834C209 26.834 209.182 26.6504 209.182 26.4116C209.182 26.1728 208.998 25.9859 208.758 25.9859ZM208.758 26.7566C208.566 26.7566 208.417 26.5936 208.417 26.41C208.417 26.2271 208.566 26.0633 208.758 26.0633C208.949 26.0633 209.094 26.2263 209.094 26.41C209.094 26.5936 208.946 26.7566 208.758 26.7566Z" fill="var(--fill-0, white)" fill-opacity="0.55"/>
<path d="M208.88 26.5202L208.807 26.4243C208.865 26.4076 208.907 26.3596 208.907 26.2957C208.907 26.2183 208.84 26.1831 208.763 26.1831H208.546V26.2039C208.601 26.2007 208.607 26.2175 208.607 26.2598V26.5753C208.607 26.608 208.596 26.6064 208.545 26.6152V26.6344H208.751V26.6152C208.698 26.6064 208.687 26.608 208.687 26.5817V26.4379H208.736C208.815 26.5521 208.851 26.6344 208.889 26.6344H208.972V26.6208C208.949 26.6056 208.911 26.5657 208.88 26.5202ZM208.738 26.4116H208.687V26.2103H208.736C208.782 26.2103 208.82 26.235 208.82 26.3037C208.819 26.3724 208.794 26.4116 208.738 26.4116Z" fill="var(--fill-0, white)" fill-opacity="0.55"/>
<path d="M206.352 28.7772C206.224 28.7788 206.148 28.734 206.101 28.6294C206.05 28.5096 206.001 28.3611 205.951 28.2173L205.207 26.1041C205.192 26.0697 205.182 26.0338 205.169 26.001C205.156 25.9811 205.136 25.9779 205.125 25.9779C205.108 25.9779 205.096 25.9843 205.088 25.9883C205.007 26.0378 204.844 26.1184 204.718 26.1632C204.682 26.3229 204.608 26.5234 204.559 26.6743L203.909 28.5288C203.85 28.6917 203.725 28.778 203.573 28.778H203.533V28.9337H203.55C203.698 28.9257 203.842 28.9169 203.987 28.9169C204.147 28.9169 204.314 28.9257 204.475 28.9337H204.492V28.7796H204.431C204.297 28.7796 204.148 28.7556 204.148 28.6558C204.146 28.5911 204.194 28.4849 204.234 28.3459L204.359 27.937H205.253L205.406 28.3938C205.452 28.5224 205.489 28.6326 205.488 28.6773C205.488 28.7556 205.347 28.7772 205.253 28.7772H205.194V28.9345L205.212 28.9337C205.417 28.9265 205.62 28.9169 205.819 28.9169C206.013 28.9169 206.194 28.9265 206.375 28.9337L206.394 28.9353V28.778H206.352V28.7772ZM206.378 28.9201C206.195 28.9121 206.013 28.9034 205.819 28.9034C205.62 28.9034 205.419 28.9121 205.212 28.9201V28.8003H205.256C205.348 28.8003 205.508 28.7836 205.508 28.6829C205.508 28.631 205.47 28.5232 205.424 28.393L205.267 27.9242H204.35L204.218 28.3451C204.179 28.4809 204.131 28.5879 204.131 28.6598C204.131 28.782 204.302 28.8011 204.434 28.8011H204.481V28.9225C204.318 28.9145 204.153 28.9066 203.991 28.9066C203.845 28.9066 203.701 28.9137 203.554 28.9225V28.8011H203.577C203.736 28.8011 203.869 28.7077 203.93 28.5376L204.578 26.6855C204.63 26.5353 204.703 26.3357 204.727 26.1831C204.857 26.1384 205.019 26.0593 205.096 26.009C205.111 26.0058 205.116 26.001 205.129 26.001C205.142 26.001 205.148 26.001 205.157 26.0138C205.17 26.0466 205.183 26.0833 205.195 26.1137L205.939 28.2269C205.988 28.3691 206.036 28.5168 206.09 28.6406C206.139 28.7548 206.222 28.8011 206.355 28.8011H206.38L206.378 28.9201Z" fill="var(--fill-0, white)" fill-opacity="0.55"/>
<path d="M208.701 28.2509C208.676 28.3379 208.64 28.4473 208.576 28.536C208.501 28.6374 208.35 28.7372 208.177 28.7604C208.069 28.7716 207.964 28.7772 207.865 28.7772C207.787 28.7772 207.712 28.7716 207.637 28.7668C207.507 28.7524 207.379 28.6965 207.379 28.5232V26.4395C207.379 26.2159 207.521 26.2023 207.672 26.2023H207.756V26.1176C207.556 26.1184 207.359 26.1344 207.159 26.1344C206.951 26.1344 206.744 26.1192 206.535 26.1176V26.2023H206.575C206.718 26.2023 206.896 26.2295 206.896 26.4515V28.5304C206.896 28.79 206.721 28.8171 206.575 28.8171H206.535V28.9026C206.887 28.9026 207.235 28.8858 207.587 28.8858C207.94 28.8858 208.289 28.9026 208.64 28.9026C208.687 28.6837 208.742 28.4689 208.784 28.2509H208.701Z" fill="var(--fill-0, white)" fill-opacity="0.55"/>
<path d="M196.987 28.7796C196.839 28.7772 196.706 28.7652 196.704 28.5671V26.4507C196.705 26.2534 196.838 26.2382 196.987 26.2366H197.059V26.0801H197.042C196.853 26.0825 196.609 26.0969 196.408 26.0969C196.211 26.0969 195.967 26.0809 195.809 26.0809H195.792V26.2366H195.867C196.014 26.2382 196.148 26.2534 196.15 26.4515V28.5671C196.148 28.7652 196.014 28.7788 195.867 28.7804H195.792V28.9353H195.809C195.967 28.9353 196.208 28.9185 196.406 28.9185C196.608 28.9185 196.849 28.9353 197.044 28.9353H197.061V28.7796H196.987ZM197.043 28.9185C196.849 28.9185 196.607 28.9026 196.405 28.9026C196.207 28.9026 195.967 28.9185 195.808 28.9185V28.7971H195.865C196.012 28.7971 196.164 28.7796 196.164 28.5663V26.4515C196.164 26.239 196.012 26.2207 195.865 26.2207H195.809V26.1009C195.967 26.1009 196.209 26.1169 196.408 26.1169C196.613 26.1169 196.857 26.1009 197.044 26.1009L197.043 26.2207H196.988C196.841 26.2207 196.688 26.239 196.688 26.4515V28.5663C196.688 28.7788 196.841 28.7971 196.988 28.7971H197.043V28.9185Z" fill="var(--fill-0, white)" fill-opacity="0.55"/>
<path d="M190.354 26.0833C190.187 26.0833 190.021 26.1001 189.856 26.1001C189.667 26.1001 189.48 26.0833 189.289 26.0833H189.272V26.239H189.378C189.496 26.2406 189.712 26.2822 189.713 26.6024V28.0879L187.933 26.0881C187.798 26.0825 187.68 26.0985 187.561 26.0985C187.409 26.0985 187.251 26.0825 187.096 26.0825H187.078V26.2382H187.148C187.322 26.2382 187.498 26.3692 187.498 26.5841V28.2852C187.496 28.6079 187.419 28.7804 187.152 28.7812H187.078V28.9369H187.096C187.278 28.9369 187.465 28.9201 187.646 28.9201C187.82 28.9201 187.993 28.9369 188.168 28.9369H188.186V28.7812H188.101C187.795 28.7764 187.741 28.6781 187.737 28.3267V26.7087L189.791 28.9936L189.957 29H189.977L189.975 28.9816C189.953 28.857 189.95 28.7165 189.95 28.5743V26.7366C189.954 26.259 190.126 26.2454 190.294 26.2406H190.371V26.0833H190.354ZM190.355 26.2207H190.294C190.124 26.2215 189.933 26.2534 189.933 26.7342V28.5735C189.933 28.7149 189.937 28.8554 189.957 28.9808H189.802L187.718 26.6607V28.3259C187.718 28.6781 187.787 28.8003 188.1 28.8003H188.167V28.9201C187.994 28.9201 187.82 28.9034 187.646 28.9034C187.463 28.9034 187.277 28.9201 187.096 28.9201V28.8003H187.152C187.432 28.8003 187.516 28.6103 187.516 28.2868V26.5841C187.516 26.358 187.33 26.2207 187.148 26.2207H187.096V26.1001C187.248 26.1001 187.409 26.1161 187.561 26.1161C187.681 26.1161 187.801 26.1001 187.921 26.1001L189.723 28.1239L189.727 28.1183L189.729 28.1159V26.6016C189.729 26.2694 189.5 26.2207 189.378 26.2207H189.29V26.1009C189.48 26.1009 189.666 26.1169 189.857 26.1169C190.023 26.1169 190.188 26.1009 190.355 26.1009V26.2207Z" fill="var(--fill-0, white)" fill-opacity="0.55"/>
<path d="M189.856 26.1336C189.67 26.1336 189.491 26.1184 189.307 26.1169V26.2007H189.378C189.504 26.2023 189.749 26.2566 189.749 26.6L189.743 28.1271L189.736 28.1351L189.723 28.1494L187.921 26.1169C187.801 26.1169 187.684 26.1336 187.561 26.1336C187.412 26.1336 187.26 26.1184 187.112 26.1169V26.2007H187.148C187.339 26.2015 187.533 26.3461 187.533 26.5833V28.2844C187.533 28.6071 187.441 28.8155 187.152 28.8171L187.112 28.8163V28.9002C187.287 28.9002 187.467 28.8834 187.645 28.8834C187.816 28.8834 187.983 28.9002 188.15 28.9002V28.8163H188.101C187.781 28.8147 187.702 28.6757 187.701 28.3243V26.6152L189.803 28.9617H189.937C189.918 28.8387 189.916 28.7061 189.916 28.5719V26.7326C189.916 26.2494 190.119 26.2023 190.294 26.2007H190.336V26.1169C190.176 26.1176 190.017 26.1336 189.856 26.1336Z" fill="var(--fill-0, white)" fill-opacity="0.55"/>
<path d="M186.567 28.5671L185.862 27.5145L185.882 27.5065C186.198 27.3835 186.434 27.1663 186.434 26.8109C186.434 26.251 185.997 26.12 185.488 26.1176C185.274 26.1176 185.08 26.1344 184.836 26.1344C184.599 26.1344 184.358 26.1192 184.226 26.1176V26.2039H184.281C184.407 26.2039 184.586 26.2239 184.586 26.5274V28.5799C184.586 28.742 184.435 28.8171 184.281 28.8171H184.226V28.9002C184.42 28.9002 184.605 28.8834 184.795 28.8834C185.022 28.8834 185.25 28.9002 185.473 28.9002V28.8171H185.419C185.235 28.8171 185.068 28.7947 185.068 28.4729V27.5912H185.364L185.368 27.6008C185.633 28.0656 185.898 28.5024 186.197 28.9018C186.32 28.9018 186.449 28.885 186.575 28.885C186.705 28.885 186.829 28.8986 186.956 28.9018V28.8147C186.767 28.79 186.678 28.734 186.567 28.5671ZM185.286 27.4826H185.069V26.2446L185.086 26.243C185.141 26.2382 185.196 26.2271 185.318 26.2271C185.687 26.2271 185.927 26.4675 185.927 26.834C185.926 27.3188 185.694 27.4826 185.286 27.4826Z" fill="var(--fill-0, white)" fill-opacity="0.55"/>
<path d="M186.976 28.7772C186.779 28.7556 186.709 28.7149 186.596 28.5464L185.916 27.5313C186.228 27.4035 186.47 27.1759 186.47 26.8109C186.469 26.2247 185.999 26.0849 185.488 26.0833C185.272 26.0833 185.078 26.1001 184.836 26.1001C184.59 26.1001 184.339 26.0833 184.209 26.0833H184.191V26.2398H184.281C184.407 26.243 184.548 26.2414 184.551 26.5274V28.5799C184.55 28.7165 184.428 28.7796 184.281 28.7796H184.191V28.9353H184.209C184.411 28.9353 184.601 28.9185 184.795 28.9185C185.024 28.9185 185.261 28.9353 185.491 28.9353H185.509V28.7796H185.419C185.232 28.774 185.109 28.778 185.105 28.4729V27.6255H185.344C185.605 28.0871 185.871 28.5208 186.182 28.9281C186.323 28.9345 186.452 28.9177 186.575 28.9177C186.708 28.9177 186.838 28.9345 186.973 28.9345H186.99V28.7796L186.976 28.7772ZM186.974 28.9201C186.841 28.9201 186.711 28.9034 186.578 28.9034C186.452 28.9034 186.322 28.9201 186.196 28.9201C185.885 28.5104 185.617 28.0744 185.354 27.6079H185.088V28.4737C185.088 28.7868 185.233 28.7979 185.42 28.7979H185.493V28.9185C185.261 28.9185 185.027 28.9018 184.796 28.9018C184.602 28.9018 184.411 28.9185 184.21 28.9185V28.7979H184.282C184.433 28.7979 184.57 28.7293 184.57 28.5807V26.5282C184.57 26.2358 184.407 26.2215 184.282 26.2215H184.21V26.1017C184.339 26.1017 184.59 26.1176 184.837 26.1176C185.08 26.1176 185.274 26.1017 185.489 26.1017C185.998 26.1017 186.453 26.239 186.453 26.8133C186.453 27.1751 186.21 27.3979 185.89 27.5241L186.581 28.5575C186.695 28.7293 186.775 28.7772 186.974 28.8011V28.9201Z" fill="var(--fill-0, white)" fill-opacity="0.55"/>
<path d="M196.987 26.2023H197.025V26.1169C196.839 26.1176 196.605 26.1336 196.408 26.1336C196.214 26.1336 195.983 26.1184 195.827 26.1169V26.2023H195.865C196.01 26.2023 196.182 26.2279 196.182 26.4515V28.5663C196.182 28.79 196.011 28.8155 195.865 28.8155H195.827V28.8994C195.983 28.8978 196.211 28.8834 196.404 28.8834C196.6 28.8834 196.834 28.8994 197.025 28.8994V28.8155H196.987C196.841 28.8147 196.67 28.7892 196.67 28.5663V26.4515C196.67 26.2271 196.839 26.2023 196.987 26.2023Z" fill="var(--fill-0, white)" fill-opacity="0.55"/>
<path d="M184.971 24.2887H184.836C184.628 24.2887 184.465 24.2887 184.465 24.0411V22.126C184.465 21.5469 184.242 21.0869 183.61 21.0869C183.111 21.0869 182.746 21.3393 182.321 21.6436V21.1612C182.321 21.1013 182.299 21.0861 182.278 21.0861C181.919 21.2419 181.615 21.3385 181.295 21.4431V21.5837C181.644 21.7234 181.727 21.7977 181.727 22.0733H181.727V24.0403C181.727 24.2879 181.578 24.2879 181.37 24.2879H181.237V24.4788C181.504 24.4708 181.772 24.4636 182.039 24.4636C182.308 24.4636 182.568 24.4788 182.829 24.4788V24.2879H182.695C182.487 24.2879 182.321 24.2879 182.321 24.0403V21.8424C182.568 21.6803 182.948 21.4854 183.185 21.4854C183.61 21.4854 183.869 21.6955 183.869 22.1188V24.0403C183.869 24.2887 183.721 24.2887 183.513 24.2887H183.379V24.4788C183.645 24.4724 183.914 24.4644 184.182 24.4644C184.45 24.4644 184.709 24.4788 184.971 24.4788V24.2887Z" fill="var(--fill-0, white)" fill-opacity="0.55"/>
<path d="M185.318 26.2438C185.197 26.2438 185.145 26.2574 185.088 26.2606V27.465H185.286C185.691 27.465 185.909 27.3124 185.909 26.8348C185.908 26.4738 185.678 26.2438 185.318 26.2438ZM185.286 27.4474H185.105V26.2758C185.157 26.271 185.209 26.2598 185.318 26.2598C185.67 26.263 185.89 26.481 185.893 26.834C185.89 27.3037 185.686 27.4418 185.286 27.4474Z" fill="var(--fill-0, white)" fill-opacity="0.55"/>
<path d="M195.567 25.9603L195.546 25.9539L195.544 25.9715C195.538 26.0777 195.458 26.0793 195.344 26.0817H193.237C193.132 26.0793 193.058 26.0777 193.03 25.9763L193.026 25.9635H192.898V25.9803C192.898 26.0969 192.889 26.2095 192.874 26.3213C192.861 26.4379 192.842 26.5513 192.825 26.6655L192.823 26.6855H192.979L192.982 26.6711C193.05 26.3716 193.042 26.3213 193.342 26.3173H193.988L193.99 28.4577C193.983 28.7716 193.895 28.774 193.672 28.7788H193.576V28.9345H193.595C193.752 28.9345 194.037 28.9177 194.278 28.9177C194.495 28.9177 194.778 28.9345 194.938 28.9345H194.953V28.7796H194.858C194.665 28.7748 194.542 28.7548 194.541 28.4497V26.3181H195.188C195.443 26.3181 195.46 26.5377 195.471 26.6895L195.472 26.7126L195.615 26.6607L195.627 26.6559V26.644C195.627 26.5361 195.627 26.4267 195.635 26.3197C195.647 26.2103 195.663 26.1033 195.679 25.9939L195.683 25.9771L195.567 25.9603ZM195.615 26.3181C195.607 26.4283 195.607 26.5361 195.607 26.644L195.486 26.6903C195.477 26.5409 195.458 26.3029 195.187 26.3029H194.521V28.4513C194.521 28.7644 194.664 28.8003 194.858 28.8003H194.933V28.9209C194.778 28.9209 194.493 28.9042 194.275 28.9042C194.032 28.9042 193.748 28.9209 193.591 28.9209V28.8003H193.668C193.892 28.8003 194.005 28.7812 194.005 28.4609V26.3029H193.341C193.038 26.3029 193.024 26.3764 192.963 26.6711H192.842C192.859 26.5561 192.88 26.4451 192.892 26.3253C192.909 26.2119 192.916 26.1001 192.916 25.9819H193.014C193.046 26.1025 193.147 26.0985 193.256 26.0985H195.345C195.455 26.0985 195.555 26.0945 195.563 25.9739L195.659 25.9907C195.643 26.1009 195.629 26.2071 195.615 26.3181Z" fill="var(--fill-0, white)" fill-opacity="0.55"/>
<path d="M195.577 25.9947C195.559 26.1121 195.444 26.1192 195.34 26.1192H193.232C193.138 26.12 193.034 26.1153 192.996 26.0026H192.93C192.929 26.1129 192.923 26.2223 192.906 26.3293C192.896 26.4387 192.875 26.5473 192.86 26.6527H192.946C192.998 26.3716 193.034 26.2798 193.336 26.2846H194.016V28.4617C194.016 28.7852 193.886 28.8171 193.663 28.8179H193.604V28.9018C193.764 28.9002 194.037 28.885 194.272 28.885C194.484 28.885 194.754 28.9002 194.913 28.9018V28.8171H194.854C194.661 28.8163 194.503 28.7676 194.503 28.4513V26.2838H195.185C195.457 26.2846 195.493 26.5162 195.499 26.6663L195.588 26.6336C195.588 26.529 195.588 26.4227 195.596 26.3173C195.608 26.2127 195.623 26.1097 195.639 26.005L195.577 25.9947Z" fill="var(--fill-0, white)" fill-opacity="0.55"/>
<path d="M199.426 23.0724C199.277 23.8503 198.666 24.3558 197.931 24.3558C196.786 24.3558 195.714 23.2792 195.714 21.7785C195.714 19.9967 196.955 19.4249 197.811 19.4249C198.644 19.4249 199.26 19.7723 199.402 20.6429H199.586L199.513 19.5806C198.94 19.381 198.358 19.1861 197.756 19.1861C196.298 19.1861 194.938 20.2779 194.938 21.7993C194.938 23.4709 196.04 24.5922 197.779 24.5922C198.272 24.593 199.113 24.3926 199.426 24.1993L199.596 23.1163L199.426 23.0724Z" fill="var(--fill-0, white)" fill-opacity="0.55"/>
<path d="M193.135 28.7764C193.009 28.7804 192.934 28.7356 192.888 28.631C192.837 28.5112 192.788 28.3627 192.738 28.2189L191.992 26.1057C191.978 26.0713 191.968 26.0354 191.956 26.0026C191.942 25.9827 191.921 25.9795 191.911 25.9795C191.894 25.9795 191.884 25.9859 191.872 25.9899C191.792 26.0394 191.63 26.1208 191.504 26.1632C191.47 26.3245 191.396 26.525 191.343 26.6759L190.694 28.5304C190.635 28.6957 190.51 28.7796 190.36 28.7796H190.319V28.9353H190.338C190.483 28.9273 190.628 28.9185 190.774 28.9185C190.936 28.9185 191.102 28.9273 191.263 28.9353H191.28V28.7796H191.219C191.084 28.7796 190.934 28.7556 190.932 28.6566C190.932 28.5911 190.981 28.4841 191.022 28.3459L191.147 27.937H192.039L192.193 28.3938C192.239 28.5216 192.277 28.6326 192.273 28.6773C192.273 28.7556 192.136 28.7772 192.041 28.7772H191.978V28.9345L191.996 28.9329C192.204 28.9257 192.404 28.9161 192.602 28.9161C192.794 28.9161 192.979 28.9257 193.159 28.9329L193.176 28.9345V28.7764H193.135ZM193.162 28.9201C192.979 28.9121 192.798 28.9034 192.605 28.9034C192.406 28.9034 192.203 28.9121 191.997 28.9201V28.8003H192.042C192.136 28.8003 192.292 28.7836 192.292 28.6829C192.292 28.631 192.256 28.5232 192.211 28.393L192.053 27.9242H191.135L191.006 28.3451C190.965 28.4809 190.916 28.5879 190.916 28.6598C190.916 28.782 191.087 28.8011 191.219 28.8011H191.265V28.9225C191.102 28.9145 190.937 28.9066 190.774 28.9066C190.628 28.9066 190.483 28.9137 190.338 28.9225V28.8011H190.362C190.519 28.8011 190.654 28.7077 190.713 28.5376L191.361 26.6855C191.414 26.5353 191.488 26.3357 191.512 26.1831C191.64 26.1384 191.802 26.0593 191.878 26.009C191.891 26.0058 191.896 26.001 191.911 26.001C191.924 26.001 191.931 26.001 191.94 26.0138C191.952 26.0466 191.964 26.0833 191.977 26.1137L192.722 28.2269C192.771 28.3691 192.818 28.5168 192.873 28.6406C192.922 28.7548 193.006 28.8011 193.14 28.8011H193.162V28.9201Z" fill="var(--fill-0, white)" fill-opacity="0.55"/>
<path d="M193.139 28.8179C193 28.8179 192.905 28.7636 192.855 28.6446C192.802 28.5216 192.754 28.3707 192.705 28.2285L191.96 26.1153C191.946 26.0841 191.936 26.0458 191.924 26.0178C191.922 26.013 191.922 26.013 191.917 26.013H191.912C191.903 26.013 191.896 26.017 191.889 26.0194C191.811 26.0689 191.648 26.1496 191.528 26.1815C191.503 26.3341 191.43 26.5353 191.377 26.6855L190.73 28.54C190.668 28.7157 190.526 28.8163 190.362 28.8163H190.355V28.9002C190.494 28.8914 190.634 28.8834 190.775 28.8834C190.932 28.8834 191.091 28.8922 191.246 28.9002V28.8163H191.219C191.088 28.8139 190.903 28.7995 190.899 28.6566C190.899 28.5759 190.949 28.4721 190.989 28.3363L191.122 27.9026H192.064L192.228 28.385C192.273 28.5152 192.311 28.6222 192.311 28.6813C192.306 28.8043 192.134 28.8147 192.042 28.8179H192.016V28.901C192.216 28.893 192.413 28.8842 192.605 28.8842C192.792 28.8842 192.969 28.893 193.146 28.901V28.8179H193.139ZM191.187 27.7134L191.574 26.5345H191.608L191.993 27.7134H191.187Z" fill="var(--fill-0, white)" fill-opacity="0.55"/>
<path d="M191.596 26.5521H191.588V26.5545L191.212 27.6974H191.969L191.596 26.5521ZM191.592 26.5952L191.943 27.6766H191.235L191.592 26.5952Z" fill="var(--fill-0, white)" fill-opacity="0.55"/>
</g>
<g id="Vector_3">
<path d="M265.373 6.95558L264.335 9.48056H266.421L265.373 6.95558Z" fill="var(--fill-0, white)" fill-opacity="0.55"/>
<path d="M229.505 6.95558L228.479 9.48056H230.539L229.505 6.95558Z" fill="var(--fill-0, white)" fill-opacity="0.55"/>
<path d="M253.318 7.31326C253.139 7.21174 252.863 7.19876 252.601 7.19876H250.74V8.60467H252.577C252.868 8.60467 253.113 8.59995 253.324 8.47482C253.518 8.37212 253.635 8.14902 253.635 7.87279C253.635 7.60129 253.513 7.40534 253.318 7.31326Z" fill="var(--fill-0, white)" fill-opacity="0.55"/>
<path d="M259.792 18.2088C259.608 18.099 259.337 18.0943 259.071 18.0943H257.21V19.5167H259.046C259.341 19.5167 259.591 19.5073 259.795 19.388C259.991 19.2676 260.107 19.0516 260.107 18.7789C260.104 18.5062 259.987 18.3103 259.792 18.2088Z" fill="var(--fill-0, white)" fill-opacity="0.55"/>
<path d="M252.435 18.0919H250.466V19.7056H252.417C252.997 19.7056 253.359 19.4175 253.359 18.871C253.358 18.3138 252.982 18.0919 252.435 18.0919Z" fill="var(--fill-0, white)" fill-opacity="0.55"/>
<path d="M280.342 19.0433C280.332 19.0327 280.32 19.0209 280.309 19.0127C280.596 18.8261 280.786 18.5027 280.786 18.1344V16.7852C280.786 16.2056 280.319 15.7381 279.742 15.7381H276.714C275.771 15.7381 275.059 16.0167 274.541 16.4369C274.396 16.0308 274.024 15.7381 273.568 15.7381H270.541C269.708 15.7381 269.052 15.9447 268.552 16.2846C268.371 15.96 268.044 15.7381 267.653 15.7381H262.612C262.205 15.7381 261.863 15.9754 261.689 16.3142C261.618 16.2634 261.565 16.2044 261.489 16.1595C260.758 15.7676 259.98 15.7381 259.179 15.7381H255.689C255.282 15.7381 254.939 15.9777 254.767 16.3189C254.235 15.973 253.492 15.7381 252.435 15.7381H247.608C247.317 15.7381 247.04 15.8561 246.841 16.071L245.697 17.3069L244.6 16.0852C244.403 15.8597 244.121 15.7369 243.823 15.7369H237.747C237.17 15.7369 236.704 16.2056 236.704 16.784V23.1194C236.704 23.699 237.171 24.1665 237.747 24.1665H243.733C244.024 24.1665 244.3 24.0449 244.498 23.83L245.651 22.58L246.746 23.8135C246.944 24.0378 247.229 24.1641 247.527 24.1641H250.463C251.042 24.1641 251.508 23.6955 251.508 23.1194V22.0381H252.348C253.369 22.0381 254.108 21.828 254.645 21.5081V23.1194C254.645 23.6967 255.113 24.1641 255.69 24.1641H257.208C257.787 24.1641 258.253 23.6955 258.253 23.1194V21.8493H258.822C258.961 21.8493 259.059 21.854 259.13 21.8587C259.134 21.972 259.134 22.1078 259.132 22.1975V23.1194C259.132 23.6967 259.602 24.1641 260.177 24.1641H261.693C261.863 24.1641 262.016 24.1181 262.155 24.0461C262.296 24.1157 262.448 24.1641 262.615 24.1641H267.658C267.822 24.1641 267.974 24.1181 268.112 24.0508C268.249 24.1181 268.398 24.1641 268.565 24.1641H271.508C272.444 24.1641 273.207 23.9339 273.779 23.5279C273.935 23.9009 274.305 24.1641 274.738 24.1641H277.68C279.82 24.1641 281.096 23.025 281.096 21.1186C281.096 20.2356 280.858 19.5781 280.342 19.0433ZM252.349 20.9911H250.465V23.1171H247.528L245.667 21.0206L243.733 23.1171H237.747V16.7804H243.823L245.684 18.858L247.607 16.7804H252.434C253.632 16.7804 254.981 17.1169 254.981 18.871C254.981 20.6287 253.671 20.9946 252.349 20.9911ZM260.705 20.1754C261.039 20.2982 261.314 20.5213 261.441 20.7078C261.656 21.017 261.685 21.3051 261.692 21.8634V23.1194H260.176V22.3262C260.176 21.9461 260.212 21.3806 259.93 21.0855C259.713 20.8601 259.377 20.8069 258.823 20.8069H257.21V23.1194H255.691V16.784H259.182C259.945 16.784 260.501 16.8158 260.999 17.0814C261.475 17.3695 261.775 17.7661 261.775 18.4874C261.775 19.5002 261.1 20.016 260.705 20.1754ZM267.656 18.0931H264.117V19.2464H267.569V20.5402H264.117V21.7985L267.656 21.8056V23.1194H262.614V16.784H267.656V18.0931ZM271.509 23.1123H268.566V21.7513H271.496C271.781 21.7513 271.985 21.7159 272.112 21.5943C272.216 21.4975 272.289 21.3523 272.289 21.18C272.289 20.9958 272.211 20.8506 272.105 20.7621C271.987 20.6653 271.832 20.6216 271.567 20.6216C270.155 20.5756 268.385 20.6653 268.385 18.6621C268.385 17.7401 268.96 16.7757 270.545 16.7757H273.573V18.1238H270.801C270.524 18.1238 270.346 18.1356 270.195 18.2395C270.029 18.3433 269.967 18.4956 269.967 18.6963C269.967 18.9359 270.107 19.0953 270.297 19.1685C270.458 19.224 270.628 19.2405 270.886 19.2405L271.697 19.2641C272.516 19.2865 273.08 19.4282 273.421 19.774C273.717 20.0798 273.874 20.467 273.874 21.1174C273.874 22.4832 273.027 23.1194 271.509 23.1123ZM277.682 23.1123H274.74V21.7513H277.671C277.956 21.7513 278.16 21.7159 278.286 21.5943C278.389 21.4975 278.462 21.3523 278.462 21.18C278.462 20.9958 278.385 20.8506 278.279 20.7621C278.162 20.6653 278.006 20.6216 277.74 20.6216C276.328 20.5756 274.559 20.6653 274.559 18.6621C274.559 17.7401 275.133 16.7757 276.719 16.7757H279.746V18.1238H276.976C276.698 18.1238 276.519 18.1356 276.369 18.2395C276.203 18.3433 276.142 18.4956 276.142 18.6963C276.142 18.9359 276.283 19.0953 276.47 19.1685C276.633 19.224 276.801 19.2405 277.059 19.2405L277.871 19.2641C278.691 19.2865 279.256 19.4282 279.597 19.774C279.891 20.0798 280.05 20.467 280.05 21.1174C280.05 22.4832 279.201 23.1194 277.682 23.1123Z" fill="var(--fill-0, white)" fill-opacity="0.55"/>
<path d="M275.6 4.83314H274.053C273.475 4.83314 273.008 5.30178 273.008 5.87902V6.53299L272.291 5.33956C272.1 5.02674 271.762 4.83432 271.398 4.83432H269.095C268.518 4.83432 268.052 5.30296 268.052 5.8802V6.76908L267.497 5.46822C267.333 5.08458 266.956 4.83432 266.539 4.83432H264.275C264.045 4.83432 263.826 4.90987 263.652 5.04208C263.479 4.91105 263.261 4.83432 263.026 4.83432H261.567C260.325 4.83432 259.406 5.13534 258.73 5.7232C258.653 5.22387 258.239 4.83432 257.718 4.83432H256.175C255.763 4.83432 255.418 5.07868 255.246 5.42337C255.181 5.37615 255.132 5.31949 255.059 5.27699C254.35 4.8662 253.604 4.83432 252.705 4.83432H249.23C249.035 4.83432 248.864 4.90279 248.706 4.99605C248.552 4.90279 248.378 4.83432 248.183 4.83432H243.137C242.923 4.83432 242.738 4.91341 242.573 5.02202C242.407 4.91341 242.222 4.83432 242.01 4.83432H239.492C239.075 4.83432 238.697 5.08576 238.533 5.47295L237.636 7.59303L236.647 5.44225C236.475 5.07159 236.104 4.83432 235.699 4.83432H233.232C232.655 4.83432 232.189 5.30296 232.189 5.8802V6.79032L231.622 5.46586C231.457 5.08222 231.08 4.83314 230.662 4.83314H228.419C228.001 4.83314 227.624 5.0834 227.459 5.46704L224.755 11.8025C224.616 12.1271 224.65 12.4954 224.842 12.7905C225.035 13.0833 225.362 13.2603 225.713 13.2603H227.355C227.775 13.2603 228.155 13.0054 228.317 12.6158L228.636 11.8462H230.386L230.701 12.6111C230.861 13.003 231.243 13.2592 231.667 13.2592H234.74C235.317 13.2592 235.784 12.7905 235.784 12.2133V12.1885L235.982 12.6382C236.149 13.016 236.524 13.2603 236.936 13.2603L238.263 13.2627C238.678 13.2627 239.05 13.0184 239.218 12.6394L239.418 12.1909V12.2168C239.418 12.7941 239.884 13.2615 240.461 13.2615H242.01C242.222 13.2615 242.407 13.1813 242.573 13.0738C242.738 13.1813 242.923 13.2615 243.137 13.2615H248.183C248.378 13.2615 248.552 13.1931 248.706 13.0998C248.863 13.1931 249.035 13.2615 249.23 13.2615H250.743C251.32 13.2615 251.786 12.7929 251.786 12.2157V10.9573H252.363C252.494 10.9573 252.587 10.9608 252.657 10.9656C252.664 11.073 252.662 11.2005 252.662 11.2855L252.659 11.4248L252.665 12.2239C252.67 12.7976 253.137 13.2615 253.71 13.2615H255.234C255.405 13.2615 255.559 13.2084 255.702 13.1352C255.847 13.2096 256.002 13.2615 256.174 13.2615H257.717C258.224 13.2615 258.624 12.8956 258.722 12.4187C259.578 13.1399 260.785 13.2615 261.456 13.2615H263.227C263.648 13.2615 264.03 13.0018 264.189 12.6064L264.496 11.8474H266.237L266.557 12.617C266.718 13.0054 267.097 13.2603 267.52 13.2603H270.595C271.172 13.2603 271.638 12.7917 271.638 12.2145V11.2146L272.565 12.7551C272.755 13.0679 273.093 13.2603 273.461 13.2603H275.6C276.177 13.2603 276.644 12.7917 276.644 12.2145V5.87902C276.644 5.30178 276.175 4.83314 275.6 4.83314ZM242.009 12.2133H240.46L240.454 7.25188L238.263 12.2133H236.936L234.741 7.24715V12.2133H231.666L231.085 10.8003H227.94L227.353 12.2133H225.711L228.417 5.87784H230.66L233.231 11.8769V5.87784H235.698L237.676 10.1758L239.491 5.87784H242.009V12.2133ZM248.182 7.19758H244.646V8.33907H248.098V9.63756H244.646V10.903H248.182V12.2133H243.135V5.87784H248.182V7.19758ZM254.233 9.27398C254.564 9.40147 254.847 9.62339 254.981 9.80754C255.195 10.1227 255.232 10.4037 255.232 10.9691V12.2121H253.708L253.7 11.4129C253.7 11.0328 253.737 10.4851 253.463 10.1794C253.242 9.95746 252.905 9.90906 252.361 9.90906H250.741V12.2133H249.228V5.87902H252.703C253.475 5.87902 254.044 5.89909 254.532 6.18239C255.01 6.4657 255.297 6.87886 255.297 7.58594C255.297 8.59522 254.624 9.11816 254.233 9.27398ZM257.718 12.2133H256.175V5.87784H257.718V12.2133ZM275.6 12.2133H273.46L270.594 7.45846V12.2133H267.519L266.93 10.8003H263.79L263.222 12.2133H261.453C260.719 12.2133 259.792 12.0504 259.266 11.5133C258.732 10.975 258.456 10.2455 258.456 9.09455C258.456 8.15492 258.622 7.29555 259.265 6.61562C259.752 6.11039 260.516 5.87784 261.56 5.87784H263.019V7.23535H261.588C261.038 7.23535 260.726 7.3168 260.427 7.61073C260.169 7.87751 259.993 8.38156 259.993 9.04615C259.993 9.72373 260.127 10.2124 260.41 10.5323C260.645 10.7838 261.069 10.8593 261.463 10.8593H262.141L264.275 5.87784H266.539L269.095 11.8698V5.87784H271.398L274.053 10.2903V5.87784H275.6V12.2133ZM262.115 8.28241L261.458 9.8158C261.314 9.8158 261.216 9.79928 261.162 9.78511C261.111 9.69068 261.041 9.48174 261.041 9.04734C261.041 8.60821 261.148 8.38038 261.162 8.36032C261.205 8.31782 261.242 8.28123 261.596 8.28123L262.115 8.28241Z" fill="var(--fill-0, white)" fill-opacity="0.55"/>
<path d="M246.64 19.9617L248.96 22.5445V17.4651L246.64 19.9617Z" fill="var(--fill-0, white)" fill-opacity="0.55"/>
<path d="M243.042 18.0943H239.256V19.2452H242.572V20.539H239.256V21.7997H242.969L244.695 19.9381L243.042 18.0943Z" fill="var(--fill-0, white)" fill-opacity="0.55"/>
</g>
<path id="Vector_4" d="M315.525 6.72789L308.995 22.3092H304.733L301.522 9.8757C301.324 9.10894 301.156 8.8299 300.563 8.5043C299.592 7.97936 297.995 7.48695 296.584 7.18025L296.683 6.72799H303.54C304.415 6.72799 305.201 7.31129 305.398 8.31685L307.096 17.335L311.29 6.72799L315.525 6.72789ZM332.219 17.2197C332.238 13.1096 326.532 12.8859 326.573 11.0472C326.584 10.4859 327.116 9.89197 328.281 9.74203C328.859 9.66506 330.451 9.60865 332.256 10.4371L332.963 7.13446C331.992 6.78206 330.744 6.44457 329.193 6.44457C325.209 6.44457 322.405 8.56354 322.381 11.5954C322.355 13.8374 324.382 15.0886 325.911 15.8353C327.481 16.5993 328.006 17.0871 328 17.7723C327.99 18.8181 326.748 19.2752 325.589 19.2957C323.562 19.3273 322.386 18.748 321.447 18.3107L320.718 21.7269C321.658 22.1587 323.399 22.5336 325.201 22.5557C329.435 22.5555 332.205 20.4591 332.219 17.2197ZM342.739 22.3093H346.468L343.214 6.72799H339.772C338.998 6.72799 338.346 7.17908 338.056 7.87014L332.011 22.3093H336.242L337.082 19.9823H342.253L342.739 22.3093ZM338.241 16.7887L340.364 10.9382L341.585 16.7887H338.241ZM321.285 6.72789L317.95 22.3092H313.918L317.254 6.72789H321.285Z" fill="var(--fill-0, white)" fill-opacity="0.55"/>
<g id="Pix">
<path fill-rule="evenodd" clip-rule="evenodd" d="M390.013 25.4091C390.248 25.4091 390.44 25.218 390.44 24.9823V11.1228C390.44 8.80875 392.315 6.93278 394.63 6.93243H394.63L398.721 6.93847C401.029 6.94308 402.897 8.81486 402.897 11.1222V14.0723C402.897 16.3866 401.02 18.2629 398.706 18.2629H392.924C392.688 18.2629 392.497 18.454 392.497 18.6897C392.497 18.9254 392.688 19.1165 392.924 19.1165H398.706C401.492 19.1165 403.75 16.858 403.75 14.0723V11.1222C403.75 8.34411 401.501 6.09045 398.723 6.08489H398.723L394.631 6.07886H394.63C391.844 6.07886 389.586 8.33708 389.586 11.1228V24.9823C389.586 25.218 389.777 25.4091 390.013 25.4091Z" fill="var(--fill-0, white)" fill-opacity="0.55"/>
<path fill-rule="evenodd" clip-rule="evenodd" d="M408.137 19.1785C408.373 19.1785 408.564 18.9874 408.564 18.7517V8.3986C408.564 7.11637 407.524 6.07687 406.242 6.07687H404.467C404.231 6.07687 404.04 6.26795 404.04 6.50366C404.04 6.73936 404.231 6.93044 404.467 6.93044H406.242C407.053 6.93044 407.71 7.58772 407.71 8.3986V18.7517C407.71 18.9874 407.901 19.1785 408.137 19.1785Z" fill="var(--fill-0, white)" fill-opacity="0.55"/>
<path d="M407.756 4.89971L406.951 4.09464C406.752 3.89499 406.752 3.5711 406.951 3.37134L407.756 2.56691C407.956 2.36684 408.28 2.36684 408.48 2.56691L409.285 3.37134C409.485 3.5711 409.485 3.89499 409.285 4.09464L408.48 4.89971C408.28 5.09947 407.956 5.09947 407.756 4.89971Z" fill="var(--fill-0, white)" fill-opacity="0.55"/>
<path fill-rule="evenodd" clip-rule="evenodd" d="M421.464 11.3101C421.098 11.6769 420.503 11.6769 420.136 11.3101L416.019 7.19275C415.299 6.47232 414.322 6.06766 413.303 6.06766H411.542C411.307 6.06766 411.116 6.25874 411.116 6.49445C411.116 6.73016 411.307 6.92124 411.542 6.92124H413.303C414.095 6.92124 414.855 7.23598 415.415 7.79627L419.533 11.9136C420.233 12.6138 421.368 12.6138 422.068 11.9137L426.17 7.81134C426.731 7.25114 427.491 6.93639 428.283 6.93639H429.714C429.95 6.93639 430.141 6.74531 430.141 6.5096C430.141 6.27389 429.95 6.08281 429.714 6.08281H428.283C427.264 6.08281 426.287 6.48745 425.567 7.20776L421.464 11.3101Z" fill="var(--fill-0, white)" fill-opacity="0.55"/>
<path fill-rule="evenodd" clip-rule="evenodd" d="M411.116 18.661C411.116 18.8968 411.307 19.0878 411.542 19.0878H413.303C414.322 19.0878 415.299 18.6832 416.019 17.9628L420.136 13.8453C420.503 13.4786 421.098 13.4786 421.464 13.8453L425.567 17.9476C426.287 18.668 427.264 19.0727 428.283 19.0727H429.714C429.95 19.0727 430.141 18.8816 430.141 18.6459C430.141 18.4102 429.95 18.2191 429.714 18.2191H428.283C427.491 18.2191 426.731 17.9044 426.17 17.3441L422.068 13.2417C421.368 12.5416 420.233 12.5416 419.533 13.2417L415.415 17.3592C414.855 17.9195 414.095 18.2343 413.303 18.2343H411.542C411.307 18.2343 411.116 18.4253 411.116 18.661Z" fill="var(--fill-0, white)" fill-opacity="0.55"/>
<path d="M379.518 21.2915C378.634 21.2915 377.803 20.9474 377.179 20.323L373.801 16.9454C373.564 16.7076 373.15 16.7084 372.913 16.9454L369.523 20.3354C368.899 20.9597 368.068 21.3037 367.184 21.3037H366.519L370.796 25.5816C372.132 26.9175 374.298 26.9175 375.635 25.5816L379.925 21.2915H379.518Z" fill="var(--fill-0, white)" fill-opacity="0.55"/>
<path d="M367.184 9.34424C368.068 9.34424 368.899 9.68836 369.523 10.3128L372.913 13.7033C373.157 13.9475 373.556 13.9485 373.801 13.703L377.178 10.3251C377.803 9.70065 378.634 9.35663 379.518 9.35663H379.925L375.635 5.06661C374.299 3.73059 372.132 3.73059 370.796 5.06661L366.519 9.34424H367.184Z" fill="var(--fill-0, white)" fill-opacity="0.55"/>
<path d="M383.473 12.9051L380.88 10.3125C380.823 10.3354 380.762 10.3497 380.696 10.3497H379.518C378.908 10.3497 378.312 10.5968 377.881 11.0277L374.504 14.4054C374.188 14.7214 373.772 14.8796 373.357 14.8796C372.942 14.8796 372.527 14.7214 372.211 14.4057L368.821 11.0154C368.39 10.5845 367.794 10.3374 367.184 10.3374H365.735C365.673 10.3374 365.615 10.3228 365.561 10.3023L362.958 12.9051C361.622 14.241 361.622 16.4071 362.958 17.7432L365.561 20.3459C365.615 20.3253 365.673 20.3107 365.735 20.3107H367.184C367.794 20.3107 368.39 20.0636 368.821 19.6327L372.211 16.2428C372.823 15.6306 373.891 15.6303 374.504 16.2431L377.881 19.6203C378.312 20.0513 378.908 20.2984 379.518 20.2984H380.696C380.762 20.2984 380.823 20.3126 380.881 20.3355L383.473 17.7432C384.809 16.4071 384.809 14.241 383.473 12.9051Z" fill="var(--fill-0, white)" fill-opacity="0.55"/>
<path d="M393.532 23.8043C393.34 23.8043 393.118 23.8502 392.898 23.901V24.7456C393.05 24.8014 393.224 24.828 393.391 24.828C393.815 24.828 394.016 24.6853 394.016 24.3123C394.016 23.9614 393.851 23.8043 393.532 23.8043ZM392.755 25.3727V23.7025H392.871L392.883 23.7752C393.079 23.7292 393.35 23.6687 393.544 23.6687C393.701 23.6687 393.851 23.6926 393.977 23.7944C394.122 23.9131 394.168 24.1042 394.168 24.3123C394.168 24.5303 394.096 24.7361 393.897 24.8498C393.759 24.9272 393.573 24.9586 393.406 24.9586C393.234 24.9586 393.069 24.9318 392.898 24.8812V25.3727H392.755Z" fill="var(--fill-0, white)" fill-opacity="0.55"/>
<path d="M395.232 23.7992C394.808 23.7992 394.619 23.9324 394.619 24.3052C394.619 24.6658 394.806 24.8281 395.232 24.8281C395.653 24.8281 395.842 24.6973 395.842 24.3244C395.842 23.9639 395.655 23.7992 395.232 23.7992ZM395.776 24.8281C395.636 24.9295 395.447 24.9587 395.232 24.9587C395.011 24.9587 394.823 24.9271 394.684 24.8281C394.53 24.7192 394.467 24.5399 394.467 24.3149C394.467 24.0922 394.53 23.9108 394.684 23.7992C394.823 23.7001 395.011 23.6687 395.232 23.6687C395.449 23.6687 395.636 23.7001 395.776 23.7992C395.934 23.9108 395.994 24.0922 395.994 24.3124C395.994 24.5375 395.931 24.7192 395.776 24.8281Z" fill="var(--fill-0, white)" fill-opacity="0.55"/>
<path d="M397.781 24.9249L397.309 23.9108H397.299L396.835 24.9249H396.707L396.203 23.7025H396.36L396.779 24.7286H396.789L397.244 23.7025H397.375L397.842 24.7286H397.851L398.261 23.7025H398.413L397.909 24.9249H397.781Z" fill="var(--fill-0, white)" fill-opacity="0.55"/>
<path d="M399.326 23.7968C398.934 23.7968 398.801 23.9711 398.776 24.2229H399.875C399.863 23.9447 399.72 23.7968 399.326 23.7968ZM399.321 24.9587C399.086 24.9587 398.934 24.9248 398.813 24.8229C398.67 24.6995 398.622 24.5207 398.622 24.315C398.622 24.1188 398.687 23.9108 398.849 23.7921C398.985 23.6977 399.152 23.6687 399.326 23.6687C399.483 23.6687 399.665 23.6855 399.815 23.7873C399.991 23.9057 400.025 24.114 400.025 24.3511H398.772C398.776 24.6028 398.859 24.8257 399.333 24.8257C399.558 24.8257 399.769 24.7891 399.965 24.7554V24.8836C399.762 24.9201 399.536 24.9587 399.321 24.9587Z" fill="var(--fill-0, white)" fill-opacity="0.55"/>
<path d="M400.435 24.9249V23.7025H400.552L400.564 23.7753C400.823 23.7098 400.944 23.6687 401.171 23.6687H401.188V23.8043H401.154C400.963 23.8043 400.847 23.8307 400.578 23.901V24.9249H400.435Z" fill="var(--fill-0, white)" fill-opacity="0.55"/>
<path d="M402.018 23.7968C401.625 23.7968 401.492 23.9711 401.468 24.2229H402.567C402.555 23.9447 402.412 23.7968 402.018 23.7968ZM402.013 24.9587C401.778 24.9587 401.625 24.9248 401.504 24.8229C401.362 24.6995 401.313 24.5207 401.313 24.315C401.313 24.1188 401.379 23.9108 401.541 23.7921C401.676 23.6977 401.843 23.6687 402.018 23.6687C402.175 23.6687 402.357 23.6855 402.506 23.7873C402.683 23.9057 402.717 24.114 402.717 24.3511H401.463C401.468 24.6028 401.55 24.8257 402.025 24.8257C402.25 24.8257 402.461 24.7891 402.657 24.7554V24.8836C402.453 24.9201 402.228 24.9587 402.013 24.9587Z" fill="var(--fill-0, white)" fill-opacity="0.55"/>
<path d="M404.282 23.8817C404.129 23.8259 403.955 23.7992 403.788 23.7992C403.364 23.7992 403.163 23.9422 403.163 24.3149C403.163 24.6682 403.328 24.823 403.647 24.823C403.839 24.823 404.061 24.777 404.282 24.7286V23.8817ZM404.308 24.9249L404.296 24.8521C404.1 24.8981 403.829 24.9587 403.635 24.9587C403.478 24.9587 403.328 24.937 403.202 24.8328C403.057 24.714 403.011 24.5231 403.011 24.3149C403.011 24.0972 403.083 23.8912 403.282 23.7798C403.42 23.7001 403.606 23.6686 403.776 23.6686C403.945 23.6686 404.11 23.6978 404.282 23.7461V23.1869H404.424V24.9249H404.308Z" fill="var(--fill-0, white)" fill-opacity="0.55"/>
<path d="M406.518 23.8043C406.327 23.8043 406.104 23.8502 405.884 23.901V24.7432C406.039 24.8014 406.211 24.828 406.378 24.828C406.802 24.828 407.002 24.6853 407.002 24.3123C407.002 23.9614 406.838 23.8043 406.518 23.8043ZM406.884 24.8498C406.746 24.9272 406.56 24.9586 406.392 24.9586C406.211 24.9586 406.03 24.9272 405.845 24.8666L405.838 24.9249H405.741V23.187H405.884V23.7702C406.08 23.7268 406.344 23.6687 406.53 23.6687C406.688 23.6687 406.838 23.6926 406.964 23.7944C407.109 23.9131 407.155 24.1042 407.155 24.3123C407.155 24.5303 407.082 24.7361 406.884 24.8498Z" fill="var(--fill-0, white)" fill-opacity="0.55"/>
<path d="M407.344 25.3942V25.2613C407.415 25.2685 407.48 25.2735 407.526 25.2735C407.703 25.2735 407.809 25.2225 407.908 25.0215L407.954 24.9248L407.316 23.7025H407.48L408.027 24.7577H408.037L408.557 23.7025H408.719L408.032 25.0749C407.906 25.3242 407.77 25.4064 407.521 25.4064C407.466 25.4064 407.405 25.4017 407.344 25.3942Z" fill="var(--fill-0, white)" fill-opacity="0.55"/>
<path d="M410.688 24.2277H410.213V24.6563H410.69C411.017 24.6563 411.14 24.6197 411.14 24.4408C411.14 24.2493 410.971 24.2277 410.688 24.2277ZM410.601 23.5329H410.213V23.9687H410.603C410.925 23.9687 411.053 23.93 411.053 23.7485C411.053 23.5549 410.891 23.5329 410.601 23.5329ZM411.336 24.8088C411.162 24.9201 410.952 24.9249 410.567 24.9249H409.843V23.2669H410.55C410.881 23.2669 411.085 23.2716 411.254 23.3734C411.375 23.4461 411.423 23.5574 411.423 23.7025C411.423 23.8767 411.351 23.9929 411.162 24.0704V24.0799C411.375 24.1286 411.513 24.2376 411.513 24.4723C411.513 24.6319 411.455 24.7361 411.336 24.8088Z" fill="var(--fill-0, white)" fill-opacity="0.55"/>
<path d="M412.961 24.4117C412.818 24.3996 412.673 24.3924 412.52 24.3924C412.271 24.3924 412.184 24.4432 412.184 24.5568C412.184 24.6634 412.257 24.7215 412.448 24.7215C412.608 24.7215 412.799 24.6853 412.961 24.6488V24.4117ZM413.034 24.9249L413.024 24.8521C412.816 24.9032 412.574 24.9587 412.361 24.9587C412.23 24.9587 412.09 24.9417 411.99 24.869C411.898 24.8037 411.855 24.6972 411.855 24.5737C411.855 24.4358 411.915 24.3076 412.061 24.2423C412.189 24.1817 412.361 24.1769 412.518 24.1769C412.646 24.1769 412.818 24.1841 412.961 24.1939V24.1719C412.961 23.9809 412.835 23.918 412.491 23.918C412.358 23.918 412.196 23.9249 412.041 23.9396V23.6927C412.213 23.6784 412.407 23.6686 412.566 23.6686C412.779 23.6686 413 23.6856 413.135 23.7823C413.276 23.8817 413.302 24.0197 413.302 24.2011V24.9249H413.034Z" fill="var(--fill-0, white)" fill-opacity="0.55"/>
<path d="M414.898 24.9249V24.2493C414.898 24.0268 414.785 23.947 414.581 23.947C414.431 23.947 414.242 23.9856 414.082 24.0245V24.9249H413.741V23.7025H414.02L414.032 23.7798C414.247 23.7244 414.487 23.6687 414.685 23.6687C414.835 23.6687 414.988 23.6903 415.104 23.7944C415.201 23.8817 415.237 24.0024 415.237 24.1769V24.9249H414.898Z" fill="var(--fill-0, white)" fill-opacity="0.55"/>
<path d="M416.201 24.9587C416.044 24.9587 415.872 24.937 415.746 24.8304C415.596 24.7094 415.553 24.5183 415.553 24.3123C415.553 24.1188 415.615 23.9081 415.802 23.7897C415.954 23.6902 416.143 23.6686 416.339 23.6686C416.48 23.6686 416.618 23.6784 416.77 23.6927V23.9542C416.647 23.9422 416.499 23.9325 416.38 23.9325C416.056 23.9325 415.903 24.0341 415.903 24.3149C415.903 24.5788 416.017 24.6924 416.283 24.6924C416.438 24.6924 416.62 24.6634 416.797 24.6296V24.8813C416.605 24.9201 416.397 24.9587 416.201 24.9587Z" fill="var(--fill-0, white)" fill-opacity="0.55"/>
<path d="M417.805 23.925C417.48 23.925 417.337 24.0269 417.337 24.3052C417.337 24.5835 417.478 24.7023 417.805 24.7023C418.127 24.7023 418.267 24.6028 418.267 24.3244C418.267 24.0461 418.129 23.925 417.805 23.925ZM418.391 24.8304C418.24 24.9319 418.044 24.9587 417.805 24.9587C417.56 24.9587 417.364 24.9295 417.217 24.8304C417.047 24.7191 416.987 24.5351 416.987 24.3149C416.987 24.0945 417.047 23.9081 417.217 23.7968C417.364 23.6977 417.56 23.6686 417.805 23.6686C418.047 23.6686 418.24 23.6977 418.391 23.7968C418.56 23.9081 418.618 24.0945 418.618 24.3123C418.618 24.5327 418.558 24.7191 418.391 24.8304Z" fill="var(--fill-0, white)" fill-opacity="0.55"/>
<path d="M420.588 24.9587C420.383 24.9587 420.16 24.9249 419.993 24.7868C419.795 24.6221 419.734 24.3681 419.734 24.0945C419.734 23.8502 419.812 23.5597 420.07 23.3902C420.271 23.2597 420.521 23.233 420.772 23.233C420.956 23.233 421.145 23.2451 421.351 23.262V23.5597C421.174 23.5451 420.956 23.5329 420.787 23.5329C420.315 23.5329 420.114 23.7122 420.114 24.0945C420.114 24.4844 420.3 24.6586 420.649 24.6586C420.876 24.6586 421.131 24.6125 421.387 24.5593V24.8546C421.131 24.9055 420.862 24.9587 420.588 24.9587Z" fill="var(--fill-0, white)" fill-opacity="0.55"/>
<path d="M422.39 23.8864C422.107 23.8864 421.998 23.9883 421.976 24.1746H422.799C422.789 23.9761 422.673 23.8864 422.39 23.8864ZM422.339 24.9587C422.138 24.9587 421.957 24.9345 421.821 24.823C421.676 24.7023 421.625 24.5206 421.625 24.3123C421.625 24.126 421.686 23.918 421.855 23.7968C422.005 23.6902 422.196 23.6686 422.39 23.6686C422.564 23.6686 422.77 23.6879 422.92 23.792C423.116 23.93 423.133 24.1431 423.136 24.3948H421.974C421.981 24.5812 422.08 24.7023 422.424 24.7023C422.637 24.7023 422.874 24.6708 423.075 24.6392V24.8788C422.84 24.9177 422.584 24.9587 422.339 24.9587Z" fill="var(--fill-0, white)" fill-opacity="0.55"/>
<path d="M424.654 24.9249V24.2493C424.654 24.0268 424.54 23.947 424.337 23.947C424.187 23.947 423.998 23.9856 423.838 24.0245V24.9249H423.497V23.7025H423.775L423.787 23.7798C424.003 23.7244 424.242 23.6687 424.441 23.6687C424.591 23.6687 424.744 23.6903 424.86 23.7944C424.957 23.8817 424.993 24.0024 424.993 24.1769V24.9249H424.654Z" fill="var(--fill-0, white)" fill-opacity="0.55"/>
<path d="M425.964 24.9587C425.8 24.9587 425.65 24.9126 425.567 24.7843C425.507 24.6972 425.478 24.5788 425.478 24.4141V23.9565H425.231V23.7025H425.478L425.514 23.3321H425.817V23.7025H426.298V23.9565H425.817V24.3488C425.817 24.4432 425.824 24.523 425.85 24.5812C425.887 24.6634 425.967 24.6948 426.073 24.6948C426.153 24.6948 426.25 24.6827 426.318 24.6708V24.915C426.206 24.937 426.078 24.9587 425.964 24.9587Z" fill="var(--fill-0, white)" fill-opacity="0.55"/>
<path d="M426.631 24.9249V23.7025H426.91L426.922 23.7798C427.147 23.717 427.314 23.6687 427.527 23.6687C427.537 23.6687 427.551 23.6687 427.57 23.6709V23.9615C427.532 23.9591 427.486 23.9591 427.452 23.9591C427.285 23.9591 427.159 23.9784 426.973 24.0221V24.9249H426.631Z" fill="var(--fill-0, white)" fill-opacity="0.55"/>
<path d="M428.811 24.4117C428.668 24.3995 428.523 24.3923 428.371 24.3923C428.121 24.3923 428.034 24.4432 428.034 24.5568C428.034 24.6634 428.107 24.7215 428.298 24.7215C428.458 24.7215 428.649 24.6853 428.811 24.6488V24.4117ZM428.884 24.9249L428.874 24.8521C428.666 24.9032 428.424 24.9587 428.211 24.9587C428.08 24.9587 427.94 24.9417 427.84 24.869C427.749 24.8037 427.705 24.6972 427.705 24.5737C427.705 24.4358 427.766 24.3076 427.911 24.2423C428.039 24.1817 428.211 24.1769 428.368 24.1769C428.496 24.1769 428.668 24.1841 428.811 24.1939V24.1719C428.811 23.9809 428.685 23.9179 428.342 23.9179C428.208 23.9179 428.046 23.9249 427.891 23.9396V23.6927C428.063 23.6784 428.257 23.6686 428.417 23.6686C428.63 23.6686 428.85 23.6856 428.985 23.7823C429.126 23.8817 429.152 24.0197 429.152 24.2011V24.9249H428.884Z" fill="var(--fill-0, white)" fill-opacity="0.55"/>
<path d="M429.591 23.187H429.933V24.9248H429.591V23.187Z" fill="var(--fill-0, white)" fill-opacity="0.55"/>
</g>
</g>
</svg>
