<svg width="431" height="29" viewBox="0 0 431 29" fill="none" xmlns="http://www.w3.org/2000/svg">
<path fill-rule="evenodd" clip-rule="evenodd" d="M16.2807 21.5119C18.0126 23.1462 20.3311 24.1663 22.8947 24.1663C28.2249 24.1663 32.5614 19.8299 32.5614 14.4997C32.5614 9.16949 28.2249 4.83301 22.8947 4.83301C20.3311 4.83301 18.0126 5.85316 16.2807 7.48742C14.5488 5.85316 12.2303 4.83301 9.66667 4.83301C4.33649 4.83301 0 9.16949 0 14.4997C0 19.8299 4.33649 24.1663 9.66667 24.1663C12.2303 24.1663 14.5488 23.1462 16.2807 21.5119ZM16.2807 21.5119C14.4116 19.7481 13.2281 17.2662 13.2281 14.4997C13.2281 11.7331 14.4116 9.25122 16.2807 7.48742C18.1498 9.25122 19.3333 11.7331 19.3333 14.4997C19.3333 17.2662 18.1498 19.7481 16.2807 21.5119Z" fill="white" fill-opacity="0.55"/>
<path d="M85.3479 13.4435C85.5942 13.2267 85.9309 13.1146 86.344 13.1146C86.6626 13.1146 86.9282 13.1712 87.266 13.2929L87.2564 13.3953C87.1721 13.8939 87.0215 14.7117 86.9083 15.2857C86.842 15.5759 86.768 15.8307 86.6722 16.0354C86.4669 16.469 86.0062 16.7503 85.5165 16.7503C84.8601 16.7503 84.559 16.413 84.559 15.6705C84.559 14.7485 84.8788 13.8566 85.3479 13.4435Z" fill="white" fill-opacity="0.55"/>
<path d="M61.1253 15.5008L61.4349 13.7519L61.4632 13.6116C61.7553 13.293 62.122 13.1226 62.5641 13.1226C63.2976 13.1226 63.6354 13.4996 63.6354 14.2614C63.6354 15.0509 63.3722 15.9151 62.9868 16.356C62.7423 16.6282 62.4135 16.7715 62.0088 16.7715C61.3993 16.7715 61.0886 16.4692 61.0886 15.8591C61.0886 15.7351 61.1061 15.6231 61.1253 15.5008Z" fill="white" fill-opacity="0.55"/>
<path d="M66.1538 14.2131C66.2574 14.2233 66.6055 14.2233 67.1884 14.2233H67.3384C67.7612 14.2233 68.0526 14.2233 68.2213 14.2131H68.3068L68.3249 14.0908C68.3435 13.9788 68.3538 13.8746 68.3538 13.7819C68.3538 13.3206 68.0424 13.096 67.4414 13.096C66.6796 13.096 66.2472 13.4332 66.0502 14.2131H66.1538Z" fill="white" fill-opacity="0.55"/>
<path d="M78.6507 14.7786C78.847 14.7786 78.9879 14.7786 79.271 14.8063L79.3643 14.8147C79.271 15.3411 79.168 15.7078 79.0277 16.0095C78.8006 16.469 78.3405 16.7503 77.822 16.7503C77.3065 16.7503 77.0246 16.4986 77.0246 16.027C77.0246 15.632 77.1951 15.276 77.4763 15.0598C77.7389 14.8521 78.0767 14.7786 78.6507 14.7786Z" fill="white" fill-opacity="0.55"/>
<path fill-rule="evenodd" clip-rule="evenodd" d="M89.1209 21.2677C88.6717 23.4791 86.7192 24.1668 84.4832 24.1668L48.0496 24.1638C48.0496 24.1638 50.9698 9.83199 51.4112 7.73142C51.852 5.63024 53.8117 4.8335 56.0496 4.8335H92.4916C92.4916 4.8335 89.5696 19.0563 89.1209 21.2677ZM83.5719 15.7747C83.5719 16.8731 84.0887 17.3802 85.1883 17.3802C85.9977 17.3802 86.4307 17.1556 86.8053 16.516C86.7874 16.6751 86.7772 16.7299 86.7496 16.878L86.7487 16.8828C86.7227 17.0561 86.7196 17.1137 86.7135 17.2268C86.7127 17.2423 86.7118 17.2587 86.7108 17.2766H87.5846V17.2104C87.5846 16.7979 87.6593 16.1595 87.8291 15.1152C87.9706 14.2613 88.0634 13.7446 88.3187 12.3709C88.4602 11.6012 88.571 11.0376 88.6475 10.6606L88.6656 10.5943H87.7074L87.6972 10.669C87.6695 10.8774 87.6213 11.2062 87.5467 11.6572L87.5464 11.6588C87.4815 12.0723 87.4346 12.3711 87.3967 12.5588L87.3786 12.672C87.3083 12.6485 87.2613 12.6343 87.2222 12.6225C87.1834 12.6108 87.1524 12.6015 87.1143 12.5877C86.88 12.5311 86.5891 12.504 86.2964 12.504C85.2642 12.504 84.4831 12.9737 84.032 13.8746C83.7315 14.4576 83.5719 15.1351 83.5719 15.7747ZM58.1004 17.1842L58.307 16.1309L58.5328 14.9475L58.7207 13.8008C58.8152 13.2173 58.8712 12.8517 58.8893 12.7012C58.8893 12.6819 58.8893 12.6536 58.899 12.6072H59.8655C59.8577 12.6536 59.8475 12.6819 59.8396 12.7012C59.8145 12.801 59.7771 12.9955 59.7214 13.2855C59.6931 13.4326 59.6601 13.6044 59.6216 13.8008L59.406 14.9475L59.2103 16.1309L59.1681 16.4002C59.1051 16.8018 59.0636 17.0666 59.0477 17.1842C59.0477 17.2022 59.0477 17.2402 59.0405 17.2769H58.0715L58.1004 17.1842ZM59.0881 11.3937C59.0881 10.9156 59.3223 10.6325 59.736 10.6325C60.0179 10.6325 60.1588 10.765 60.1588 11.0372C60.1588 11.5076 59.9137 11.7984 59.5096 11.7984C59.2747 11.7984 59.1338 11.7033 59.0953 11.5262C59.0881 11.4781 59.0881 11.4407 59.0881 11.3937ZM51.9757 17.18L52.2787 15.6347L52.5858 14.0039L53.0953 10.8181L53.117 10.7193H54.2082C54.2034 10.7402 54.2006 10.7577 54.1982 10.7724C54.195 10.7923 54.1927 10.807 54.1871 10.8181C54.148 11.0048 54.0697 11.4179 53.9613 12.0557C53.9095 12.3579 53.8419 12.6978 53.7668 13.0759L53.7668 13.076C53.7563 13.1288 53.7456 13.1824 53.7348 13.2366L53.7156 13.3751H53.8041L55.2284 13.3932L56.6153 13.3751H56.7249L56.7436 13.2366C56.7536 13.1716 56.7636 13.106 56.7737 13.0398L56.7738 13.0389C56.8233 12.7148 56.8749 12.3758 56.9399 12.0165C57.0983 11.1517 57.1079 11.0921 57.1573 10.7199H58.2666C58.2491 10.7892 58.2491 10.7892 58.2377 10.8187C58.2178 10.9169 58.1209 11.4281 57.9529 12.3616L57.6487 14.0039L57.3729 15.6353C57.2385 16.4294 57.1609 16.9186 57.1306 17.1097L57.1251 17.144C57.1228 17.1589 57.1208 17.1709 57.1194 17.18C57.1194 17.1943 57.1194 17.2031 57.1187 17.2119C57.1177 17.2261 57.115 17.2401 57.1079 17.277H55.9968L56.0179 17.18C56.045 17.0614 56.095 16.7765 56.1727 16.3243C56.1853 16.2518 56.2035 16.1584 56.2263 16.0413L56.2263 16.0411L56.2263 16.0411C56.2567 15.8848 56.2954 15.6861 56.3401 15.4384L56.4979 14.573L56.5111 14.5019C56.5526 14.28 56.5776 14.146 56.5858 14.1105C56.5858 14.0993 56.589 14.0856 56.5935 14.0668C56.5969 14.0523 56.6011 14.0347 56.6051 14.0129H56.478C56.2919 14.0039 55.6228 14.0039 54.9839 14.0039H54.9837C54.3448 14.0039 53.9203 14.0039 53.724 14.0123H53.5975C53.5812 14.1671 53.5718 14.22 53.5362 14.4195C53.5285 14.4629 53.5195 14.5132 53.509 14.573C53.4596 14.8283 53.4121 15.1234 53.3621 15.4378C53.3429 15.5514 53.3254 15.6548 53.3096 15.7481L53.3093 15.7496L53.3093 15.7497C53.2608 16.0363 53.2284 16.227 53.2139 16.3237C53.1356 16.7958 53.0856 17.0795 53.0664 17.18C53.0664 17.1975 53.0664 17.2378 53.0573 17.2764H51.9559L51.9757 17.18ZM59.895 17.4942C59.7161 18.471 59.6029 19.0533 59.5571 19.2593C59.5463 19.2972 59.5463 19.2973 59.5282 19.3635H60.5068C60.5147 19.2972 60.5147 19.2593 60.5147 19.2509C60.5286 19.0932 60.5686 18.8461 60.6225 18.5136C60.6361 18.4296 60.6506 18.34 60.6658 18.2452L60.882 16.854L60.9007 16.7426C61.1253 17.2304 61.4072 17.4002 62.0287 17.4002C63.0151 17.4002 63.7462 16.9299 64.1895 16C64.4629 15.4075 64.6225 14.7402 64.6225 14.1482C64.6225 13.0762 64.0582 12.5041 63.0061 12.5041C62.3864 12.5041 61.9263 12.6721 61.4752 13.0666L61.4939 12.9624L61.5391 12.701L61.5595 12.6065H60.7218L60.7218 12.6066C60.7168 12.6405 60.7147 12.6541 60.7139 12.6677C60.7134 12.6768 60.7134 12.6859 60.7134 12.701C60.6851 12.9076 60.6092 13.4056 60.4773 14.1952L60.2045 15.8109L59.895 17.4942ZM66.7639 17.3802C65.4974 17.3802 64.8747 16.837 64.8747 15.7078C64.8747 15.0869 65.0355 14.392 65.3083 13.8102C65.7214 12.9358 66.4935 12.504 67.6293 12.504C68.7097 12.504 69.2475 12.9159 69.2475 13.7343C69.2475 13.9686 69.1897 14.3366 69.0963 14.7581L68.9927 14.7485C68.8241 14.7401 68.2967 14.7401 67.4135 14.7401H67.4128C66.6614 14.7401 66.202 14.7401 66.0237 14.7485L65.9274 14.7581C65.8437 15.1809 65.8358 15.2857 65.8358 15.5862C65.8358 16.339 66.2664 16.7425 67.0752 16.7425C67.6028 16.7425 68.1087 16.6395 68.6741 16.3944L68.532 17.146C67.987 17.2965 67.3468 17.3802 66.7639 17.3802ZM69.594 16.1309L69.3863 17.1842L69.3682 17.2769H70.327C70.3595 16.8445 70.3793 16.7218 70.5142 15.8845L70.5151 15.8788C70.5323 15.7718 70.5514 15.6532 70.5727 15.5208C70.6359 15.1257 70.704 14.7873 70.7774 14.4952C70.9756 13.7165 71.4748 13.2095 72.0379 13.2095C72.2161 13.2095 72.3854 13.2366 72.5925 13.3022L72.7136 12.6253C72.5365 12.541 72.3769 12.503 72.1878 12.503C71.8217 12.503 71.4748 12.6632 71.2092 12.9625C71.0882 13.1041 71.031 13.1715 70.872 13.4239L70.9021 13.2932L71.0129 12.7012L71.031 12.6072H70.186C70.186 12.6354 70.1825 12.6569 70.1797 12.6738C70.1779 12.6847 70.1764 12.6936 70.1764 12.7012C70.1571 12.8517 70.1011 13.2173 70.0072 13.8008L69.8193 14.9475L69.594 16.1309ZM76.0949 13.3393C75.6999 13.199 75.2771 13.1225 74.8905 13.1225C74.431 13.1225 74.0811 13.2364 73.848 13.4616C73.4626 13.8284 73.1621 14.7401 73.1621 15.5573C73.1621 16.3571 73.5108 16.7425 74.225 16.7425C74.6478 16.7425 75.1928 16.6106 75.5674 16.4228L75.4355 17.1358C74.9567 17.2966 74.4502 17.3803 73.9335 17.3803C73.1988 17.3803 72.7953 17.2105 72.4846 16.7889C72.278 16.4884 72.1937 16.1782 72.1937 15.6802C72.1937 15.0316 72.3533 14.3553 72.6544 13.7621C72.7869 13.4893 72.9736 13.2454 73.209 13.0382C73.6228 12.663 74.1491 12.5028 75.0043 12.5028C75.3048 12.5028 75.6234 12.5221 76.1317 12.5685L76.2256 12.5775L76.0949 13.3393ZM76.1044 16.1595C76.1044 16.9852 76.5543 17.3802 77.504 17.3802C78.2658 17.3802 78.7633 17.1273 79.186 16.5058C79.1493 16.7786 79.1108 17.0695 79.1108 17.2026V17.2766H79.9563C79.9485 17.2206 79.9485 17.1646 79.9485 17.1273C79.9485 16.7051 80.043 15.9812 80.2104 15.0689L80.361 14.2131C80.4369 13.8006 80.4646 13.6115 80.4646 13.4435C80.4646 12.7955 79.9653 12.504 78.847 12.504C78.5844 12.504 78.3026 12.522 78.0207 12.5497C77.6925 12.5877 77.4558 12.6064 77.3065 12.6064C77.2878 12.6064 77.2595 12.6064 77.2228 12.5967L77.0337 13.3688C77.6461 13.1989 78.1159 13.1225 78.6031 13.1225C79.2426 13.1225 79.5528 13.3116 79.5528 13.6874C79.5528 13.8006 79.5528 13.8283 79.4878 14.1673L79.4673 14.2703C79.1583 14.251 78.697 14.2336 78.4628 14.2336C76.968 14.2336 76.1044 14.937 76.1044 16.1595ZM80.7657 17.1842L80.9704 16.1309L81.1987 14.9475L81.3866 13.8008C81.4793 13.2173 81.5359 12.8517 81.5534 12.7012C81.5534 12.6936 81.555 12.6847 81.5569 12.6738C81.5598 12.6569 81.5636 12.6354 81.5636 12.6072H82.4104L82.3893 12.7012L82.2773 13.2932L82.2496 13.4239C82.4104 13.1715 82.4658 13.1041 82.588 12.9625C82.8524 12.6632 83.1987 12.503 83.566 12.503C83.7533 12.503 83.9129 12.541 84.0918 12.6253L83.9695 13.3022C83.7624 13.2366 83.5943 13.2095 83.4137 13.2095C82.8524 13.2095 82.3538 13.7165 82.1568 14.4952C82.0816 14.7873 82.0153 15.1257 81.9497 15.5208C81.932 15.6312 81.9158 15.7321 81.901 15.8246L81.8994 15.8347L81.8993 15.8348C81.7578 16.7171 81.7387 16.8361 81.704 17.2769H80.7464L80.7657 17.1842Z" fill="white" fill-opacity="0.55"/>
<path d="M115.858 9.10462C116.426 8.91492 117.033 8.81295 117.665 8.81295C120.42 8.81295 122.72 10.7668 123.247 13.3648L127.153 12.5685C126.257 8.15608 122.35 4.8335 117.665 4.8335C116.59 4.8335 115.559 5.00791 114.594 5.33015L115.858 9.10462Z" fill="white" fill-opacity="0.55"/>
<path d="M111.248 21.7423L113.89 18.7609C112.711 17.7177 111.967 16.196 111.967 14.5003C111.967 12.8061 112.71 11.2848 113.888 10.2427L111.246 7.26127C109.243 9.03235 107.98 11.6194 107.98 14.5003C107.98 17.3834 109.244 19.9712 111.248 21.7423Z" fill="white" fill-opacity="0.55"/>
<path d="M123.246 15.6421C122.717 18.2375 120.419 20.1881 117.665 20.1881C117.032 20.1881 116.423 20.0861 115.856 19.8953L114.591 23.6705C115.556 23.9931 116.589 24.1668 117.665 24.1668C122.345 24.1668 126.252 20.8508 127.152 16.4409L123.246 15.6421Z" fill="white" fill-opacity="0.55"/>
<path d="M138.374 17.71C138.373 17.7118 138.372 17.7125 138.372 17.7143L138.26 17.6386C137.94 18.1575 137.442 18.5769 136.812 18.8489C135.613 19.3696 134.502 19.236 133.705 18.5376L133.631 18.6483L133.63 18.6465L132.269 20.6779C132.607 20.912 132.969 21.1108 133.35 21.2692C134.853 21.8919 136.39 21.8631 137.904 21.2055C138.999 20.7325 139.859 20.0094 140.447 19.0932L138.374 17.71ZM134.128 12.6986C132.864 13.2415 132.21 14.4263 132.345 15.8165L137.706 13.5128C136.785 12.4306 135.584 12.0727 134.128 12.6986ZM130.569 18.8864C130.441 18.68 130.267 18.3479 130.162 18.1047C129.544 16.6711 129.514 15.1877 130.036 13.764C130.61 12.2012 131.708 11.0058 133.125 10.397C134.908 9.63124 136.879 9.78271 138.587 10.7942C139.672 11.4151 140.441 12.3749 141.025 13.7316C141.1 13.9049 141.165 14.0913 141.229 14.2486L130.569 18.8864Z" fill="white" fill-opacity="0.55"/>
<path d="M144.955 7.4051V18.6993L146.714 19.4105L145.715 21.7379L143.774 20.9321C143.337 20.7435 143.041 20.4551 142.816 20.1293C142.602 19.7975 142.441 19.3424 142.441 18.7299V7.4051H144.955Z" fill="white" fill-opacity="0.55"/>
<path d="M149.512 15.8216C149.512 14.8604 149.938 13.9978 150.611 13.4115L148.806 11.4031C147.583 12.4838 146.813 14.0608 146.81 15.8191C146.808 17.5792 147.577 19.1581 148.801 20.241L150.603 18.2299C149.934 17.6422 149.511 16.7811 149.512 15.8216Z" fill="white" fill-opacity="0.55"/>
<path d="M152.717 19.0269C152.362 19.0261 152.021 18.9672 151.701 18.8608L150.839 21.4199C151.428 21.6172 152.06 21.7243 152.715 21.7254C155.572 21.7276 157.958 19.7041 158.511 17.0133L155.862 16.474C155.561 17.932 154.267 19.0287 152.717 19.0269Z" fill="white" fill-opacity="0.55"/>
<path d="M152.725 9.92388C152.07 9.92315 151.44 10.0295 150.851 10.225L151.706 12.7855C152.026 12.6799 152.368 12.6213 152.723 12.6213C154.276 12.6231 155.57 13.7253 155.864 15.188L158.513 14.6509C157.969 11.9568 155.585 9.92533 152.725 9.92388Z" fill="white" fill-opacity="0.55"/>
<path d="M178.021 28.1111L178.024 28.1159V28.1143L178.021 28.1111Z" fill="white" fill-opacity="0.55"/>
<path d="M178.167 26.1336C177.981 26.1336 177.801 26.1184 177.618 26.1161V26.2007H177.691C177.814 26.2007 178.06 26.2566 178.06 26.6L178.054 28.1271L178.032 28.1486L176.232 26.1168C176.112 26.1168 175.994 26.1336 175.871 26.1336C175.723 26.1336 175.571 26.1184 175.424 26.1168L175.423 26.2023H175.459C175.649 26.2023 175.843 26.3469 175.843 26.5841V28.2868C175.843 28.6079 175.754 28.8163 175.463 28.8179L175.424 28.8163V28.9026C175.599 28.9026 175.779 28.8858 175.957 28.8858C176.126 28.8858 176.294 28.901 176.461 28.9026V28.8179H176.411C176.092 28.8155 176.012 28.6773 176.012 28.3259V26.6152L178.114 28.9617H178.248C178.23 28.8387 178.227 28.7061 178.227 28.5719V26.7326C178.227 26.2494 178.43 26.2023 178.605 26.2023H178.647V26.1168C178.488 26.1176 178.328 26.1336 178.167 26.1336Z" fill="white" fill-opacity="0.55"/>
<path d="M178.664 26.0849C178.497 26.0817 178.332 26.0961 178.167 26.0961C177.978 26.0961 177.791 26.0801 177.6 26.0801H177.582V26.2358H177.69C177.807 26.239 178.023 26.2782 178.024 26.5992V28.0847L176.245 26.0881C176.108 26.0817 175.992 26.0961 175.871 26.0961C175.719 26.0961 175.561 26.0809 175.406 26.0809H175.388V26.2358H175.459C175.632 26.2374 175.809 26.3668 175.809 26.5833V28.2852C175.807 28.6055 175.73 28.778 175.463 28.7796H175.388V28.9353H175.406C175.589 28.9353 175.775 28.9193 175.956 28.9193C176.129 28.9193 176.304 28.9353 176.478 28.9353H176.496V28.7812H176.409C176.104 28.7772 176.052 28.6773 176.046 28.3267V26.7087L178.1 28.9928L178.268 29H178.288L178.284 28.9784C178.266 28.857 178.261 28.7165 178.261 28.5743V26.7366C178.265 26.2582 178.436 26.2454 178.604 26.2406H178.681V26.0849H178.664ZM178.667 26.2215H178.605C178.435 26.2215 178.244 26.2542 178.244 26.7366V28.5743C178.244 28.7165 178.248 28.857 178.268 28.9824H178.114L176.029 26.6631V28.3283C176.029 28.6805 176.098 28.8011 176.41 28.8011H176.478V28.9225C176.304 28.9225 176.131 28.9066 175.957 28.9066C175.775 28.9066 175.589 28.9225 175.407 28.9225V28.8011H175.463C175.742 28.8011 175.828 28.6118 175.828 28.2892V26.5865C175.828 26.3604 175.641 26.2231 175.459 26.2231H175.407V26.1025C175.561 26.1025 175.718 26.1192 175.873 26.1192C175.994 26.1192 176.112 26.1025 176.234 26.1025L178.035 28.1263L178.043 28.1183V26.604C178.043 26.2718 177.812 26.2223 177.691 26.2223H177.602V26.1017C177.792 26.1017 177.978 26.1184 178.168 26.1184C178.335 26.1184 178.5 26.1017 178.667 26.1017V26.2215Z" fill="white" fill-opacity="0.55"/>
<path d="M183.922 28.2676C183.801 28.7221 183.566 28.7628 183.088 28.7596C182.832 28.7596 182.577 28.7596 182.577 28.4785V27.5201H183.08C183.361 27.5169 183.391 27.687 183.411 27.9178L183.498 27.8987C183.49 27.7501 183.486 27.6008 183.486 27.4522C183.486 27.3013 183.49 27.1495 183.498 26.997H183.411C183.389 27.2054 183.323 27.3548 183.076 27.3524H182.577V26.2582H183.156C183.577 26.2558 183.649 26.4715 183.666 26.7254L183.753 26.7039C183.745 26.5905 183.741 26.4419 183.741 26.3077C183.741 26.239 183.742 26.1736 183.745 26.1168C183.471 26.1176 183.06 26.1336 182.728 26.1336C182.395 26.1336 181.986 26.1184 181.738 26.1168V26.2015H181.777C181.921 26.2015 182.094 26.2271 182.094 26.4507V28.5671C182.094 28.79 181.921 28.8147 181.777 28.8163H181.738V28.8994C181.974 28.8994 182.441 28.8834 182.796 28.8834C183.154 28.8834 183.611 28.8994 183.872 28.8994C183.906 28.6965 183.953 28.4921 184.002 28.2868L183.922 28.2676Z" fill="white" fill-opacity="0.55"/>
<path d="M181.497 25.9603L181.478 25.9539L181.476 25.9715C181.469 26.0777 181.387 26.0793 181.274 26.0817H179.167C179.064 26.0793 178.989 26.0777 178.961 25.9763L178.959 25.9635H178.83V25.9803C178.83 26.0969 178.823 26.2095 178.805 26.3213C178.793 26.4379 178.773 26.5521 178.756 26.6639L178.755 26.6863H178.91L178.913 26.6719C178.979 26.3724 178.973 26.3221 179.272 26.3181H179.918V28.4585C179.914 28.7724 179.823 28.7748 179.602 28.7796H179.507V28.9353H179.524C179.682 28.9353 179.967 28.9185 180.208 28.9185C180.425 28.9185 180.708 28.9353 180.868 28.9353H180.885V28.7796H180.79C180.597 28.7748 180.475 28.7548 180.472 28.4497V26.3181H181.118C181.374 26.3181 181.39 26.5377 181.401 26.6895L181.402 26.7126L181.545 26.6607L181.557 26.6559V26.644C181.557 26.5345 181.557 26.4267 181.564 26.3197C181.576 26.2103 181.592 26.1033 181.609 25.9939L181.611 25.9771L181.497 25.9603ZM181.546 26.3181C181.539 26.4283 181.539 26.5361 181.539 26.644L181.417 26.6903C181.408 26.5409 181.389 26.3029 181.117 26.3029H180.454V28.4513C180.454 28.7644 180.596 28.8003 180.788 28.8003H180.867V28.9209C180.709 28.9209 180.425 28.9042 180.207 28.9042C179.964 28.9042 179.681 28.9209 179.523 28.9209V28.8003H179.599C179.822 28.8003 179.935 28.7812 179.935 28.4609V26.3029H179.271C178.968 26.3029 178.956 26.3764 178.895 26.6711H178.773C178.79 26.5561 178.81 26.4451 178.822 26.3253C178.838 26.2119 178.846 26.1001 178.846 25.9819H178.945C178.977 26.1025 179.078 26.0985 179.187 26.0985H181.276C181.385 26.0985 181.486 26.0945 181.495 25.9739L181.591 25.9907C181.574 26.1009 181.559 26.2071 181.546 26.3181Z" fill="white" fill-opacity="0.55"/>
<path d="M181.508 25.9947C181.49 26.1121 181.377 26.1184 181.275 26.1168H179.168C179.073 26.1168 178.968 26.1137 178.932 26.001H178.865C178.864 26.1113 178.857 26.2207 178.841 26.3277C178.829 26.4371 178.811 26.5433 178.795 26.6511H178.882C178.935 26.37 178.971 26.2782 179.272 26.283H179.954V28.4593C179.954 28.7844 179.822 28.8171 179.601 28.8179H179.54V28.901C179.7 28.901 179.974 28.8858 180.207 28.8858C180.419 28.8858 180.688 28.901 180.849 28.901V28.8179H180.79C180.595 28.8171 180.435 28.7676 180.435 28.4513V26.2838H181.117C181.39 26.2846 181.425 26.5162 181.434 26.6663L181.521 26.6336C181.521 26.5298 181.521 26.4235 181.529 26.3173C181.541 26.2127 181.556 26.1097 181.571 26.005L181.508 25.9947Z" fill="white" fill-opacity="0.55"/>
<path d="M175.253 26.0809C175.062 26.0817 174.819 26.0961 174.618 26.0961C174.421 26.0961 174.178 26.0801 174.018 26.0801H174.001V26.2358H174.075C174.221 26.2374 174.356 26.2526 174.357 26.4507V28.5663C174.356 28.7644 174.221 28.7772 174.075 28.7796H174.001V28.9345H174.018C174.178 28.9345 174.417 28.9177 174.613 28.9177C174.816 28.9177 175.058 28.9345 175.253 28.9345H175.271V28.7796H175.197C175.05 28.7772 174.914 28.7652 174.914 28.5671V26.4507C174.914 26.2526 175.05 26.2382 175.197 26.2366H175.271V26.0809H175.253ZM175.252 26.2215H175.196C175.05 26.2215 174.896 26.2398 174.896 26.4523V28.5671C174.896 28.7796 175.05 28.7979 175.196 28.7979H175.252V28.9193C175.058 28.9193 174.815 28.9034 174.613 28.9034C174.414 28.9034 174.176 28.9193 174.017 28.9193V28.7979H174.074C174.22 28.7979 174.373 28.7804 174.373 28.5671V26.4523C174.373 26.2398 174.22 26.2215 174.074 26.2215H174.017V26.1017C174.176 26.1017 174.418 26.1176 174.617 26.1176C174.819 26.1176 175.062 26.1017 175.252 26.1017V26.2215Z" fill="white" fill-opacity="0.55"/>
<path d="M193.473 1.20448e-06H189.388C184.586 -0.00239476 180.632 3.57159 180.632 8.73969C180.632 13.4677 184.585 17.3532 189.388 17.3292H193.473C198.219 17.3516 202.551 13.4661 202.551 8.73969C202.551 3.56999 198.219 -0.00239476 193.473 1.20448e-06ZM189.407 16.5833C185.019 16.5809 181.461 13.0301 181.461 8.64944C181.461 4.26722 185.019 0.716396 189.407 0.715597C193.797 0.716396 197.355 4.26802 197.355 8.64944C197.355 13.0301 193.798 16.5809 189.407 16.5833Z" fill="white" fill-opacity="0.55"/>
<path d="M201.324 24.2887C201.115 24.2887 200.951 24.2887 200.951 24.0411V18.9122C200.951 18.8515 200.938 18.806 200.891 18.806C200.867 18.806 200.808 18.8451 200.727 18.889C200.571 18.9793 200.259 19.1134 199.961 19.2077V19.3259C200.244 19.4081 200.356 19.4225 200.356 19.9057V24.0411C200.356 24.2879 200.207 24.2879 199.998 24.2879H199.855V24.4796C200.132 24.4732 200.399 24.4644 200.667 24.4644C200.935 24.4644 201.197 24.4796 201.448 24.4796V24.2887H201.324Z" fill="white" fill-opacity="0.55"/>
<path d="M191.21 3.95574V13.3423C193.1 12.6164 194.442 10.7922 194.445 8.64865C194.443 6.50665 193.1 4.67933 191.21 3.95574Z" fill="white" fill-opacity="0.55"/>
<path d="M207.22 21.0869C206.812 21.0869 206.41 21.3696 206.113 21.6212V18.9106C206.113 18.8499 206.096 18.8052 206.052 18.8052C206.03 18.8052 205.97 18.8419 205.889 18.8874C205.733 18.9777 205.421 19.1118 205.122 19.2069V19.3259C205.406 19.4105 205.518 19.4233 205.518 19.9065V23.0995C205.518 23.5524 205.48 23.982 205.413 24.4221L205.568 24.5036L205.792 24.3319C205.984 24.4149 206.275 24.593 206.825 24.593C207.891 24.593 208.604 23.6195 208.604 22.6467C208.604 21.8369 208.084 21.0869 207.22 21.0869ZM206.879 24.4005C206.381 24.4005 206.113 23.9245 206.113 23.6434V21.8384C206.313 21.6659 206.545 21.4886 206.82 21.4886C207.401 21.4886 208.009 22.1579 208.009 22.959C208.009 23.6194 207.676 24.4005 206.879 24.4005Z" fill="white" fill-opacity="0.55"/>
<path d="M204.841 24.216C204.716 24.216 204.633 24.2097 204.633 24.0755V21.3337C204.633 21.2498 204.633 21.2003 204.574 21.2003C204.5 21.2003 204.083 21.2586 203.414 21.3034V21.4375C203.681 21.5126 204.039 21.5933 204.039 21.7434V23.7416C203.726 23.998 203.39 24.1913 203.139 24.1913C202.491 24.1913 202.491 23.5516 202.49 23.3295V21.4168C202.49 21.2522 202.49 21.2019 202.407 21.2019C202.31 21.2019 201.715 21.2458 201.448 21.2522V21.3944C201.865 21.4295 201.894 21.6156 201.894 21.8105V23.7105C201.894 24.3319 202.31 24.593 202.712 24.593C203.242 24.593 203.583 24.3319 204.029 23.9709V24.573L204.067 24.5946C204.209 24.5499 204.819 24.3934 205.141 24.3638V24.2097C205.042 24.2097 204.931 24.216 204.841 24.216Z" fill="white" fill-opacity="0.55"/>
<path d="M191.143 21.8145C191.143 21.4974 191.426 21.3257 191.723 21.3257C192.201 21.3257 192.46 21.5933 192.536 22.0605H192.708L192.657 21.3041C192.365 21.1548 192.045 21.0877 191.807 21.0877C190.99 21.0877 190.655 21.622 190.655 22.0381C190.655 23.2321 192.275 22.9478 192.275 23.8263C192.275 24.0875 192.11 24.355 191.671 24.3574C191.126 24.3574 190.83 23.9397 190.733 23.4501L190.599 23.4885L190.681 24.3422C190.942 24.4892 191.29 24.5938 191.589 24.5938C192.474 24.5938 192.869 24.0731 192.869 23.5819C192.869 22.4167 191.143 22.685 191.143 21.8145Z" fill="white" fill-opacity="0.55"/>
<path d="M176.191 19.2971C175.64 19.2971 175.216 19.3139 174.903 19.3139C174.613 19.3139 174.317 19.3139 174.026 19.2971V19.4896C174.361 19.4976 174.71 19.4521 174.71 20.1197L174.709 23.7233C174.689 24.228 174.472 24.2408 174.026 24.2879V24.478C174.361 24.4716 174.689 24.4636 175.023 24.4636C175.372 24.4668 175.723 24.478 176.102 24.478C178.736 24.478 179.166 22.6315 179.166 21.896C179.166 20.5806 178.118 19.2971 176.191 19.2971ZM176.213 24.2416C175.849 24.2416 175.439 24.1745 175.439 23.6035L175.439 19.5655C175.573 19.5551 175.714 19.5359 176.02 19.5359C177.455 19.5359 178.348 20.5382 178.348 21.9263C178.348 23.0332 177.82 24.2416 176.213 24.2416Z" fill="white" fill-opacity="0.55"/>
<path d="M175.196 26.2023H175.235V26.1168C175.049 26.1168 174.814 26.1336 174.618 26.1336C174.425 26.1336 174.192 26.1184 174.036 26.1168V26.2023H174.075C174.219 26.2023 174.392 26.2279 174.392 26.4515V28.5663C174.392 28.7915 174.219 28.8155 174.075 28.8155H174.036V28.901C174.192 28.901 174.421 28.8842 174.613 28.8842C174.81 28.8842 175.044 28.8994 175.235 28.901V28.8155H175.196C175.051 28.8155 174.878 28.7907 174.878 28.5663V26.4515C174.878 26.2271 175.051 26.2023 175.196 26.2023Z" fill="white" fill-opacity="0.55"/>
<path d="M180.893 24.2911C180.685 24.2911 180.521 24.2911 180.521 24.0443V21.1947C180.521 21.1356 180.506 21.0901 180.469 21.0901C180.431 21.0901 180.387 21.0973 180.334 21.1268C180.305 21.1492 179.889 21.2882 179.539 21.3944V21.5126C179.814 21.6588 179.926 21.7043 179.926 22.0309V24.0435C179.926 24.2903 179.776 24.2903 179.569 24.2903H179.427V24.482C179.702 24.474 179.971 24.4668 180.238 24.4668C180.506 24.4668 180.766 24.478 181.02 24.4828V24.2911H180.893Z" fill="white" fill-opacity="0.55"/>
<path d="M189.985 21.0885C189.532 21.0885 189.219 21.5645 189.034 21.8528H189.018V21.1836C189.018 21.1101 188.995 21.0885 188.951 21.0885C188.884 21.0885 188.586 21.2802 188.043 21.511V21.6228C188.155 21.6811 188.429 21.7274 188.429 21.9574V24.0411C188.429 24.2895 188.281 24.2895 188.073 24.2895H187.872V24.4812C188.141 24.4748 188.452 24.466 188.758 24.466C189.078 24.466 189.389 24.4748 189.798 24.4812V24.2903H189.382C189.174 24.2903 189.025 24.2903 189.025 24.0427V22.2977C189.025 21.8504 189.441 21.6803 189.569 21.6827C189.829 21.6827 189.829 21.8616 190.06 21.8616C190.269 21.8616 190.41 21.6811 190.41 21.4814C190.41 21.2131 190.171 21.0885 189.985 21.0885Z" fill="white" fill-opacity="0.55"/>
<path d="M180.223 19.2165C180.037 19.2165 179.859 19.3882 179.859 19.5735C179.859 19.7667 180.03 19.9456 180.223 19.9464C180.424 19.9464 180.588 19.7731 180.588 19.5735C180.588 19.3722 180.416 19.2165 180.223 19.2165Z" fill="white" fill-opacity="0.55"/>
<path d="M187.632 23.6482C187.358 23.9213 187.037 24.1442 186.627 24.1442C186.033 24.1442 185.578 23.5659 185.535 22.8607C185.518 22.61 185.518 22.4973 185.535 22.4303L187.625 22.4319L187.692 22.3855C187.699 22.3416 187.699 22.2977 187.699 22.2514C187.692 21.4655 187.044 21.0861 186.442 21.0861C185.921 21.0861 184.939 21.5166 184.939 22.9717C184.939 23.4461 185.177 24.5906 186.36 24.5906C186.971 24.5906 187.393 24.2041 187.736 23.7512L187.632 23.6482ZM186.412 21.3257C186.829 21.3257 187.06 21.63 187.06 22.0078C187.06 22.0956 187.039 22.1931 186.852 22.1931H185.557C185.647 21.658 185.959 21.3257 186.412 21.3257Z" fill="white" fill-opacity="0.55"/>
<path d="M184.371 8.64865C184.374 10.7898 185.713 12.6148 187.604 13.34V3.95574C185.714 4.68172 184.375 6.50745 184.371 8.64865Z" fill="white" fill-opacity="0.55"/>
<path d="M203.069 26.1336C202.884 26.1336 202.705 26.1184 202.525 26.1176V26.2015H202.597C202.72 26.2031 202.966 26.2582 202.966 26.6008L202.963 28.1279L202.953 28.1359L202.939 28.1502L201.138 26.1176C201.018 26.1176 200.899 26.1344 200.777 26.1344C200.628 26.1344 200.477 26.1192 200.328 26.1176V26.2015H200.364C200.552 26.2023 200.749 26.3469 200.749 26.5841V28.2868C200.749 28.6079 200.657 28.8163 200.366 28.8179L200.326 28.8171V28.901C200.501 28.901 200.68 28.885 200.86 28.885C201.029 28.885 201.196 28.901 201.364 28.901V28.8179H201.313C200.995 28.8163 200.915 28.6773 200.915 28.3259V26.6152L203.016 28.9617H203.149C203.133 28.8387 203.13 28.7061 203.13 28.5719V26.7326C203.13 26.247 203.333 26.2023 203.507 26.2007H203.551V26.1168C203.391 26.1176 203.23 26.1336 203.069 26.1336Z" fill="white" fill-opacity="0.55"/>
<path d="M183.915 28.2277H183.897V28.2301L183.893 28.2461C183.772 28.6997 183.576 28.7237 183.089 28.7269C182.825 28.7253 182.612 28.7269 182.612 28.4809V27.5552H183.08C183.349 27.5584 183.351 27.6934 183.379 27.9386L183.381 27.9578L183.521 27.9306L183.536 27.9258L183.535 27.9114C183.528 27.7573 183.522 27.6039 183.522 27.4506C183.522 27.2933 183.528 27.1343 183.535 26.9786L183.536 26.9618H183.381L183.379 26.9778C183.352 27.1942 183.31 27.3156 183.076 27.318H182.612V26.295H183.157C183.575 26.2997 183.609 26.4882 183.633 26.751L183.635 26.7702L183.777 26.7342L183.79 26.7294V26.7134C183.781 26.5976 183.777 26.4467 183.777 26.3061C183.777 26.2287 183.779 26.1568 183.781 26.0961L183.782 26.0793H183.764C183.489 26.0793 183.069 26.0945 182.728 26.0945C182.39 26.0945 181.968 26.0793 181.722 26.0793H181.704V26.2343H181.778C181.926 26.2374 182.058 26.251 182.059 26.4499V28.5647C182.058 28.7628 181.926 28.7764 181.778 28.7788H181.704V28.9329H181.722C181.952 28.9329 182.434 28.9169 182.797 28.9169C183.161 28.9169 183.627 28.9329 183.886 28.9329H183.901L183.904 28.9185C183.941 28.7045 183.989 28.4913 184.041 28.2772L184.045 28.2604L183.915 28.2277ZM183.886 28.9201C183.626 28.9201 183.161 28.9034 182.798 28.9034C182.432 28.9034 181.951 28.9201 181.721 28.9201V28.8003H181.778C181.924 28.8003 182.077 28.7812 182.077 28.5695V26.4531C182.077 26.2406 181.924 26.2223 181.778 26.2223H181.721V26.1009C181.967 26.1009 182.389 26.1176 182.729 26.1176C183.069 26.1176 183.489 26.1009 183.764 26.1009C183.757 26.2758 183.761 26.5425 183.774 26.719L183.651 26.751C183.631 26.489 183.583 26.2782 183.157 26.2782H182.595V27.3372H183.078C183.319 27.3372 183.373 27.1998 183.396 26.9802H183.517C183.509 27.1391 183.505 27.2965 183.505 27.4546C183.505 27.6071 183.509 27.7613 183.517 27.9154L183.396 27.9394C183.372 27.6966 183.361 27.5401 183.08 27.5401H182.595V28.4793C182.595 28.7428 182.829 28.7428 183.089 28.7428C183.575 28.7428 183.789 28.7101 183.91 28.2509L184.024 28.278C183.971 28.4921 183.922 28.7045 183.886 28.9201Z" fill="white" fill-opacity="0.55"/>
<path d="M203.569 26.0841C203.4 26.0841 203.235 26.1001 203.069 26.1001C202.882 26.1001 202.695 26.0841 202.503 26.0841H202.485V26.239H202.593C202.711 26.2422 202.927 26.2822 202.929 26.6024V28.0879L201.148 26.0897C201.011 26.0833 200.895 26.0985 200.773 26.0985C200.622 26.0985 200.463 26.0833 200.309 26.0833H200.29V26.2382H200.361C200.535 26.2382 200.711 26.3692 200.711 26.5841V28.2868C200.708 28.6079 200.631 28.7796 200.363 28.7812H200.29V28.9369H200.308C200.491 28.9369 200.677 28.9201 200.859 28.9201C201.031 28.9201 201.205 28.9369 201.379 28.9369H201.396V28.7812H201.31C201.005 28.7764 200.952 28.6781 200.947 28.3267V26.7087L202.999 28.9936L203.167 28.9984H203.187L203.183 28.9808C203.163 28.857 203.16 28.7157 203.16 28.5743V26.735C203.163 26.259 203.337 26.2438 203.503 26.239H203.586V26.0841H203.569ZM203.574 26.2223H203.512C203.338 26.2215 203.147 26.2534 203.147 26.7342V28.5735C203.147 28.7149 203.15 28.8554 203.171 28.9808H203.017L200.933 26.6615V28.3267C200.933 28.6789 201.002 28.8003 201.315 28.8003H201.384V28.9209C201.21 28.9209 201.035 28.9042 200.863 28.9042C200.68 28.9042 200.495 28.9209 200.313 28.9209V28.8003H200.368C200.649 28.8003 200.732 28.6111 200.732 28.2876V26.5849C200.732 26.3588 200.549 26.2215 200.365 26.2215H200.313V26.1001C200.465 26.1001 200.625 26.1168 200.777 26.1168C200.899 26.1168 201.016 26.1001 201.137 26.1001L202.939 28.1247L202.945 28.1191L202.948 28.1167V26.6024C202.948 26.2702 202.718 26.2223 202.596 26.2223H202.51V26.1017C202.699 26.1017 202.886 26.1184 203.076 26.1184C203.242 26.1184 203.408 26.1017 203.574 26.1017V26.2223Z" fill="white" fill-opacity="0.55"/>
<path d="M198.648 26.2167C197.94 26.2167 197.731 26.8484 197.731 27.3883C197.731 28.1111 198.062 28.8027 198.718 28.8027C199.504 28.8027 199.64 28.1111 199.64 27.5217C199.641 26.9323 199.323 26.2167 198.648 26.2167ZM198.719 28.7852C198.078 28.7844 197.75 28.1071 197.748 27.3875C197.751 26.8492 197.955 26.2358 198.648 26.2343C199.308 26.2358 199.625 26.9363 199.625 27.5209C199.623 28.1111 199.49 28.7852 198.719 28.7852Z" fill="white" fill-opacity="0.55"/>
<path d="M198.659 26.0562C197.826 26.0562 197.181 26.7007 197.181 27.5321C197.182 28.3898 197.83 28.9641 198.679 28.9641C199.532 28.9641 200.19 28.3523 200.194 27.4338C200.192 26.5841 199.513 26.0578 198.659 26.0562ZM198.719 28.8203C198.046 28.8195 197.715 28.1159 197.714 27.3883C197.715 26.8436 197.929 26.2015 198.648 26.2015C199.337 26.2015 199.657 26.9291 199.659 27.5225C199.659 28.1111 199.52 28.8203 198.719 28.8203Z" fill="white" fill-opacity="0.55"/>
<path d="M204.809 26.5521H204.802L204.801 26.5537L204.425 27.6974H205.183L204.809 26.5521ZM204.805 26.5952L205.155 27.6766H204.449L204.805 26.5952Z" fill="white" fill-opacity="0.55"/>
<path d="M198.659 26.0218C197.809 26.0226 197.148 26.6807 197.146 27.5321C197.148 28.4106 197.812 28.9968 198.678 29C199.547 28.9968 200.226 28.3731 200.226 27.4338C200.225 26.5617 199.527 26.0226 198.659 26.0218ZM198.678 28.9808C197.819 28.9808 197.164 28.3986 197.164 27.5313C197.164 26.6895 197.814 26.0402 198.656 26.0402C199.519 26.0402 200.207 26.5737 200.207 27.433C200.209 28.3643 199.541 28.9808 198.678 28.9808Z" fill="white" fill-opacity="0.55"/>
<path d="M208.686 28.2173L208.674 28.2157L208.669 28.2309C208.648 28.3171 208.612 28.4306 208.549 28.5152C208.479 28.6119 208.336 28.7061 208.171 28.7253C208.068 28.738 207.964 28.742 207.864 28.742C207.785 28.742 207.713 28.7388 207.641 28.734C207.515 28.7157 207.416 28.6765 207.415 28.524V26.4411C207.418 26.2366 207.516 26.2446 207.672 26.2398H207.791V26.0841H207.774C207.566 26.0841 207.363 26.1001 207.158 26.1001C206.942 26.1001 206.731 26.0841 206.516 26.0841H206.499V26.239H206.573C206.721 26.2406 206.858 26.2558 206.86 26.4523V28.5312C206.858 28.77 206.718 28.7804 206.573 28.782H206.5V28.9377H206.517C206.873 28.9377 207.231 28.9209 207.586 28.9209C207.942 28.9209 208.299 28.9377 208.653 28.9377H208.668L208.671 28.9233C208.721 28.6933 208.777 28.4697 208.822 28.2373L208.825 28.2173H208.686ZM208.653 28.9201C208.3 28.9201 207.942 28.9034 207.587 28.9034C207.23 28.9034 206.874 28.9201 206.518 28.9201V28.8003H206.573C206.72 28.8003 206.879 28.7812 206.879 28.528V26.4515C206.879 26.2382 206.72 26.2207 206.573 26.2207H206.518V26.1001C206.733 26.1001 206.943 26.1161 207.158 26.1161C207.365 26.1161 207.567 26.1001 207.775 26.1001V26.2207H207.671C207.52 26.2207 207.398 26.2247 207.398 26.4379V28.5216C207.398 28.6837 207.511 28.7324 207.64 28.7484C207.806 28.7604 207.989 28.7604 208.175 28.7396C208.345 28.7197 208.491 28.623 208.562 28.5224C208.626 28.4345 208.662 28.3195 208.686 28.2317H208.803C208.761 28.4641 208.704 28.6893 208.653 28.9201Z" fill="white" fill-opacity="0.55"/>
<path d="M206.353 28.8179C206.215 28.8179 206.118 28.7636 206.068 28.6446C206.017 28.5216 205.967 28.3707 205.919 28.2285L205.173 26.1153C205.159 26.0841 205.15 26.0458 205.139 26.0194C205.135 26.013 205.136 26.013 205.131 26.013H205.125C205.115 26.013 205.111 26.017 205.102 26.0194C205.023 26.0689 204.861 26.1504 204.742 26.1815C204.717 26.3341 204.643 26.5353 204.591 26.6855L203.941 28.54C203.88 28.7157 203.74 28.8163 203.574 28.8163H203.567V28.9002C203.707 28.8914 203.846 28.8834 203.987 28.8834C204.143 28.8834 204.304 28.8922 204.459 28.9002V28.8163H204.431C204.3 28.8139 204.115 28.7995 204.112 28.6558C204.112 28.5759 204.162 28.4729 204.2 28.3363L204.333 27.9026H205.278L205.442 28.385C205.486 28.5152 205.524 28.6222 205.524 28.6813C205.517 28.8043 205.347 28.8147 205.255 28.8179H205.228V28.901H205.23C205.43 28.893 205.627 28.8842 205.818 28.8842C206.005 28.8842 206.182 28.893 206.36 28.901V28.8179H206.353ZM204.401 27.7134L204.788 26.5345H204.825L205.208 27.7134H204.401Z" fill="white" fill-opacity="0.55"/>
<path d="M208.757 25.9859C208.513 25.9859 208.331 26.1712 208.331 26.4116C208.331 26.6504 208.514 26.834 208.757 26.834C209 26.834 209.182 26.6504 209.182 26.4116C209.182 26.1728 208.997 25.9859 208.757 25.9859ZM208.757 26.7566C208.565 26.7566 208.417 26.5936 208.417 26.41C208.417 26.2271 208.565 26.0633 208.757 26.0633C208.949 26.0633 209.094 26.2263 209.094 26.41C209.094 26.5936 208.946 26.7566 208.757 26.7566Z" fill="white" fill-opacity="0.55"/>
<path d="M208.88 26.5202L208.807 26.4243C208.865 26.4076 208.907 26.3596 208.907 26.2957C208.907 26.2183 208.84 26.1831 208.763 26.1831H208.546V26.2039C208.601 26.2007 208.607 26.2175 208.607 26.2598V26.5753C208.607 26.608 208.596 26.6064 208.545 26.6152V26.6344H208.751V26.6152C208.698 26.6064 208.687 26.608 208.687 26.5817V26.4379H208.736C208.815 26.5521 208.851 26.6344 208.889 26.6344H208.972V26.6208C208.949 26.6056 208.911 26.5657 208.88 26.5202ZM208.738 26.4116H208.687V26.2103H208.736C208.782 26.2103 208.82 26.2351 208.82 26.3037C208.819 26.3724 208.793 26.4116 208.738 26.4116Z" fill="white" fill-opacity="0.55"/>
<path d="M206.352 28.7772C206.224 28.7788 206.148 28.734 206.101 28.6294C206.05 28.5096 206.001 28.3611 205.951 28.2173L205.207 26.1041C205.192 26.0697 205.182 26.0338 205.169 26.001C205.156 25.9811 205.136 25.9779 205.125 25.9779C205.108 25.9779 205.095 25.9843 205.087 25.9883C205.006 26.0378 204.844 26.1184 204.718 26.1632C204.682 26.3229 204.608 26.5234 204.559 26.6743L203.909 28.5288C203.85 28.6917 203.724 28.778 203.573 28.778H203.533V28.9337H203.55C203.698 28.9257 203.842 28.9169 203.987 28.9169C204.147 28.9169 204.314 28.9257 204.475 28.9337H204.492V28.7796H204.431C204.297 28.7796 204.148 28.7556 204.148 28.6558C204.146 28.5911 204.194 28.4849 204.234 28.3459L204.359 27.937H205.253L205.406 28.3938C205.451 28.5224 205.489 28.6326 205.487 28.6773C205.487 28.7556 205.347 28.7772 205.253 28.7772H205.194V28.9345L205.212 28.9337C205.417 28.9265 205.62 28.9169 205.819 28.9169C206.012 28.9169 206.194 28.9265 206.375 28.9337L206.393 28.9353V28.778H206.352V28.7772ZM206.378 28.9201C206.195 28.9121 206.012 28.9034 205.819 28.9034C205.62 28.9034 205.419 28.9121 205.212 28.9201V28.8003H205.256C205.348 28.8003 205.507 28.7836 205.507 28.6829C205.507 28.631 205.47 28.5232 205.424 28.393L205.267 27.9242H204.349L204.218 28.3451C204.179 28.4809 204.131 28.5879 204.131 28.6598C204.131 28.782 204.301 28.8011 204.434 28.8011H204.481V28.9225C204.318 28.9145 204.153 28.9066 203.991 28.9066C203.844 28.9066 203.7 28.9137 203.554 28.9225V28.8011H203.577C203.736 28.8011 203.868 28.7077 203.929 28.5376L204.578 26.6855C204.63 26.5353 204.703 26.3357 204.727 26.1831C204.857 26.1384 205.018 26.0593 205.096 26.009C205.111 26.0058 205.115 26.001 205.129 26.001C205.142 26.001 205.148 26.001 205.157 26.0138C205.17 26.0466 205.183 26.0833 205.195 26.1137L205.939 28.2269C205.988 28.3691 206.036 28.5168 206.09 28.6406C206.139 28.7548 206.222 28.8011 206.355 28.8011H206.38L206.378 28.9201Z" fill="white" fill-opacity="0.55"/>
<path d="M208.701 28.2509C208.676 28.3379 208.64 28.4473 208.576 28.536C208.501 28.6374 208.35 28.7372 208.177 28.7604C208.068 28.7716 207.964 28.7772 207.865 28.7772C207.787 28.7772 207.711 28.7716 207.637 28.7668C207.507 28.7524 207.379 28.6965 207.379 28.5232V26.4395C207.379 26.2159 207.521 26.2023 207.671 26.2023H207.755V26.1176C207.555 26.1184 207.359 26.1344 207.158 26.1344C206.95 26.1344 206.744 26.1192 206.535 26.1176V26.2023H206.575C206.717 26.2023 206.896 26.2295 206.896 26.4515V28.5304C206.896 28.79 206.721 28.8171 206.575 28.8171H206.535V28.9026C206.886 28.9026 207.235 28.8858 207.587 28.8858C207.94 28.8858 208.289 28.9026 208.64 28.9026C208.687 28.6837 208.741 28.4689 208.784 28.2509H208.701Z" fill="white" fill-opacity="0.55"/>
<path d="M196.987 28.7796C196.839 28.7772 196.706 28.7652 196.704 28.5671V26.4507C196.705 26.2534 196.838 26.2382 196.987 26.2366H197.059V26.0801H197.042C196.853 26.0825 196.609 26.0969 196.407 26.0969C196.211 26.0969 195.967 26.0809 195.809 26.0809H195.792V26.2366H195.867C196.014 26.2382 196.148 26.2534 196.15 26.4515V28.5671C196.148 28.7652 196.014 28.7788 195.867 28.7804H195.792V28.9353H195.809C195.967 28.9353 196.207 28.9185 196.406 28.9185C196.608 28.9185 196.848 28.9353 197.044 28.9353H197.061V28.7796H196.987ZM197.043 28.9185C196.849 28.9185 196.607 28.9026 196.405 28.9026C196.207 28.9026 195.967 28.9185 195.808 28.9185V28.7971H195.865C196.011 28.7971 196.163 28.7796 196.163 28.5663V26.4515C196.163 26.239 196.011 26.2207 195.865 26.2207H195.809V26.1009C195.967 26.1009 196.209 26.1168 196.407 26.1168C196.612 26.1168 196.856 26.1009 197.044 26.1009L197.043 26.2207H196.988C196.841 26.2207 196.688 26.239 196.688 26.4515V28.5663C196.688 28.7788 196.841 28.7971 196.988 28.7971H197.043V28.9185Z" fill="white" fill-opacity="0.55"/>
<path d="M190.353 26.0833C190.187 26.0833 190.021 26.1001 189.856 26.1001C189.667 26.1001 189.48 26.0833 189.289 26.0833H189.271V26.239H189.378C189.495 26.2406 189.712 26.2822 189.712 26.6024V28.0879L187.933 26.0881C187.798 26.0825 187.68 26.0985 187.561 26.0985C187.408 26.0985 187.251 26.0825 187.096 26.0825H187.078V26.2382H187.147C187.322 26.2382 187.498 26.3692 187.498 26.5841V28.2852C187.496 28.6079 187.419 28.7804 187.152 28.7812H187.078V28.9369H187.096C187.278 28.9369 187.465 28.9201 187.646 28.9201C187.82 28.9201 187.993 28.9369 188.168 28.9369H188.185V28.7812H188.101C187.795 28.7764 187.74 28.6781 187.736 28.3267V26.7087L189.791 28.9936L189.957 29H189.977L189.975 28.9816C189.953 28.857 189.95 28.7165 189.95 28.5743V26.7366C189.954 26.259 190.126 26.2454 190.293 26.2406H190.371V26.0833H190.353ZM190.355 26.2207H190.294C190.124 26.2215 189.933 26.2534 189.933 26.7342V28.5735C189.933 28.7149 189.936 28.8554 189.956 28.9808H189.802L187.718 26.6607V28.3259C187.718 28.6781 187.787 28.8003 188.1 28.8003H188.167V28.9201C187.994 28.9201 187.82 28.9034 187.646 28.9034C187.463 28.9034 187.277 28.9201 187.095 28.9201V28.8003H187.151C187.432 28.8003 187.516 28.6103 187.516 28.2868V26.5841C187.516 26.358 187.33 26.2207 187.147 26.2207H187.096V26.1001C187.248 26.1001 187.408 26.1161 187.561 26.1161C187.681 26.1161 187.8 26.1001 187.921 26.1001L189.723 28.1239L189.727 28.1183L189.729 28.1159V26.6016C189.729 26.2694 189.499 26.2207 189.378 26.2207H189.29V26.1009C189.48 26.1009 189.666 26.1168 189.856 26.1168C190.023 26.1168 190.188 26.1009 190.355 26.1009V26.2207Z" fill="white" fill-opacity="0.55"/>
<path d="M189.856 26.1336C189.67 26.1336 189.491 26.1184 189.307 26.1168V26.2007H189.378C189.503 26.2023 189.748 26.2566 189.748 26.6L189.743 28.1271L189.736 28.1351L189.723 28.1494L187.921 26.1168C187.8 26.1168 187.684 26.1336 187.561 26.1336C187.412 26.1336 187.26 26.1184 187.112 26.1168V26.2007H187.147C187.339 26.2015 187.533 26.3461 187.533 26.5833V28.2844C187.533 28.6071 187.441 28.8155 187.151 28.8171L187.111 28.8163V28.9002C187.287 28.9002 187.467 28.8834 187.645 28.8834C187.816 28.8834 187.983 28.9002 188.15 28.9002V28.8163H188.101C187.78 28.8147 187.702 28.6757 187.7 28.3243V26.6152L189.803 28.9617H189.936C189.918 28.8387 189.916 28.7061 189.916 28.5719V26.7326C189.916 26.2494 190.119 26.2023 190.293 26.2007H190.336V26.1168C190.176 26.1176 190.016 26.1336 189.856 26.1336Z" fill="white" fill-opacity="0.55"/>
<path d="M186.567 28.5671L185.862 27.5145L185.882 27.5065C186.198 27.3835 186.434 27.1663 186.434 26.8109C186.434 26.251 185.997 26.12 185.488 26.1176C185.274 26.1176 185.08 26.1344 184.836 26.1344C184.599 26.1344 184.358 26.1192 184.226 26.1176V26.2039H184.281C184.407 26.2039 184.586 26.2239 184.586 26.5274V28.5799C184.586 28.742 184.434 28.8171 184.281 28.8171H184.226V28.9002C184.42 28.9002 184.605 28.8834 184.795 28.8834C185.022 28.8834 185.25 28.9002 185.473 28.9002V28.8171H185.419C185.235 28.8171 185.068 28.7947 185.068 28.4729V27.5912H185.364L185.368 27.6008C185.632 28.0656 185.898 28.5024 186.197 28.9018C186.32 28.9018 186.449 28.885 186.575 28.885C186.705 28.885 186.829 28.8986 186.955 28.9018V28.8147C186.766 28.79 186.678 28.734 186.567 28.5671ZM185.286 27.4826H185.069V26.2446L185.086 26.243C185.14 26.2382 185.196 26.2271 185.318 26.2271C185.687 26.2271 185.927 26.4675 185.927 26.834C185.925 27.3188 185.693 27.4826 185.286 27.4826Z" fill="white" fill-opacity="0.55"/>
<path d="M186.975 28.7772C186.779 28.7556 186.709 28.7149 186.596 28.5464L185.916 27.5313C186.228 27.4035 186.47 27.1759 186.47 26.8109C186.469 26.2247 185.999 26.0849 185.488 26.0833C185.272 26.0833 185.078 26.1001 184.836 26.1001C184.59 26.1001 184.339 26.0833 184.209 26.0833H184.191V26.2398H184.281C184.407 26.243 184.547 26.2414 184.551 26.5274V28.5799C184.55 28.7165 184.428 28.7796 184.281 28.7796H184.191V28.9353H184.209C184.411 28.9353 184.601 28.9185 184.795 28.9185C185.024 28.9185 185.26 28.9353 185.491 28.9353H185.509V28.7796H185.419C185.232 28.774 185.109 28.778 185.104 28.4729V27.6255H185.344C185.605 28.0871 185.871 28.5208 186.181 28.9281C186.322 28.9345 186.452 28.9177 186.575 28.9177C186.708 28.9177 186.838 28.9345 186.973 28.9345H186.99V28.7796L186.975 28.7772ZM186.974 28.9201C186.841 28.9201 186.71 28.9034 186.578 28.9034C186.452 28.9034 186.322 28.9201 186.196 28.9201C185.885 28.5104 185.616 28.0744 185.354 27.6079H185.088V28.4737C185.088 28.7868 185.232 28.7979 185.42 28.7979H185.492V28.9185C185.26 28.9185 185.027 28.9018 184.796 28.9018C184.602 28.9018 184.411 28.9185 184.21 28.9185V28.7979H184.282C184.433 28.7979 184.57 28.7293 184.57 28.5807V26.5282C184.57 26.2358 184.407 26.2215 184.282 26.2215H184.21V26.1017C184.339 26.1017 184.59 26.1176 184.837 26.1176C185.08 26.1176 185.274 26.1017 185.488 26.1017C185.998 26.1017 186.453 26.239 186.453 26.8133C186.453 27.1751 186.21 27.3979 185.889 27.5241L186.581 28.5575C186.694 28.7293 186.775 28.7772 186.974 28.8011V28.9201Z" fill="white" fill-opacity="0.55"/>
<path d="M196.987 26.2023H197.024V26.1168C196.839 26.1176 196.604 26.1336 196.407 26.1336C196.214 26.1336 195.983 26.1184 195.827 26.1168V26.2023H195.865C196.01 26.2023 196.182 26.2279 196.182 26.4515V28.5663C196.182 28.7899 196.011 28.8155 195.865 28.8155H195.827V28.8994C195.983 28.8978 196.211 28.8834 196.404 28.8834C196.6 28.8834 196.834 28.8994 197.024 28.8994V28.8155H196.987C196.84 28.8147 196.67 28.7892 196.67 28.5663V26.4515C196.67 26.2271 196.839 26.2023 196.987 26.2023Z" fill="white" fill-opacity="0.55"/>
<path d="M184.971 24.2887H184.836C184.627 24.2887 184.465 24.2887 184.465 24.0411V22.126C184.465 21.5469 184.242 21.0869 183.609 21.0869C183.111 21.0869 182.746 21.3393 182.321 21.6436V21.1612C182.321 21.1013 182.299 21.0861 182.278 21.0861C181.919 21.2419 181.615 21.3385 181.295 21.4431V21.5837C181.644 21.7234 181.727 21.7977 181.727 22.0733H181.726V24.0403C181.726 24.2879 181.578 24.2879 181.37 24.2879H181.237V24.4788C181.504 24.4708 181.772 24.4636 182.039 24.4636C182.307 24.4636 182.568 24.4788 182.828 24.4788V24.2879H182.695C182.487 24.2879 182.321 24.2879 182.321 24.0403V21.8424C182.568 21.6803 182.948 21.4854 183.184 21.4854C183.609 21.4854 183.869 21.6955 183.869 22.1188V24.0403C183.869 24.2887 183.721 24.2887 183.513 24.2887H183.379V24.4788C183.645 24.4724 183.913 24.4644 184.182 24.4644C184.45 24.4644 184.709 24.4788 184.971 24.4788V24.2887Z" fill="white" fill-opacity="0.55"/>
<path d="M185.318 26.2438C185.197 26.2438 185.144 26.2574 185.088 26.2606V27.465H185.286C185.691 27.465 185.909 27.3124 185.909 26.8348C185.908 26.4738 185.678 26.2438 185.318 26.2438ZM185.286 27.4474H185.105V26.2758C185.157 26.271 185.208 26.2598 185.318 26.2598C185.67 26.263 185.89 26.481 185.893 26.834C185.889 27.3037 185.686 27.4418 185.286 27.4474Z" fill="white" fill-opacity="0.55"/>
<path d="M195.567 25.9603L195.546 25.9539L195.544 25.9715C195.538 26.0777 195.458 26.0793 195.344 26.0817H193.237C193.132 26.0793 193.058 26.0777 193.03 25.9763L193.025 25.9635H192.898V25.9803C192.898 26.0969 192.889 26.2095 192.874 26.3213C192.861 26.4379 192.841 26.5513 192.825 26.6655L192.823 26.6855H192.979L192.982 26.6711C193.049 26.3716 193.041 26.3213 193.342 26.3173H193.988L193.99 28.4577C193.983 28.7716 193.895 28.774 193.671 28.7788H193.576V28.9345H193.594C193.752 28.9345 194.037 28.9177 194.278 28.9177C194.495 28.9177 194.778 28.9345 194.937 28.9345H194.953V28.7796H194.857C194.665 28.7748 194.542 28.7548 194.54 28.4497V26.3181H195.188C195.442 26.3181 195.46 26.5377 195.47 26.6895L195.472 26.7126L195.614 26.6607L195.626 26.6559V26.644C195.626 26.5361 195.626 26.4267 195.634 26.3197C195.647 26.2103 195.662 26.1033 195.678 25.9939L195.683 25.9771L195.567 25.9603ZM195.614 26.3181C195.606 26.4283 195.606 26.5361 195.606 26.644L195.486 26.6903C195.477 26.5409 195.458 26.3029 195.187 26.3029H194.521V28.4513C194.521 28.7644 194.664 28.8003 194.857 28.8003H194.933V28.9209C194.778 28.9209 194.493 28.9042 194.275 28.9042C194.032 28.9042 193.748 28.9209 193.591 28.9209V28.8003H193.668C193.891 28.8003 194.005 28.7812 194.005 28.4609V26.3029H193.341C193.037 26.3029 193.024 26.3764 192.963 26.6711H192.842C192.859 26.5561 192.88 26.4451 192.892 26.3253C192.909 26.2119 192.916 26.1001 192.916 25.9819H193.014C193.045 26.1025 193.147 26.0985 193.256 26.0985H195.345C195.455 26.0985 195.555 26.0945 195.562 25.9739L195.659 25.9907C195.642 26.1009 195.629 26.2071 195.614 26.3181Z" fill="white" fill-opacity="0.55"/>
<path d="M195.577 25.9947C195.559 26.1121 195.444 26.1192 195.34 26.1192H193.232C193.138 26.12 193.033 26.1153 192.996 26.0026H192.93C192.929 26.1129 192.923 26.2223 192.906 26.3293C192.896 26.4387 192.875 26.5473 192.86 26.6527H192.945C192.998 26.3716 193.034 26.2798 193.336 26.2846H194.015V28.4617C194.015 28.7852 193.886 28.8171 193.663 28.8179H193.604V28.9018C193.764 28.9002 194.037 28.885 194.272 28.885C194.484 28.885 194.754 28.9002 194.913 28.9018V28.8171H194.854C194.66 28.8163 194.503 28.7676 194.503 28.4513V26.2838H195.185C195.457 26.2846 195.493 26.5162 195.499 26.6663L195.588 26.6336C195.588 26.529 195.588 26.4227 195.596 26.3173C195.608 26.2127 195.622 26.1097 195.639 26.005L195.577 25.9947Z" fill="white" fill-opacity="0.55"/>
<path d="M199.425 23.0724C199.276 23.8503 198.666 24.3558 197.931 24.3558C196.786 24.3558 195.714 23.2792 195.714 21.7785C195.714 19.9967 196.955 19.4249 197.811 19.4249C198.644 19.4249 199.26 19.7723 199.402 20.6429H199.586L199.513 19.5806C198.94 19.381 198.358 19.1861 197.756 19.1861C196.298 19.1861 194.937 20.2779 194.937 21.7993C194.937 23.4709 196.039 24.5922 197.779 24.5922C198.272 24.593 199.112 24.3925 199.425 24.1993L199.596 23.1163L199.425 23.0724Z" fill="white" fill-opacity="0.55"/>
<path d="M193.135 28.7764C193.009 28.7804 192.934 28.7356 192.888 28.631C192.837 28.5112 192.788 28.3627 192.738 28.2189L191.992 26.1057C191.978 26.0713 191.968 26.0354 191.956 26.0026C191.942 25.9827 191.921 25.9795 191.911 25.9795C191.894 25.9795 191.883 25.9859 191.871 25.9899C191.792 26.0394 191.63 26.1208 191.504 26.1632C191.47 26.3245 191.396 26.525 191.343 26.6759L190.694 28.5304C190.635 28.6957 190.51 28.7796 190.36 28.7796H190.319V28.9353H190.338C190.483 28.9273 190.628 28.9185 190.774 28.9185C190.936 28.9185 191.102 28.9273 191.262 28.9353H191.28V28.7796H191.218C191.084 28.7796 190.934 28.7556 190.932 28.6566C190.932 28.5911 190.981 28.4841 191.022 28.3459L191.146 27.937H192.039L192.193 28.3938C192.239 28.5216 192.276 28.6326 192.273 28.6773C192.273 28.7556 192.136 28.7772 192.04 28.7772H191.978V28.9345L191.996 28.9329C192.204 28.9257 192.404 28.9161 192.602 28.9161C192.794 28.9161 192.979 28.9257 193.158 28.9329L193.176 28.9345V28.7764H193.135ZM193.162 28.9201C192.979 28.9121 192.798 28.9034 192.605 28.9034C192.406 28.9034 192.203 28.9121 191.996 28.9201V28.8003H192.042C192.136 28.8003 192.292 28.7836 192.292 28.6829C192.292 28.631 192.256 28.5232 192.211 28.393L192.052 27.9242H191.134L191.006 28.3451C190.965 28.4809 190.916 28.5879 190.916 28.6598C190.916 28.782 191.086 28.8011 191.219 28.8011H191.265V28.9225C191.102 28.9145 190.937 28.9066 190.773 28.9066C190.628 28.9066 190.483 28.9137 190.337 28.9225V28.8011H190.361C190.519 28.8011 190.654 28.7077 190.713 28.5376L191.361 26.6855C191.414 26.5353 191.487 26.3357 191.511 26.1831C191.64 26.1384 191.802 26.0593 191.878 26.009C191.891 26.0058 191.896 26.001 191.911 26.001C191.924 26.001 191.931 26.001 191.94 26.0138C191.952 26.0466 191.964 26.0833 191.976 26.1137L192.722 28.2269C192.771 28.3691 192.817 28.5168 192.873 28.6406C192.921 28.7548 193.005 28.8011 193.14 28.8011H193.162V28.9201Z" fill="white" fill-opacity="0.55"/>
<path d="M193.139 28.8179C193 28.8179 192.905 28.7636 192.855 28.6446C192.802 28.5216 192.753 28.3707 192.705 28.2285L191.96 26.1153C191.946 26.0841 191.936 26.0458 191.924 26.0178C191.922 26.013 191.922 26.013 191.917 26.013H191.911C191.903 26.013 191.896 26.017 191.889 26.0194C191.811 26.0689 191.647 26.1496 191.528 26.1815C191.503 26.3341 191.43 26.5353 191.377 26.6855L190.729 28.54C190.668 28.7157 190.526 28.8163 190.361 28.8163H190.355V28.9002C190.493 28.8914 190.633 28.8834 190.775 28.8834C190.932 28.8834 191.091 28.8922 191.246 28.9002V28.8163H191.219C191.088 28.8139 190.903 28.7995 190.898 28.6566C190.899 28.5759 190.949 28.4721 190.989 28.3363L191.122 27.9026H192.064L192.228 28.385C192.273 28.5152 192.311 28.6222 192.311 28.6813C192.306 28.8043 192.134 28.8147 192.042 28.8179H192.016V28.901C192.216 28.893 192.412 28.8842 192.605 28.8842C192.792 28.8842 192.969 28.893 193.146 28.901V28.8179H193.139ZM191.186 27.7134L191.574 26.5345H191.607L191.993 27.7134H191.186Z" fill="white" fill-opacity="0.55"/>
<path d="M191.596 26.5521H191.587V26.5545L191.212 27.6974H191.968L191.596 26.5521ZM191.591 26.5952L191.943 27.6766H191.235L191.591 26.5952Z" fill="white" fill-opacity="0.55"/>
<path d="M265.373 6.95545L264.335 9.48042H266.421L265.373 6.95545Z" fill="white" fill-opacity="0.55"/>
<path d="M229.505 6.95545L228.479 9.48042H230.539L229.505 6.95545Z" fill="white" fill-opacity="0.55"/>
<path d="M253.317 7.31312C253.138 7.21161 252.863 7.19862 252.601 7.19862H250.74V8.60453H252.577C252.867 8.60453 253.112 8.59981 253.323 8.47468C253.518 8.37198 253.634 8.14888 253.634 7.87265C253.634 7.60115 253.513 7.4052 253.317 7.31312Z" fill="white" fill-opacity="0.55"/>
<path d="M259.792 18.2086C259.608 18.0989 259.337 18.0941 259.071 18.0941H257.209V19.5166H259.046C259.34 19.5166 259.591 19.5071 259.795 19.3879C259.991 19.2675 260.107 19.0515 260.107 18.7788C260.104 18.5061 259.987 18.3102 259.792 18.2086Z" fill="white" fill-opacity="0.55"/>
<path d="M252.435 18.0918H250.466V19.7054H252.416C252.997 19.7054 253.359 19.4174 253.359 18.8709C253.358 18.3137 252.982 18.0918 252.435 18.0918Z" fill="white" fill-opacity="0.55"/>
<path d="M280.342 19.0432C280.332 19.0326 280.32 19.0208 280.309 19.0125C280.595 18.826 280.786 18.5026 280.786 18.1343V16.785C280.786 16.2054 280.319 15.738 279.741 15.738H276.714C275.77 15.738 275.059 16.0165 274.541 16.4368C274.396 16.0307 274.024 15.738 273.568 15.738H270.54C269.708 15.738 269.051 15.9445 268.552 16.2845C268.371 15.9599 268.044 15.738 267.653 15.738H262.612C262.205 15.738 261.862 15.9752 261.689 16.314C261.617 16.2633 261.564 16.2042 261.489 16.1594C260.757 15.7675 259.98 15.738 259.179 15.738H255.689C255.282 15.738 254.938 15.9776 254.766 16.3187C254.235 15.9729 253.492 15.738 252.435 15.738H247.608C247.317 15.738 247.04 15.856 246.841 16.0708L245.697 17.3068L244.599 16.085C244.403 15.8595 244.121 15.7368 243.823 15.7368H237.747C237.17 15.7368 236.704 16.2054 236.704 16.7838V23.1193C236.704 23.6989 237.171 24.1663 237.747 24.1663H243.732C244.023 24.1663 244.3 24.0448 244.498 23.8299L245.651 22.5798L246.746 23.8134C246.944 24.0377 247.229 24.164 247.527 24.164H250.463C251.042 24.164 251.508 23.6953 251.508 23.1193V22.038H252.348C253.369 22.038 254.108 21.8279 254.645 21.508V23.1193C254.645 23.6965 255.113 24.164 255.69 24.164H257.208C257.787 24.164 258.253 23.6953 258.253 23.1193V21.8491H258.822C258.961 21.8491 259.059 21.8538 259.129 21.8586C259.134 21.9719 259.134 22.1076 259.132 22.1974V23.1193C259.132 23.6965 259.602 24.164 260.177 24.164H261.693C261.862 24.164 262.015 24.1179 262.154 24.0459C262.296 24.1156 262.448 24.164 262.615 24.164H267.658C267.822 24.164 267.974 24.1179 268.111 24.0507C268.249 24.1179 268.398 24.164 268.565 24.164H271.507C272.444 24.164 273.207 23.9338 273.779 23.5277C273.935 23.9007 274.305 24.164 274.737 24.164H277.68C279.82 24.164 281.096 23.0249 281.096 21.1184C281.096 20.2355 280.858 19.5779 280.342 19.0432ZM252.349 20.9909H250.464V23.1169H247.528L245.667 21.0205L243.732 23.1169H237.747V16.7803H243.823L245.684 18.8579L247.607 16.7803H252.434C253.632 16.7803 254.981 17.1167 254.981 18.8709C254.981 20.6285 253.671 20.9945 252.349 20.9909ZM260.704 20.1753C261.039 20.298 261.313 20.5211 261.441 20.7076C261.656 21.0169 261.684 21.3049 261.692 21.8633V23.1193H260.176V22.326C260.176 21.9459 260.212 21.3805 259.929 21.0854C259.713 20.8599 259.377 20.8068 258.823 20.8068H257.209V23.1193H255.691V16.7838H259.181C259.945 16.7838 260.501 16.8157 260.999 17.0813C261.475 17.3693 261.775 17.766 261.775 18.4872C261.775 19.5 261.1 20.0159 260.704 20.1753ZM267.656 18.093H264.117V19.2462H267.568V20.54H264.117V21.7984L267.656 21.8055V23.1193H262.614V16.7838H267.656V18.093ZM271.509 23.1122H268.566V21.7512H271.496C271.781 21.7512 271.985 21.7157 272.112 21.5942C272.215 21.4974 272.288 21.3522 272.288 21.1798C272.288 20.9957 272.211 20.8505 272.105 20.7619C271.987 20.6651 271.831 20.6215 271.566 20.6215C270.155 20.5754 268.385 20.6651 268.385 18.6619C268.385 17.74 268.96 16.7756 270.545 16.7756H273.572V18.1236H270.801C270.524 18.1236 270.346 18.1354 270.195 18.2393C270.029 18.3432 269.967 18.4955 269.967 18.6962C269.967 18.9358 270.107 19.0951 270.297 19.1683C270.458 19.2238 270.628 19.2403 270.886 19.2403L271.697 19.264C272.516 19.2864 273.08 19.428 273.42 19.7739C273.717 20.0796 273.874 20.4668 273.874 21.1173C273.874 22.483 273.027 23.1193 271.509 23.1122ZM277.682 23.1122H274.74V21.7512H277.671C277.956 21.7512 278.159 21.7157 278.285 21.5942C278.389 21.4974 278.462 21.3522 278.462 21.1798C278.462 20.9957 278.384 20.8505 278.278 20.7619C278.162 20.6651 278.006 20.6215 277.74 20.6215C276.328 20.5754 274.558 20.6651 274.558 18.6619C274.558 17.74 275.133 16.7756 276.719 16.7756H279.746V18.1236H276.976C276.698 18.1236 276.518 18.1354 276.369 18.2393C276.203 18.3432 276.142 18.4955 276.142 18.6962C276.142 18.9358 276.283 19.0951 276.47 19.1683C276.633 19.2238 276.801 19.2403 277.059 19.2403L277.871 19.264C278.691 19.2864 279.256 19.428 279.596 19.7739C279.891 20.0796 280.05 20.4668 280.05 21.1173C280.05 22.483 279.201 23.1193 277.682 23.1122Z" fill="white" fill-opacity="0.55"/>
<path d="M275.6 4.83301H274.053C273.475 4.83301 273.008 5.30165 273.008 5.87888V6.53285L272.291 5.33942C272.1 5.0266 271.762 4.83419 271.398 4.83419H269.095C268.518 4.83419 268.051 5.30283 268.051 5.88006V6.76894L267.497 5.46809C267.333 5.08444 266.956 4.83419 266.539 4.83419H264.275C264.045 4.83419 263.826 4.90974 263.652 5.04195C263.479 4.91092 263.261 4.83419 263.026 4.83419H261.567C260.325 4.83419 259.406 5.1352 258.73 5.72306C258.652 5.22374 258.239 4.83419 257.718 4.83419H256.175C255.763 4.83419 255.418 5.07854 255.246 5.42323C255.181 5.37601 255.132 5.31935 255.058 5.27686C254.349 4.86606 253.604 4.83419 252.705 4.83419H249.23C249.034 4.83419 248.864 4.90265 248.706 4.99591C248.551 4.90265 248.378 4.83419 248.183 4.83419H243.136C242.923 4.83419 242.738 4.91328 242.573 5.02188C242.407 4.91328 242.222 4.83419 242.01 4.83419H239.492C239.075 4.83419 238.697 5.08562 238.533 5.47281L237.635 7.59289L236.647 5.44212C236.475 5.07146 236.104 4.83419 235.699 4.83419H233.232C232.655 4.83419 232.188 5.30283 232.188 5.88006V6.79019L231.622 5.46573C231.457 5.08208 231.08 4.83301 230.662 4.83301H228.419C228.001 4.83301 227.624 5.08326 227.459 5.46691L224.754 11.8024C224.615 12.127 224.65 12.4953 224.842 12.7904C225.035 13.0831 225.362 13.2602 225.713 13.2602H227.355C227.775 13.2602 228.155 13.0052 228.317 12.6157L228.636 11.846H230.386L230.701 12.611C230.861 13.0029 231.243 13.259 231.667 13.259H234.74C235.317 13.259 235.784 12.7904 235.784 12.2132V12.1884L235.981 12.6381C236.149 13.0159 236.523 13.2602 236.936 13.2602L238.263 13.2626C238.678 13.2626 239.05 13.0182 239.217 12.6393L239.418 12.1907V12.2167C239.418 12.7939 239.884 13.2614 240.461 13.2614H242.01C242.222 13.2614 242.407 13.1811 242.573 13.0737C242.738 13.1811 242.923 13.2614 243.136 13.2614H248.183C248.378 13.2614 248.551 13.1929 248.706 13.0997C248.862 13.1929 249.034 13.2614 249.23 13.2614H250.742C251.32 13.2614 251.786 12.7928 251.786 12.2155V10.9572H252.363C252.494 10.9572 252.587 10.9607 252.657 10.9654C252.664 11.0728 252.661 11.2003 252.661 11.2853L252.659 11.4246L252.665 12.2238C252.67 12.7975 253.137 13.2614 253.71 13.2614H255.234C255.405 13.2614 255.559 13.2083 255.702 13.1351C255.847 13.2094 256.002 13.2614 256.174 13.2614H257.717C258.224 13.2614 258.624 12.8954 258.722 12.4185C259.578 13.1398 260.785 13.2614 261.456 13.2614H263.226C263.648 13.2614 264.03 13.0017 264.189 12.6062L264.496 11.8472H266.237L266.557 12.6169C266.718 13.0052 267.097 13.2602 267.52 13.2602H270.595C271.172 13.2602 271.638 12.7916 271.638 12.2143V11.2145L272.565 12.755C272.755 13.0678 273.093 13.2602 273.461 13.2602H275.6C276.177 13.2602 276.643 12.7916 276.643 12.2143V5.87888C276.643 5.30165 276.175 4.83301 275.6 4.83301ZM242.009 12.2132H240.46L240.454 7.25174L238.263 12.2132H236.936L234.741 7.24702V12.2132H231.665L231.085 10.8002H227.94L227.353 12.2132H225.711L228.417 5.8777H230.659L233.231 11.8767V5.8777H235.698L237.675 10.1757L239.491 5.8777H242.009V12.2132ZM248.182 7.19744H244.645V8.33893H248.098V9.63742H244.645V10.9029H248.182V12.2132H243.135V5.8777H248.182V7.19744ZM254.233 9.27384C254.564 9.40133 254.846 9.62325 254.981 9.8074C255.195 10.1226 255.232 10.4035 255.232 10.969V12.212H253.707L253.7 11.4128C253.7 11.0327 253.737 10.485 253.462 10.1792C253.242 9.95732 252.905 9.90892 252.361 9.90892H250.741V12.2132H249.228V5.87888H252.703C253.475 5.87888 254.044 5.89895 254.532 6.18226C255.01 6.46556 255.296 6.87872 255.296 7.58581C255.296 8.59509 254.624 9.11802 254.233 9.27384ZM257.718 12.2132H256.175V5.8777H257.718V12.2132ZM275.6 12.2132H273.459L270.593 7.45832V12.2132H267.519L266.93 10.8002H263.789L263.222 12.2132H261.452C260.719 12.2132 259.792 12.0503 259.266 11.5131C258.731 10.9749 258.456 10.2453 258.456 9.09442C258.456 8.15478 258.622 7.29542 259.265 6.61548C259.751 6.11025 260.516 5.8777 261.56 5.8777H263.019V7.23521H261.588C261.038 7.23521 260.726 7.31666 260.426 7.6106C260.168 7.87738 259.993 8.38143 259.993 9.04602C259.993 9.72359 260.127 10.2123 260.41 10.5322C260.644 10.7836 261.068 10.8592 261.463 10.8592H262.14L264.275 5.8777H266.539L269.095 11.8696V5.8777H271.398L274.053 10.2902V5.8777H275.6V12.2132ZM262.114 8.28227L261.458 9.81567C261.313 9.81567 261.216 9.79914 261.161 9.78498C261.111 9.69054 261.041 9.4816 261.041 9.0472C261.041 8.60807 261.147 8.38025 261.161 8.36018C261.205 8.31768 261.242 8.28109 261.596 8.28109L262.114 8.28227Z" fill="white" fill-opacity="0.55"/>
<path d="M246.64 19.9616L248.96 22.5444V17.465L246.64 19.9616Z" fill="white" fill-opacity="0.55"/>
<path d="M243.042 18.0941H239.256V19.2451H242.572V20.5388H239.256V21.7995H242.969L244.695 19.938L243.042 18.0941Z" fill="white" fill-opacity="0.55"/>
<path d="M315.525 6.72766L308.995 22.309H304.733L301.522 9.87546C301.324 9.1087 301.156 8.82967 300.563 8.50407C299.592 7.97912 297.995 7.48672 296.584 7.18002L296.683 6.72775H303.54C304.415 6.72775 305.201 7.31106 305.399 8.31661L307.096 17.3348L311.29 6.72775L315.525 6.72766ZM332.219 17.2195C332.238 13.1094 326.532 12.8857 326.573 11.0469C326.584 10.4857 327.116 9.89173 328.281 9.74179C328.859 9.66482 330.451 9.60841 332.256 10.4368L332.963 7.13422C331.992 6.78183 330.744 6.44434 329.193 6.44434C325.209 6.44434 322.405 8.5633 322.381 11.5952C322.355 13.8372 324.382 15.0884 325.911 15.835C327.481 16.5991 328.006 17.0869 328 17.7721C327.99 18.8179 326.748 19.2749 325.589 19.2955C323.562 19.3271 322.386 18.7478 321.447 18.3105L320.718 21.7266C321.658 22.1584 323.399 22.5333 325.201 22.5554C329.435 22.5553 332.205 20.4589 332.219 17.2195ZM342.739 22.309H346.468L343.214 6.72775H339.772C338.998 6.72775 338.346 7.17885 338.056 7.86991L332.011 22.309H336.242L337.082 19.9821H342.253L342.739 22.309ZM338.241 16.7885L340.364 10.9379L341.585 16.7885H338.241ZM321.285 6.72766L317.95 22.309H313.919L317.254 6.72766H321.285Z" fill="white" fill-opacity="0.55"/>
<path fill-rule="evenodd" clip-rule="evenodd" d="M390.013 25.4092C390.248 25.4092 390.439 25.2181 390.439 24.9824V11.123C390.439 8.80888 392.315 6.93291 394.629 6.93257H394.63L398.721 6.93861C401.028 6.94322 402.897 8.81499 402.897 11.1223V14.0724C402.897 16.3868 401.02 18.263 398.706 18.263H392.924C392.688 18.263 392.497 18.4541 392.497 18.6898C392.497 18.9255 392.688 19.1166 392.924 19.1166H398.706C401.492 19.1166 403.75 16.8582 403.75 14.0724V11.1223C403.75 8.34424 401.501 6.09059 398.723 6.08503H398.723L394.631 6.07899H394.63C391.844 6.07899 389.586 8.33722 389.586 11.123V24.9824C389.586 25.2181 389.777 25.4092 390.013 25.4092Z" fill="white" fill-opacity="0.55"/>
<path fill-rule="evenodd" clip-rule="evenodd" d="M408.137 19.1786C408.373 19.1786 408.564 18.9875 408.564 18.7518V8.39874C408.564 7.1165 407.524 6.077 406.242 6.077H404.467C404.231 6.077 404.04 6.26808 404.04 6.50379C404.04 6.7395 404.231 6.93058 404.467 6.93058H406.242C407.053 6.93058 407.71 7.58786 407.71 8.39874V18.7518C407.71 18.9875 407.901 19.1786 408.137 19.1786Z" fill="white" fill-opacity="0.55"/>
<path d="M407.756 4.89985L406.951 4.09478C406.752 3.89513 406.752 3.57124 406.951 3.37148L407.756 2.56705C407.956 2.36697 408.28 2.36697 408.48 2.56705L409.285 3.37148C409.484 3.57124 409.484 3.89513 409.285 4.09478L408.48 4.89985C408.28 5.09961 407.956 5.09961 407.756 4.89985Z" fill="white" fill-opacity="0.55"/>
<path fill-rule="evenodd" clip-rule="evenodd" d="M421.464 11.3103C421.097 11.6771 420.503 11.6771 420.136 11.3103L416.019 7.19289C415.298 6.47246 414.321 6.0678 413.303 6.0678H411.542C411.307 6.0678 411.116 6.25888 411.116 6.49459C411.116 6.7303 411.307 6.92138 411.542 6.92138H413.303C414.095 6.92138 414.855 7.23612 415.415 7.79641L419.533 11.9138C420.233 12.6139 421.368 12.614 422.068 11.9138L426.17 7.81148C426.73 7.25127 427.49 6.93652 428.283 6.93652H429.714C429.95 6.93652 430.141 6.74544 430.141 6.50974C430.141 6.27403 429.95 6.08295 429.714 6.08295H428.283C427.264 6.08295 426.287 6.48758 425.567 7.2079L421.464 11.3103Z" fill="white" fill-opacity="0.55"/>
<path fill-rule="evenodd" clip-rule="evenodd" d="M411.116 18.6612C411.116 18.8969 411.307 19.088 411.542 19.088H413.303C414.321 19.088 415.298 18.6833 416.019 17.9629L420.136 13.8454C420.503 13.4787 421.097 13.4787 421.464 13.8454L425.567 17.9477C426.287 18.6682 427.264 19.0728 428.283 19.0728H429.714C429.95 19.0728 430.141 18.8817 430.141 18.646C430.141 18.4103 429.95 18.2192 429.714 18.2192H428.283C427.49 18.2192 426.73 17.9045 426.17 17.3442L422.068 13.2418C421.368 12.5418 420.233 12.5418 419.533 13.2419L415.415 17.3593C414.855 17.9196 414.095 18.2344 413.303 18.2344H411.542C411.307 18.2344 411.116 18.4255 411.116 18.6612Z" fill="white" fill-opacity="0.55"/>
<path d="M379.518 21.2916C378.634 21.2916 377.803 20.9476 377.178 20.3231L373.801 16.9455C373.564 16.7078 373.15 16.7085 372.913 16.9455L369.523 20.3355C368.899 20.9599 368.068 21.3039 367.184 21.3039H366.518L370.796 25.5817C372.132 26.9176 374.298 26.9176 375.634 25.5817L379.924 21.2916H379.518Z" fill="white" fill-opacity="0.55"/>
<path d="M367.184 9.34438C368.068 9.34438 368.899 9.6885 369.523 10.313L372.913 13.7035C373.157 13.9476 373.556 13.9487 373.801 13.7031L377.178 10.3253C377.803 9.70079 378.634 9.35677 379.518 9.35677H379.924L375.634 5.06675C374.298 3.73072 372.132 3.73072 370.796 5.06675L366.519 9.34438H367.184Z" fill="white" fill-opacity="0.55"/>
<path d="M383.473 12.9052L380.88 10.3127C380.823 10.3356 380.761 10.3499 380.696 10.3499H379.518C378.908 10.3499 378.312 10.597 377.881 11.0278L374.503 14.4055C374.187 14.7215 373.772 14.8798 373.357 14.8798C372.942 14.8798 372.527 14.7215 372.211 14.4058L368.821 11.0155C368.39 10.5847 367.794 10.3376 367.184 10.3376H365.735C365.673 10.3376 365.615 10.323 365.561 10.3024L362.958 12.9052C361.622 14.2411 361.622 16.4072 362.958 17.7433L365.561 20.346C365.615 20.3255 365.673 20.3108 365.735 20.3108H367.184C367.794 20.3108 368.39 20.0637 368.821 19.6329L372.211 16.2429C372.823 15.6307 373.891 15.6304 374.503 16.2432L377.881 19.6205C378.312 20.0514 378.908 20.2986 379.518 20.2986H380.696C380.762 20.2986 380.823 20.3127 380.88 20.3356L383.473 17.7433C384.809 16.4072 384.809 14.2411 383.473 12.9052Z" fill="white" fill-opacity="0.55"/>
<path d="M393.532 23.8044C393.34 23.8044 393.118 23.8504 392.897 23.9011V24.7458C393.05 24.8015 393.224 24.8282 393.391 24.8282C393.815 24.8282 394.016 24.6854 394.016 24.3125C394.016 23.9616 393.851 23.8044 393.532 23.8044ZM392.754 25.3728V23.7026H392.871L392.883 23.7754C393.079 23.7293 393.35 23.6688 393.544 23.6688C393.701 23.6688 393.851 23.6928 393.977 23.7945C394.122 23.9133 394.168 24.1044 394.168 24.3125C394.168 24.5305 394.095 24.7362 393.897 24.8499C393.759 24.9273 393.573 24.9588 393.406 24.9588C393.234 24.9588 393.069 24.932 392.897 24.8814V25.3728H392.754Z" fill="white" fill-opacity="0.55"/>
<path d="M395.231 23.7993C394.808 23.7993 394.619 23.9326 394.619 24.3053C394.619 24.6659 394.805 24.8282 395.231 24.8282C395.653 24.8282 395.841 24.6974 395.841 24.3246C395.841 23.964 395.655 23.7993 395.231 23.7993ZM395.776 24.8282C395.636 24.9297 395.447 24.9588 395.231 24.9588C395.011 24.9588 394.822 24.9272 394.684 24.8282C394.529 24.7193 394.467 24.54 394.467 24.315C394.467 24.0923 394.529 23.911 394.684 23.7993C394.822 23.7002 395.011 23.6688 395.231 23.6688C395.449 23.6688 395.636 23.7002 395.776 23.7993C395.933 23.911 395.994 24.0923 395.994 24.3125C395.994 24.5377 395.931 24.7193 395.776 24.8282Z" fill="white" fill-opacity="0.55"/>
<path d="M397.781 24.925L397.309 23.911H397.299L396.835 24.925H396.706L396.203 23.7026H396.36L396.779 24.7287H396.789L397.244 23.7026H397.374L397.841 24.7287H397.851L398.26 23.7026H398.413L397.909 24.925H397.781Z" fill="white" fill-opacity="0.55"/>
<path d="M399.326 23.797C398.934 23.797 398.801 23.9712 398.776 24.2231H399.875C399.863 23.9448 399.72 23.797 399.326 23.797ZM399.321 24.9589C399.086 24.9589 398.934 24.925 398.813 24.8231C398.67 24.6997 398.621 24.5208 398.621 24.3151C398.621 24.1189 398.687 23.9109 398.849 23.7922C398.985 23.6978 399.152 23.6688 399.326 23.6688C399.483 23.6688 399.665 23.6856 399.815 23.7874C399.991 23.9058 400.025 24.1142 400.025 24.3512H398.772C398.776 24.603 398.859 24.8258 399.333 24.8258C399.558 24.8258 399.769 24.7893 399.965 24.7555V24.8838C399.761 24.9202 399.536 24.9589 399.321 24.9589Z" fill="white" fill-opacity="0.55"/>
<path d="M400.435 24.925V23.7026H400.551L400.564 23.7754C400.822 23.7099 400.944 23.6688 401.171 23.6688H401.188V23.8044H401.154C400.963 23.8044 400.847 23.8308 400.578 23.9011V24.925H400.435Z" fill="white" fill-opacity="0.55"/>
<path d="M402.017 23.797C401.625 23.797 401.492 23.9712 401.468 24.2231H402.567C402.555 23.9448 402.412 23.797 402.017 23.797ZM402.013 24.9589C401.778 24.9589 401.625 24.925 401.504 24.8231C401.361 24.6997 401.313 24.5208 401.313 24.3151C401.313 24.1189 401.378 23.9109 401.541 23.7922C401.676 23.6978 401.843 23.6688 402.017 23.6688C402.175 23.6688 402.356 23.6856 402.506 23.7874C402.683 23.9058 402.717 24.1142 402.717 24.3512H401.463C401.468 24.603 401.55 24.8258 402.025 24.8258C402.25 24.8258 402.46 24.7893 402.657 24.7555V24.8838C402.453 24.9202 402.228 24.9589 402.013 24.9589Z" fill="white" fill-opacity="0.55"/>
<path d="M404.281 23.8819C404.129 23.8261 403.955 23.7994 403.788 23.7994C403.364 23.7994 403.163 23.9424 403.163 24.3151C403.163 24.6683 403.328 24.8232 403.647 24.8232C403.838 24.8232 404.061 24.7772 404.281 24.7288V23.8819ZM404.308 24.925L404.296 24.8523C404.1 24.8982 403.829 24.9588 403.635 24.9588C403.478 24.9588 403.328 24.9371 403.202 24.8329C403.057 24.7142 403.011 24.5232 403.011 24.3151C403.011 24.0973 403.083 23.8913 403.282 23.78C403.42 23.7002 403.606 23.6688 403.776 23.6688C403.945 23.6688 404.11 23.6979 404.281 23.7462V23.1871H404.424V24.925H404.308Z" fill="white" fill-opacity="0.55"/>
<path d="M406.518 23.8044C406.327 23.8044 406.104 23.8504 405.884 23.9011V24.7433C406.039 24.8015 406.211 24.8282 406.378 24.8282C406.801 24.8282 407.002 24.6854 407.002 24.3125C407.002 23.9616 406.838 23.8044 406.518 23.8044ZM406.884 24.8499C406.746 24.9273 406.559 24.9588 406.392 24.9588C406.211 24.9588 406.029 24.9273 405.845 24.8667L405.838 24.925H405.741V23.1871H405.884V23.7703C406.08 23.727 406.344 23.6688 406.53 23.6688C406.688 23.6688 406.838 23.6928 406.964 23.7945C407.109 23.9133 407.155 24.1044 407.155 24.3125C407.155 24.5305 407.082 24.7362 406.884 24.8499Z" fill="white" fill-opacity="0.55"/>
<path d="M407.344 25.3944V25.2615C407.415 25.2687 407.48 25.2736 407.526 25.2736C407.703 25.2736 407.809 25.2226 407.908 25.0217L407.954 24.925L407.315 23.7026H407.48L408.027 24.7578H408.037L408.557 23.7026H408.719L408.032 25.075C407.906 25.3244 407.77 25.4066 407.521 25.4066C407.465 25.4066 407.405 25.4018 407.344 25.3944Z" fill="white" fill-opacity="0.55"/>
<path d="M410.688 24.2279H410.213V24.6564H410.69C411.017 24.6564 411.14 24.6199 411.14 24.441C411.14 24.2495 410.971 24.2279 410.688 24.2279ZM410.6 23.533H410.213V23.9688H410.603C410.925 23.9688 411.053 23.9301 411.053 23.7486C411.053 23.5551 410.891 23.533 410.6 23.533ZM411.336 24.8089C411.162 24.9202 410.951 24.925 410.566 24.925H409.843V23.267H410.55C410.881 23.267 411.084 23.2718 411.254 23.3735C411.375 23.4462 411.423 23.5575 411.423 23.7026C411.423 23.8769 411.351 23.993 411.162 24.0706V24.08C411.375 24.1287 411.513 24.2377 411.513 24.4724C411.513 24.632 411.455 24.7363 411.336 24.8089Z" fill="white" fill-opacity="0.55"/>
<path d="M412.961 24.4119C412.818 24.3997 412.673 24.3925 412.52 24.3925C412.271 24.3925 412.184 24.4433 412.184 24.557C412.184 24.6635 412.257 24.7217 412.448 24.7217C412.607 24.7217 412.799 24.6855 412.961 24.6489V24.4119ZM413.033 24.925L413.024 24.8523C412.816 24.9033 412.574 24.9588 412.361 24.9588C412.23 24.9588 412.089 24.9419 411.99 24.8691C411.898 24.8039 411.855 24.6973 411.855 24.5738C411.855 24.4359 411.915 24.3078 412.06 24.2424C412.189 24.1818 412.361 24.1771 412.518 24.1771C412.646 24.1771 412.818 24.1843 412.961 24.194V24.1721C412.961 23.981 412.835 23.9181 412.491 23.9181C412.358 23.9181 412.196 23.9251 412.041 23.9397V23.6928C412.213 23.6785 412.406 23.6688 412.566 23.6688C412.779 23.6688 413 23.6857 413.135 23.7824C413.275 23.8819 413.302 24.0199 413.302 24.2012V24.925H413.033Z" fill="white" fill-opacity="0.55"/>
<path d="M414.898 24.925V24.2495C414.898 24.0269 414.784 23.9472 414.581 23.9472C414.431 23.9472 414.242 23.9857 414.082 24.0246V24.925H413.741V23.7026H414.019L414.031 23.7799C414.247 23.7245 414.487 23.6688 414.685 23.6688C414.835 23.6688 414.988 23.6904 415.104 23.7946C415.201 23.8818 415.237 24.0026 415.237 24.177V24.925H414.898Z" fill="white" fill-opacity="0.55"/>
<path d="M416.201 24.9588C416.044 24.9588 415.872 24.9371 415.746 24.8306C415.596 24.7095 415.552 24.5184 415.552 24.3124C415.552 24.1189 415.615 23.9082 415.802 23.7898C415.954 23.6904 416.143 23.6688 416.339 23.6688C416.479 23.6688 416.617 23.6785 416.77 23.6928V23.9543C416.646 23.9423 416.499 23.9326 416.38 23.9326C416.056 23.9326 415.903 24.0343 415.903 24.3151C415.903 24.5789 416.017 24.6925 416.283 24.6925C416.438 24.6925 416.62 24.6635 416.797 24.6297V24.8814C416.605 24.9203 416.397 24.9588 416.201 24.9588Z" fill="white" fill-opacity="0.55"/>
<path d="M417.805 23.9251C417.48 23.9251 417.337 24.027 417.337 24.3053C417.337 24.5837 417.478 24.7024 417.805 24.7024C418.127 24.7024 418.267 24.603 418.267 24.3245C418.267 24.0463 418.129 23.9251 417.805 23.9251ZM418.39 24.8306C418.24 24.932 418.044 24.9588 417.805 24.9588C417.56 24.9588 417.364 24.9296 417.216 24.8306C417.047 24.7193 416.986 24.5353 416.986 24.3151C416.986 24.0947 417.047 23.9083 417.216 23.7969C417.364 23.6978 417.56 23.6688 417.805 23.6688C418.047 23.6688 418.24 23.6978 418.39 23.7969C418.56 23.9083 418.618 24.0947 418.618 24.3124C418.618 24.5328 418.557 24.7193 418.39 24.8306Z" fill="white" fill-opacity="0.55"/>
<path d="M420.588 24.9588C420.383 24.9588 420.16 24.925 419.993 24.7869C419.794 24.6222 419.734 24.3682 419.734 24.0946C419.734 23.8503 419.811 23.5599 420.07 23.3903C420.271 23.2598 420.521 23.2331 420.772 23.2331C420.956 23.2331 421.145 23.2452 421.351 23.2621V23.5599C421.174 23.5453 420.956 23.5331 420.787 23.5331C420.315 23.5331 420.114 23.7123 420.114 24.0946C420.114 24.4845 420.3 24.6588 420.649 24.6588C420.876 24.6588 421.13 24.6127 421.387 24.5594V24.8547C421.13 24.9056 420.862 24.9588 420.588 24.9588Z" fill="white" fill-opacity="0.55"/>
<path d="M422.39 23.8865C422.107 23.8865 421.998 23.9884 421.976 24.1747H422.799C422.789 23.9762 422.673 23.8865 422.39 23.8865ZM422.339 24.9588C422.138 24.9588 421.957 24.9347 421.821 24.8231C421.676 24.7024 421.625 24.5208 421.625 24.3124C421.625 24.1261 421.686 23.9181 421.855 23.7969C422.005 23.6904 422.196 23.6688 422.39 23.6688C422.564 23.6688 422.77 23.688 422.92 23.7922C423.116 23.9302 423.133 24.1433 423.135 24.3949H421.974C421.981 24.5813 422.08 24.7024 422.424 24.7024C422.637 24.7024 422.874 24.6709 423.075 24.6394V24.879C422.84 24.9178 422.584 24.9588 422.339 24.9588Z" fill="white" fill-opacity="0.55"/>
<path d="M424.654 24.925V24.2495C424.654 24.0269 424.54 23.9472 424.337 23.9472C424.187 23.9472 423.998 23.9857 423.838 24.0246V24.925H423.497V23.7026H423.775L423.787 23.7799C424.003 23.7245 424.242 23.6688 424.441 23.6688C424.591 23.6688 424.743 23.6904 424.86 23.7946C424.956 23.8818 424.993 24.0026 424.993 24.177V24.925H424.654Z" fill="white" fill-opacity="0.55"/>
<path d="M425.964 24.9588C425.8 24.9588 425.649 24.9127 425.567 24.7845C425.507 24.6973 425.478 24.5789 425.478 24.4142V23.9566H425.231V23.7027H425.478L425.514 23.3323H425.817V23.7027H426.298V23.9566H425.817V24.349C425.817 24.4433 425.824 24.5232 425.85 24.5813C425.887 24.6635 425.967 24.695 426.073 24.695C426.153 24.695 426.25 24.6828 426.317 24.6709V24.9152C426.206 24.9371 426.078 24.9588 425.964 24.9588Z" fill="white" fill-opacity="0.55"/>
<path d="M426.631 24.925V23.7026H426.909L426.922 23.7799C427.147 23.7171 427.314 23.6688 427.527 23.6688C427.536 23.6688 427.551 23.6688 427.57 23.6711V23.9616C427.532 23.9593 427.486 23.9593 427.452 23.9593C427.285 23.9593 427.159 23.9785 426.972 24.0223V24.925H426.631Z" fill="white" fill-opacity="0.55"/>
<path d="M428.811 24.4119C428.668 24.3997 428.523 24.3925 428.37 24.3925C428.121 24.3925 428.034 24.4433 428.034 24.557C428.034 24.6635 428.107 24.7217 428.298 24.7217C428.458 24.7217 428.649 24.6854 428.811 24.6489V24.4119ZM428.884 24.925L428.874 24.8523C428.666 24.9033 428.424 24.9588 428.211 24.9588C428.08 24.9588 427.94 24.9419 427.84 24.8691C427.749 24.8039 427.705 24.6973 427.705 24.5738C427.705 24.4359 427.765 24.3077 427.911 24.2424C428.039 24.1818 428.211 24.177 428.368 24.177C428.496 24.177 428.668 24.1842 428.811 24.194V24.1721C428.811 23.981 428.685 23.9181 428.341 23.9181C428.208 23.9181 428.046 23.9251 427.891 23.9397V23.6928C428.063 23.6785 428.257 23.6688 428.417 23.6688C428.629 23.6688 428.85 23.6857 428.985 23.7824C429.126 23.8819 429.152 24.0199 429.152 24.2012V24.925H428.884Z" fill="white" fill-opacity="0.55"/>
<path d="M429.591 23.1871H429.933V24.925H429.591V23.1871Z" fill="white" fill-opacity="0.55"/>
</svg>
